<?xml version="1.0" encoding="UTF-8" standalone="no"?>
<!-- Created with Inkscape (http://www.inkscape.org/) -->

<svg
   width="512"
   height="512"
   viewBox="0 0 135.46666 135.46667"
   version="1.1"
   id="svg8"
   inkscape:version="1.2.2 (b0a8486541, 2022-12-01)"
   sodipodi:docname="icon.svg"
   inkscape:export-filename="icon.png"
   inkscape:export-xdpi="96.000008"
   inkscape:export-ydpi="96.000008"
   xmlns:inkscape="http://www.inkscape.org/namespaces/inkscape"
   xmlns:sodipodi="http://sodipodi.sourceforge.net/DTD/sodipodi-0.dtd"
   xmlns="http://www.w3.org/2000/svg"
   xmlns:svg="http://www.w3.org/2000/svg"
   xmlns:rdf="http://www.w3.org/1999/02/22-rdf-syntax-ns#"
   xmlns:cc="http://creativecommons.org/ns#"
   xmlns:dc="http://purl.org/dc/elements/1.1/">
  <defs
     id="defs2" />
  <sodipodi:namedview
     id="base"
     pagecolor="#ffffff"
     bordercolor="#666666"
     borderopacity="1.0"
     inkscape:pageopacity="0.0"
     inkscape:pageshadow="2"
     inkscape:zoom="0.98994949"
     inkscape:cx="-66.670068"
     inkscape:cy="199.00005"
     inkscape:document-units="px"
     inkscape:current-layer="layer1"
     showgrid="false"
     units="px"
     inkscape:window-width="1920"
     inkscape:window-height="1012"
     inkscape:window-x="0"
     inkscape:window-y="0"
     inkscape:window-maximized="1"
     inkscape:lockguides="true"
     inkscape:showpageshadow="2"
     inkscape:pagecheckerboard="0"
     inkscape:deskcolor="#d1d1d1" />
  <metadata
     id="metadata5">
    <rdf:RDF>
      <cc:Work
         rdf:about="">
        <dc:format>image/svg+xml</dc:format>
        <dc:type
           rdf:resource="http://purl.org/dc/dcmitype/StillImage" />
        <dc:title />
      </cc:Work>
    </rdf:RDF>
  </metadata>
  <g
     inkscape:label="Layer 1"
     inkscape:groupmode="layer"
     id="layer1"
     transform="translate(0,-161.53331)">
    <rect
       style="opacity:1;fill:#d40000;fill-opacity:1;fill-rule:nonzero;stroke:none;stroke-width:0.26458332;stroke-linecap:butt;stroke-linejoin:round;stroke-miterlimit:4;stroke-dasharray:none;stroke-dashoffset:0;stroke-opacity:0.90944878;paint-order:normal"
       id="rect4491"
       width="127"
       height="127"
       x="4.2333326"
       y="165.76665"
       rx="33.866665"
       ry="33.866665" />
    <path
       d="m 24.761323,206.02609 8.613894,-25.84168 8.613891,25.84168 -22.150011,-15.99724 h 27.687514 m 68.295869,79.37087 c 3.69167,4.30695 -4.92223,12.92085 -9.22918,9.22918 l -51.068073,-52.91393 -8.613893,8.6139 -12.305562,-12.30556 19.6889,-19.07362 20.304175,3.69167 -11.075004,11.07501 m -13.536119,38.14725 -1.845835,1.84583 1.845835,1.84584 c 2.461113,2.4611 -1.230555,6.15277 -3.691669,3.69166 l -1.845835,-1.84583 c -3.076389,6.15277 -5.5375,8.61388 -9.229169,12.30555 -4.922225,4.92223 -12.92084,-3.07638 -7.998617,-7.99861 3.691669,-3.69167 6.152783,-6.15277 12.305563,-9.22917 l -1.845834,-1.84584 c -2.461112,-2.4611 1.230557,-6.15277 3.691668,-3.69166 l 1.845835,1.84583 4.922223,-4.92223 h 4.922226 c 4.922225,7.38333 18.458342,17.2278 35.070854,4.30696 14.151391,-11.07501 14.766671,-42.45419 -15.997234,-60.29726 30.763905,2.4611 50.452795,47.37642 25.226401,69.52643 -15.997232,14.15138 -39.377796,9.22917 -47.376412,-5.5375"
       fill="#ffee00"
       id="path467"
       style="stroke-width:0.615277" />
  </g>
</svg>
