<?xml version="1.0" encoding="UTF-8" standalone="no"?>
<!-- Created with Inkscape (http://www.inkscape.org/) -->

<svg
   width="200"
   height="200"
   viewBox="0 0 52.916668 52.916666"
   version="1.1"
   id="svg8"
   inkscape:version="1.2.2 (b0a8486541, 2022-12-01)"
   sodipodi:docname="dogmatic.svg"
   xml:space="preserve"
   xmlns:inkscape="http://www.inkscape.org/namespaces/inkscape"
   xmlns:sodipodi="http://sodipodi.sourceforge.net/DTD/sodipodi-0.dtd"
   xmlns="http://www.w3.org/2000/svg"
   xmlns:svg="http://www.w3.org/2000/svg"
   xmlns:rdf="http://www.w3.org/1999/02/22-rdf-syntax-ns#"
   xmlns:cc="http://creativecommons.org/ns#"
   xmlns:dc="http://purl.org/dc/elements/1.1/"><defs
     id="defs2"><inkscape:path-effect
       effect="envelope"
       id="path-effect4658"
       is_visible="true"
       yy="true"
       xx="true"
       bendpath1="m -199.08406,108.42369 h 7.0057"
       bendpath2="m -192.07836,108.42369 v 6.75242"
       bendpath3="m -199.08406,115.17611 h 7.0057"
       bendpath4="m -199.08406,108.42369 v 6.75242" /><inkscape:path-effect
       effect="bend_path"
       id="path-effect4656"
       is_visible="true"
       bendpath="m -192.00142,114.60623 c 2.12577,-0.53066 4.48261,0.85111 7.0057,0"
       prop_scale="1"
       scale_y_rel="false"
       vertical="false"
       bendpath-nodetypes="cc" /><inkscape:path-effect
       effect="bounding_box"
       id="path-effect4654"
       is_visible="true"
       linkedpath=""
       visualbounds="false" /></defs><sodipodi:namedview
     id="base"
     pagecolor="#ffffff"
     bordercolor="#666666"
     borderopacity="1.0"
     inkscape:pageopacity="0.0"
     inkscape:pageshadow="2"
     inkscape:zoom="3.6203867"
     inkscape:cx="83.55461"
     inkscape:cy="88.388348"
     inkscape:document-units="px"
     inkscape:current-layer="g5175"
     showgrid="false"
     fit-margin-top="0"
     fit-margin-left="0"
     fit-margin-right="0"
     fit-margin-bottom="0"
     inkscape:window-width="1920"
     inkscape:window-height="1012"
     inkscape:window-x="0"
     inkscape:window-y="0"
     inkscape:window-maximized="1"
     showguides="false"
     inkscape:object-nodes="true"
     units="px"
     inkscape:snap-page="true"
     inkscape:showpageshadow="2"
     inkscape:pagecheckerboard="0"
     inkscape:deskcolor="#d1d1d1" /><metadata
     id="metadata5"><rdf:RDF><cc:Work
         rdf:about=""><dc:format>image/svg+xml</dc:format><dc:type
           rdf:resource="http://purl.org/dc/dcmitype/StillImage" /></cc:Work></rdf:RDF></metadata><g
     inkscape:label="Layer 1"
     inkscape:groupmode="layer"
     id="layer1"
     transform="translate(98.048812,-95.14345)"><g
       style="stroke-width:0.5"
       transform="matrix(2,0,0,2,-98.048812,95.143449)"
       id="g5175"><rect
         y="-1.110223e-16"
         x="0"
         height="26.458334"
         width="26.458334"
         id="rect5163"
         style="opacity:1;fill:#222222;fill-opacity:1;fill-rule:nonzero;stroke:none;stroke-width:0.25;stroke-linecap:butt;stroke-linejoin:round;stroke-miterlimit:4;stroke-dasharray:none;stroke-dashoffset:0;stroke-opacity:0.90944878;paint-order:normal"
         rx="1.984375"
         ry="1.984375" /><rect
         style="opacity:1;fill:#914e00;fill-opacity:1;fill-rule:nonzero;stroke:none;stroke-width:0.25;stroke-linecap:butt;stroke-linejoin:round;stroke-miterlimit:4;stroke-dasharray:none;stroke-dashoffset:0;stroke-opacity:0.90944878;paint-order:normal"
         id="rect5165"
         width="23.8125"
         height="23.8125"
         x="1.322917"
         y="1.322917"
         rx="1.3229166"
         ry="1.3229166" /><path
         style="opacity:1;fill:#222222;fill-opacity:1;fill-rule:nonzero;stroke:none;stroke-width:0.24999997;stroke-linecap:butt;stroke-linejoin:round;stroke-miterlimit:4;stroke-dasharray:none;stroke-dashoffset:0;stroke-opacity:0.90944878;paint-order:normal"
         d="m 0.72760492,18.520836 v 4.167188 c 0,1.539081 1.23904398,2.778124 2.77812498,2.778124 H 22.952604 c 1.539081,0 2.778125,-1.239043 2.778125,-2.778124 v -4.167188 z"
         id="rect5205-3-6"
         inkscape:connector-curvature="0" /><text
         xml:space="preserve"
         style="font-size:4.43837px;fill:#222222;fill-opacity:1;stroke-width:0.184937"
         x="1.2013574"
         y="23.707726"
         id="text2040"><tspan
           sodipodi:role="line"
           id="tspan2038"
           style="font-style:normal;font-variant:normal;font-weight:bold;font-stretch:normal;font-family:'Gothic A1';-inkscape-font-specification:'Gothic A1 Bold';fill:#ffffff;fill-opacity:1;stroke-width:0.184937"
           x="1.2013574"
           y="23.707726">DOGMATIC</tspan></text><path
         fill="currentColor"
         d="M 19.290882,3.9094305 V 17.043157 H 8.6828781 a 1.5154297,1.5154297 0 1 1 0,-3.030859 H 18.280601 V 1.8888601 H 8.1777336 c -1.1113164,0 -2.0205704,0.909254 -2.0205704,2.0205704 V 16.032868 c 0,1.111317 0.909254,2.020578 2.0205704,2.020578 H 20.301171 V 3.9094305 Z"
         id="path6258"
         style="stroke-width:0.505143;fill:#ffffff;fill-opacity:1" /><path
         fill="currentColor"
         d="m 8.682554,15.022587 a 0.50514321,0.50514321 0 0 0 0,1.010281 h 9.596715 v -1.010281 z"
         id="path6260"
         style="stroke-width:0.505143;fill:#ffffff;fill-opacity:1" /><path
         style="fill:#914e00;stroke-width:0.0050252;fill-opacity:1"
         d="m 12.272102,12.611266 c -0.02201,-0.0062 -0.06154,-0.03586 -0.105762,-0.0795 -0.03882,-0.03831 -0.07418,-0.06966 -0.07857,-0.06966 -0.0042,0 -0.02331,0.01624 -0.04203,0.03608 -0.04166,0.04417 -0.05693,0.04234 -0.189983,-0.02279 -0.10195,-0.0499 -0.109143,-0.05034 -0.241078,-0.01467 -0.09992,0.02701 -0.206468,0.02811 -0.262366,0.0027 -0.02294,-0.01042 -0.05547,-0.03832 -0.07538,-0.06464 -0.04707,-0.06222 -0.07097,-0.07112 -0.140558,-0.05235 -0.120321,0.03246 -0.27066,0.01261 -0.377147,-0.0498 -0.03827,-0.02244 -0.04565,-0.03148 -0.0431,-0.05279 0.0028,-0.02256 -0.0023,-0.0273 -0.04063,-0.03867 -0.05313,-0.01573 -0.08349,-0.04278 -0.107336,-0.09566 -0.01347,-0.02984 -0.02879,-0.04469 -0.06088,-0.05888 -0.05273,-0.02333 -0.09407,-0.07822 -0.130282,-0.172978 -0.04551,-0.11905 -0.08969,-0.149577 -0.237767,-0.164209 -0.09157,-0.009 -0.129549,-0.03509 -0.1456532,-0.09986 -0.018018,-0.07248 -0.042816,-0.09303 -0.1367414,-0.11321 -0.047771,-0.01027 -0.096986,-0.02846 -0.1214587,-0.04489 -0.1189046,-0.07986 -0.2763062,-0.399729 -0.3094816,-0.628937 -0.016207,-0.111805 -0.0163,-0.425606 -1.486e-4,-0.480788 0.00659,-0.0225 0.041887,-0.08808 0.078443,-0.145731 C 9.6541775,9.9636615 9.6587517,9.9279484 9.5518421,9.8281127 9.45735,9.739873 9.337382,9.6689877 9.21362,9.6282699 9.1548248,9.6089284 9.1402712,9.5991207 9.110848,9.5590326 9.039979,9.4624638 8.9627757,9.2347058 8.9057499,8.9539512 8.8631198,8.7441554 8.8605192,8.7000783 8.8798839,8.5203316 8.8955799,8.374746 8.8956728,8.3540988 8.8808126,8.2538488 8.8579187,8.0978584 8.8601477,8.0194766 8.8903324,7.9188213 8.9101615,7.8526587 8.9168485,7.803948 8.9207029,7.6982276 8.9305478,7.4269214 8.9349594,7.4092522 9.0786386,7.0700758 9.1254667,6.9595213 9.1831195,6.8102723 9.2067518,6.7384118 9.2695546,6.5474331 9.2991542,6.4897687 9.3602852,6.4392952 c 0.028374,-0.023428 0.073251,-0.063435 0.099721,-0.088902 0.063341,-0.060939 0.064586,-0.093586 0.0072,-0.1879194 -0.034271,-0.056342 -0.040262,-0.073896 -0.03664,-0.1078955 0.00664,-0.062671 0.033946,-0.1097321 0.114832,-0.1978139 C 9.6555057,5.7368323 9.662815,5.7191204 9.666414,5.5635674 9.6687359,5.4710935 9.6739834,5.4243197 9.6854071,5.4002876 9.7102979,5.3478911 9.8055841,5.26716 9.9259561,5.1965375 10.141953,5.0698151 10.15177,5.0607871 10.220754,4.9254816 c 0.07316,-0.1434958 0.111776,-0.1821025 0.262365,-0.2622898 0.159933,-0.085165 0.188543,-0.1159154 0.278359,-0.2991724 0.0923,-0.1883391 0.174923,-0.3164291 0.262849,-0.407502 0.08367,-0.086666 0.0951,-0.09352 0.342462,-0.205309 0.224648,-0.1015246 0.227211,-0.1021669 0.493194,-0.1233876 0.170781,-0.013625 0.241668,-0.024751 0.328252,-0.051519 0.08439,-0.026093 0.141218,-0.022327 0.306013,0.020261 0.147055,0.038005 0.286931,0.09365 0.331419,0.1318366 0.03892,0.033417 0.03413,0.041873 -0.03441,0.060847 -0.04936,0.013657 -0.101193,0.00279 -0.261391,-0.054821 -0.125489,-0.045129 -0.203593,-0.062171 -0.236731,-0.051652 -0.02429,0.00771 -0.05594,0.081824 -0.08225,0.1926096 -0.0307,0.1291729 -0.04738,0.1661993 -0.07328,0.1625024 -0.02034,-0.00288 -0.02155,-0.00979 -0.02633,-0.1487721 -0.0028,-0.080152 -0.0086,-0.1512598 -0.013,-0.1580174 -0.0042,-0.00676 -0.02549,-0.017535 -0.0469,-0.023953 -0.0358,-0.010732 -0.04444,-0.00901 -0.107621,0.021487 -0.06474,0.031257 -0.07673,0.033491 -0.209384,0.039026 -0.155284,0.00648 -0.155609,0.00659 -0.256691,0.085327 -0.03613,0.02816 -0.117562,0.081787 -0.180908,0.1191697 -0.142806,0.084274 -0.215292,0.1412951 -0.270376,0.2126963 -0.03761,0.048722 -0.04156,0.058672 -0.03311,0.083316 0.009,0.026344 0.01272,0.027877 0.06377,0.026089 0.02981,-0.00102 0.110634,-0.015742 0.179594,-0.032665 0.08155,-0.02001 0.150938,-0.030765 0.198495,-0.030765 h 0.07312 v 0.035177 c 0,0.040127 -0.02796,0.074434 -0.06281,0.07712 -0.01244,9.752e-4 -0.07463,0.00209 -0.138195,0.00251 l -0.115582,7.891e-4 -0.120604,0.07419 c -0.06634,0.040805 -0.177142,0.1075769 -0.246237,0.148383 -0.0691,0.040805 -0.130593,0.077522 -0.136663,0.081592 -0.0061,0.00409 -0.03125,0.034536 -0.05595,0.067701 -0.05858,0.078653 -0.459318,0.479785 -0.609666,0.6102661 l -0.1173348,0.1018326 -0.011377,0.061044 c -0.00627,0.033575 -0.014535,0.083119 -0.018389,0.1101003 -0.00645,0.045212 -0.01486,0.057 -0.1068911,0.1503993 -0.1379859,0.1400255 -0.178856,0.2297396 -0.1313731,0.288376 l 0.018389,0.022713 0.062013,-0.020944 c 0.060253,-0.020349 0.062292,-0.02041 0.072058,-0.00218 0.00553,0.010328 0.010077,0.045328 0.010077,0.077771 0,0.1135121 -0.05632,0.1865522 -0.2455921,0.3185156 -0.1216212,0.084793 -0.201137,0.170597 -0.2214305,0.2389408 -0.022337,0.075157 -0.020526,0.1452539 0.00418,0.1584047 0.010681,0.00572 0.021779,0.010402 0.024612,0.010402 0.00279,0 0.023776,-0.03572 0.046475,-0.079375 0.022708,-0.043656 0.050506,-0.087713 0.061767,-0.097904 0.020015,-0.018102 0.020944,-0.017953 0.04068,0.0064 0.029256,0.036138 0.020433,0.10399 -0.02308,0.1770709 -0.018807,0.031583 -0.1093987,0.1353023 -0.201332,0.2304896 -0.1818885,0.1883331 -0.2197262,0.2450683 -0.241487,0.362074 -0.014582,0.078325 -0.00515,0.1293638 0.028095,0.1523645 0.081304,0.056269 0.086551,0.064543 0.091692,0.1446522 0.00599,0.093079 -0.01486,0.181411 -0.086639,0.3670382 -0.044859,0.116004 -0.051839,0.1442328 -0.057253,0.2311601 -0.00325,0.054461 -0.012585,0.1223289 -0.020386,0.1508182 -0.015325,0.055827 -0.019272,0.154235 -0.00622,0.154235 0.014907,0 0.1556835,-0.090993 0.2061941,-0.1332803 0.062009,-0.051918 0.079883,-0.091454 0.107857,-0.2385856 C 9.3375205,8.1150441 9.3578835,8.065243 9.4298159,7.9728457 9.5214749,7.8551044 9.5431944,7.8023987 9.5429854,7.6982089 9.5428321,7.6276859 9.5358754,7.5899842 9.5030024,7.4821249 9.4669664,7.363949 9.4632514,7.3413894 9.4639484,7.2459397 c 4.644e-4,-0.08761 0.00543,-0.1191831 0.028374,-0.1859332 0.03585,-0.1043615 0.078369,-0.1780879 0.1411623,-0.2447655 0.061521,-0.065325 0.11427,-0.094162 0.1645856,-0.089976 0.034271,0.00283 0.036872,0.00534 0.035664,0.03403 -9.287e-4,0.018529 -0.020433,0.059711 -0.048922,0.1025825 -0.03376,0.050775 -0.04915,0.085117 -0.052851,0.1179619 -0.00488,0.043104 -0.00279,0.04904 0.032646,0.085136 l 0.037893,0.038804 -0.011377,0.076515 c -0.01955,0.131317 -0.015139,0.195361 0.018761,0.2751002 0.025587,0.060088 0.030138,0.083819 0.030138,0.1561795 0,0.1493302 0.024519,0.1689972 0.1147158,0.091953 0.032414,-0.027686 0.09635,-0.06443 0.1665829,-0.095724 0.188152,-0.083835 0.271472,-0.1530249 0.271472,-0.2254339 0,-0.095135 -0.08477,-0.1127533 -0.270748,-0.056272 -0.06463,0.019629 -0.09144,0.015631 -0.09083,-0.013551 1.25e-4,-0.00623 0.0411,-0.056559 0.09102,-0.1118367 0.09689,-0.1072698 0.114675,-0.1350917 0.15521,-0.2428405 0.01421,-0.037796 0.05707,-0.1184713 0.09522,-0.1792767 0.137749,-0.2195493 0.141891,-0.2410798 0.139927,-0.7273709 -0.0014,-0.3993075 0.0028,-0.4473764 0.05765,-0.6118711 0.06934,-0.2083479 0.177453,-0.3793429 0.344732,-0.5452139 0.09628,-0.095474 0.139268,-0.1293796 0.247074,-0.1949097 0.117674,-0.071526 0.134457,-0.085368 0.170585,-0.1407063 l 0.04008,-0.061376 h 0.107221 0.107221 l 0.06209,-0.04374 0.06209,-0.04374 0.132204,0.012664 0.132209,0.012664 0.211056,-0.039152 c 0.200956,-0.037276 0.220683,-0.039138 0.412068,-0.038883 0.175838,2.355e-4 0.207169,0.00274 0.250213,0.019973 0.06193,0.024803 0.09349,0.063204 0.0771,0.093829 -0.01393,0.026015 -0.06663,0.027789 -0.21173,0.00711 -0.105057,-0.014967 -0.14641,-0.011127 -0.260215,0.024171 -0.07392,0.022926 -0.07484,0.022959 -0.190958,0.00654 -0.06417,-0.00907 -0.158702,-0.01649 -0.210072,-0.016485 -0.08184,1.03e-5 -0.109185,0.00511 -0.221105,0.041209 -0.482808,0.1557401 -0.838458,0.4154698 -1.049477,0.7664349 -0.158126,0.2629916 -0.18389,0.57445 -0.05753,0.6955056 0.02535,0.024273 0.03989,0.028889 0.107309,0.033983 0.04291,0.00325 0.08411,0.00978 0.09158,0.014521 0.02401,0.01525 0.0417,0.074172 0.0417,0.1390178 -1e-5,0.085868 -0.03627,0.1590386 -0.135887,0.274197 -0.134475,0.1554568 -0.163996,0.216084 -0.105229,0.216084 0.02248,0 0.045,-0.013569 0.08794,-0.052966 0.07184,-0.065938 0.111317,-0.090454 0.199396,-0.1238168 0.05702,-0.021598 0.08118,-0.025457 0.135696,-0.021677 0.07676,0.00532 0.127733,0.029697 0.241492,0.1154807 0.122202,0.092148 0.158711,0.1104798 0.283857,0.1425276 0.143368,0.036714 0.178494,0.05676 0.208669,0.1190922 0.01867,0.038576 0.02364,0.068735 0.02703,0.164652 0.0047,0.1323228 -0.005,0.2307385 -0.04981,0.5059678 -0.03734,0.2292952 -0.03594,0.2940641 0.0084,0.3884582 0.06253,0.1331796 0.126832,0.1744872 0.265273,0.1704053 0.02406,-6.966e-4 0.05595,-0.014294 0.09548,-0.040647 0.09349,-0.062339 0.10501,-0.062343 0.161915,-6.04e-5 0.05417,0.059287 0.127152,0.1100112 0.15821,0.1099546 0.0333,-6.04e-5 0.08128,-0.035093 0.0989,-0.072227 0.01546,-0.032595 0.01509,-0.039245 -0.0071,-0.1243044 -0.01291,-0.049428 -0.03371,-0.1159576 -0.04625,-0.1478447 -0.01254,-0.031884 -0.01988,-0.060925 -0.01625,-0.06453 0.01054,-0.010555 0.05264,0.034712 0.1084,0.1166016 0.07251,0.1064806 0.09052,0.124218 0.206659,0.2035268 0.09787,0.066833 0.10606,0.075296 0.179329,0.1853211 0.07106,0.1067104 0.08327,0.119655 0.163996,0.1739383 0.04798,0.032256 0.09288,0.065463 0.0998,0.073793 0.0069,0.00833 0.01528,0.053004 0.01862,0.099277 0.0049,0.068536 0.01152,0.093137 0.03539,0.1327008 0.04031,0.066808 0.0437,0.093539 0.01918,0.1507611 -0.0261,0.060798 -0.0261,0.077728 -9e-6,0.1108786 0.01695,0.021538 0.02921,0.026484 0.06565,0.026484 0.06538,0 0.100408,0.01865 0.186843,0.099487 0.06983,0.065303 0.08315,0.084251 0.137039,0.1949691 0.03283,0.06745 0.08329,0.1656022 0.112129,0.2181157 l 0.05243,0.095479 -0.01212,0.076898 c -0.0079,0.050131 -0.0096,0.1141051 -0.0048,0.1837877 0.0065,0.094651 0.0053,0.1091484 -0.01059,0.1266227 -0.02573,0.02843 -0.04955,0.02446 -0.08882,-0.014809 -0.05485,-0.054849 -0.06563,-0.1481522 -0.03014,-0.2608707 0.0047,-0.015069 -0.0037,-0.011935 -0.04165,0.015074 -0.115853,0.082943 -0.17391,0.1680387 -0.16113,0.2361721 0.0037,0.018798 0.01978,0.065576 0.03608,0.1039497 0.03729,0.08764 0.03952,0.157702 0.0071,0.221918 -0.02591,0.05128 -0.06272,0.07605 -0.09935,0.06686 -0.02322,-0.0058 -0.026,-0.0131 -0.03734,-0.09814 -0.0067,-0.05051 -0.01848,-0.10676 -0.0261,-0.124993 -0.01235,-0.02959 -0.0196,-0.03407 -0.06751,-0.04168 l -0.05365,-0.0085 -0.05025,-0.1212822 c -0.03775,-0.091163 -0.0646,-0.13884 -0.108038,-0.1919832 -0.05328,-0.065187 -0.05779,-0.074635 -0.05779,-0.121135 0,-0.046489 -0.0023,-0.051404 -0.02995,-0.062842 -0.04374,-0.018111 -0.07752,-0.00515 -0.130849,0.050175 -0.02605,0.027032 -0.0582,0.051367 -0.07143,0.054083 -0.01323,0.00269 -0.100594,0.00749 -0.194139,0.010611 -0.163359,0.00545 -0.172995,0.00467 -0.243567,-0.01969 -0.08437,-0.029117 -0.09982,-0.02738 -0.193405,0.021738 -0.07735,0.040596 -0.09691,0.041525 -0.163555,0.00775 -0.05039,-0.025532 -0.05204,-0.025699 -0.0894,-0.00885 -0.03232,0.014582 -0.0473,0.015538 -0.09945,0.00635 -0.06808,-0.01199 -0.105702,-0.00348 -0.280982,0.063386 -0.06693,0.025541 -0.114154,0.035836 -0.20012,0.043624 -0.0911,0.00825 -0.125132,0.0161 -0.178833,0.041228 -0.0588,0.027519 -0.07672,0.031048 -0.158154,0.031183 -0.05284,8.36e-5 -0.102099,0.00542 -0.116007,0.012562 -0.01328,0.00683 -0.04049,0.039551 -0.0605,0.072717 -0.02981,0.049465 -0.04388,0.062921 -0.07828,0.074871 -0.03497,0.01214 -0.04607,0.01237 -0.06653,0.0014 -0.04837,-0.02589 -0.05782,-0.083268 -0.03204,-0.1944856 0.02141,-0.092257 0.0049,-0.1422346 -0.0576,-0.1745568 -0.04881,-0.025229 -0.08269,-0.00946 -0.17888,0.083263 l -0.08788,0.084716 -0.02614,-0.023033 c -0.01704,-0.015032 -0.03576,-0.052721 -0.05381,-0.1084629 -0.02605,-0.080418 -0.02944,-0.085596 -0.05781,-0.088274 -0.03715,-0.00348 -0.112923,0.034104 -0.137865,0.068409 -0.02939,0.040434 -0.03404,0.093773 -0.01012,0.1164526 0.0371,0.035209 0.0726,0.096976 0.0726,0.1264238 0,0.038661 -0.02647,0.088553 -0.04703,0.088553 -0.009,0 -0.03339,-0.01844 -0.05419,-0.04098 -0.03692,-0.039993 -0.03845,-0.040582 -0.06275,-0.02465 -0.03051,0.019983 -0.073692,0.081403 -0.082423,0.1171965 -0.00562,0.02298 -9.288e-4,0.03029 0.037057,0.0558 0.03455,0.02332 0.04282,0.03442 0.04012,0.05396 -0.0059,0.04265 -0.05013,0.07764 -0.1332309,0.105313 -0.08852,0.02948 -0.081833,0.01805 -0.099833,0.170547 -0.021083,0.178717 -0.042305,0.216544 -0.1429548,0.255203 l -0.067841,0.02605 1.533e-4,0.09053 c 1.532e-4,0.144054 0.046721,0.275801 0.1308066,0.370361 0.067646,0.07608 0.1098723,0.09784 0.2151009,0.110888 l 0.091167,0.0113 0.02271,0.07011 c 0.01249,0.03856 0.02893,0.07629 0.03645,0.08385 0.0076,0.0076 0.04616,0.01992 0.08576,0.02746 0.07714,0.0147 0.22847,0.0832 0.299994,0.135806 0.04119,0.0303 0.04249,0.03298 0.04272,0.08817 3.35e-4,0.0791 0.01491,0.134115 0.04119,0.155393 0.01946,0.01576 0.03432,0.01719 0.116077,0.01119 0.09194,-0.0067 0.09377,-0.0064 0.09377,0.01519 0,0.01214 -0.01296,0.03876 -0.02879,0.05917 -0.05637,0.07258 -0.05117,0.08299 0.05143,0.102961 0.06714,0.01307 0.06784,0.01354 0.06784,0.04588 0,0.03834 0.01635,0.08566 0.0333,0.09644 0.02642,0.01681 0.110262,0.0071 0.185631,-0.02159 0.155832,-0.05924 0.206422,-0.06223 0.26198,-0.01548 0.01607,0.01353 0.03924,0.04922 0.05144,0.07933 0.02563,0.06314 0.04939,0.07618 0.13878,0.07618 0.04518,0 0.06792,-0.0071 0.126646,-0.03938 0.03938,-0.02166 0.08842,-0.04249 0.108995,-0.04629 0.03265,-0.006 0.04356,-0.0024 0.08577,0.0286 0.07489,0.05498 0.09217,0.05589 0.162937,0.0086 0.06965,-0.04651 0.122378,-0.06645 0.154434,-0.05841 0.01231,0.0031 0.04412,0.03518 0.07062,0.07131 0.06576,0.08956 0.0909,0.08973 0.201852,0.0014 0.03074,-0.02447 0.04943,-0.0303 0.11623,-0.03617 0.04379,-0.0038 0.08655,-0.01276 0.09503,-0.0198 0.0196,-0.01625 0.02034,-0.08965 0.0014,-0.134985 l -0.01402,-0.03355 0.182357,-0.0053 c 0.100302,-0.0029 0.235492,-0.01299 0.300427,-0.02234 0.116248,-0.01675 0.11902,-0.01669 0.180346,0.004 0.122128,0.04124 0.163341,0.02781 0.173623,-0.05657 0.009,-0.07377 0.03757,-0.139611 0.06428,-0.148089 0.02712,-0.0086 0.05188,0.0055 0.120609,0.06856 0.100812,0.09253 0.156045,0.117103 0.21759,0.09679 0.04579,-0.01511 0.08721,-0.07086 0.115212,-0.155009 0.02986,-0.08973 0.0562,-0.111445 0.134247,-0.110675 0.07113,6.96e-4 0.145919,0.02931 0.215529,0.08244 0.02426,0.01852 0.05165,0.03223 0.06086,0.03047 0.02111,-0.004 0.03776,-0.06909 0.05206,-0.203497 0.01224,-0.115087 0.0332,-0.198357 0.05435,-0.215905 0.03584,-0.02974 0.123491,-0.001 0.155294,0.05085 0.0077,0.0125 0.01569,0.06078 0.01807,0.108613 0.008,0.161829 0.01471,0.175279 0.06014,0.121291 0.01395,-0.01658 0.03141,-0.03015 0.03878,-0.03015 0.02183,0 0.07474,-0.04999 0.09442,-0.0892 0.01005,-0.02003 0.02632,-0.0613 0.03615,-0.0917 0.01494,-0.04623 0.03468,-0.07254 0.120602,-0.160807 0.111524,-0.114554 0.11699,-0.124782 0.141176,-0.264182 0.01546,-0.0891 0.03683,-0.147885 0.05377,-0.147885 0.0047,0 0.02766,0.0067 0.05105,0.015 0.05539,0.01954 0.08253,0.0117 0.105192,-0.03037 0.01056,-0.01962 0.04297,-0.04989 0.07579,-0.0708 0.07048,-0.0449 0.09059,-0.07696 0.09059,-0.144432 0,-0.05852 -0.0195,-0.103031 -0.07761,-0.17714 -0.02137,-0.02725 -0.05825,-0.09716 -0.08194,-0.15535 -0.03498,-0.08588 -0.05717,-0.122768 -0.117932,-0.195984 -0.105036,-0.126561 -0.135618,-0.195814 -0.09965,-0.2256624 0.01197,-0.00993 0.02494,-0.00726 0.0673,0.013843 0.06641,0.033092 0.08873,0.033742 0.08873,0.0026 0,-0.044971 -0.06265,-0.076959 -0.113133,-0.057766 -0.02272,0.00864 -0.03156,0.00632 -0.05673,-0.014846 -0.01639,-0.013797 -0.03482,-0.04028 -0.04095,-0.058856 -0.0098,-0.029822 -0.0082,-0.038107 0.01397,-0.070784 0.03843,-0.056627 0.03897,-0.068087 0.0061,-0.1305498 -0.0167,-0.031754 -0.03037,-0.062968 -0.03037,-0.06936 0,-0.00639 0.01162,-0.033445 0.02581,-0.06012 0.03249,-0.061032 0.03182,-0.063053 -0.08003,-0.2437146 -0.04757,-0.076833 -0.08649,-0.1450042 -0.08649,-0.1514902 0,-0.00649 0.0153,-0.021245 0.03399,-0.032804 0.0187,-0.011554 0.03962,-0.034596 0.0465,-0.051205 0.01137,-0.027445 0.0099,-0.033988 -0.01636,-0.071855 -0.0951,-0.1372318 -0.419301,-0.3639315 -0.53989,-0.3775239 -0.06294,-0.0071 -0.08238,0.00806 -0.06168,0.048096 0.01411,0.027282 0.02051,0.079892 0.0097,0.079892 -0.0028,0 -0.06207,-0.035975 -0.131714,-0.079942 -0.150466,-0.095002 -0.131983,-0.098786 -0.25779,0.052783 -0.135043,0.1626984 -0.217378,0.2281677 -0.286933,0.2281677 -0.05989,0 -0.133453,-0.073745 -0.147329,-0.1477077 -0.0096,-0.051074 0.0033,-0.059829 0.164767,-0.1129675 0.159278,-0.052382 0.181797,-0.070635 0.211918,-0.1717738 0.01671,-0.056127 0.02945,-0.077805 0.06561,-0.111695 0.02468,-0.023126 0.04485,-0.046969 0.04483,-0.052979 -2e-5,-0.00601 -0.02171,-0.047024 -0.04821,-0.091141 -0.04243,-0.070637 -0.05292,-0.081538 -0.08791,-0.091311 -0.0705,-0.019694 -0.06202,-0.038501 0.08778,-0.1946065 0.133029,-0.1386254 0.134378,-0.1405047 0.189169,-0.2636361 0.03802,-0.085453 0.06879,-0.138748 0.09894,-0.1713934 l 0.04375,-0.047378 -0.01239,-0.1044939 -0.01239,-0.1044939 0.03729,-0.1118938 c 0.04379,-0.1314173 0.04346,-0.1353585 -0.023,-0.2778429 l -0.04687,-0.1005034 -0.0061,-0.1658321 c -0.0039,-0.1076131 -0.01185,-0.1852389 -0.0225,-0.2211095 -0.01821,-0.061349 -0.02182,-0.1659737 -0.0071,-0.2047685 0.01463,-0.038488 0.04651,-0.051574 0.07698,-0.031606 0.03088,0.020233 0.04099,0.045732 0.06514,0.1643367 0.01636,0.080315 0.02627,0.1041628 0.06898,0.1659347 0.03441,0.049773 0.05327,0.089247 0.06085,0.127315 0.01511,0.075937 0.0199,0.08574 0.08945,0.1829699 0.03366,0.047057 0.0612,0.090428 0.0612,0.096381 0,0.021752 -0.02035,0.022341 -0.0607,0.00176 -0.02353,-0.012 -0.05502,-0.019731 -0.07321,-0.017967 -0.02757,0.00269 -0.03234,0.00736 -0.03497,0.034397 -0.0017,0.017215 0.004,0.061594 0.01256,0.098615 0.0102,0.043972 0.01561,0.1165074 0.01561,0.2091996 0,0.1180213 0.0036,0.1524945 0.02131,0.204957 0.02565,0.075936 0.01995,0.1091033 -0.02276,0.1324918 -0.01699,0.0093 -0.04026,0.024171 -0.0517,0.033045 l -0.02081,0.016133 0.02595,0.044172 c 0.08078,0.1374798 0.174949,0.2040678 0.239636,0.1694487 0.02409,-0.012891 0.02526,-0.053693 0.0042,-0.1446958 -0.0084,-0.03624 -0.01258,-0.076659 -0.0093,-0.089817 0.0057,-0.022861 0.04079,-0.046546 0.06888,-0.046546 0.01329,0 0.06324,0.051542 0.145809,0.1504471 0.04094,0.04904 0.04544,0.051773 0.05766,0.035051 0.04413,-0.060351 0.02346,-0.146648 -0.05923,-0.2473568 -0.06801,-0.082827 -0.10251,-0.1496627 -0.09289,-0.1799649 0.01698,-0.053489 0.07799,-0.074349 0.133496,-0.045644 0.04369,0.022592 0.05778,0.045514 0.0922,0.149986 0.0251,0.076165 0.04979,0.1243606 0.108119,0.211059 0.0883,0.1312329 0.102662,0.1619312 0.137916,0.2947412 0.02985,0.1124269 0.05706,0.1511395 0.09888,0.1406436 0.03194,-0.00802 0.03995,-0.039695 0.02712,-0.1072928 -0.01575,-0.08307 -0.01189,-0.1310783 0.01492,-0.1855863 0.02885,-0.058646 0.03229,-0.1209009 0.0086,-0.1560577 -0.0092,-0.013667 -0.04498,-0.054518 -0.0795,-0.090779 -0.04396,-0.046169 -0.06625,-0.078855 -0.07439,-0.1090565 -0.0064,-0.023721 -0.0088,-0.045927 -0.0054,-0.049353 0.0034,-0.00344 0.03651,-0.00775 0.07353,-0.00961 0.06522,-0.0033 0.06988,-0.00186 0.1507,0.046261 0.04587,0.027306 0.104664,0.057565 0.130655,0.067245 0.09517,0.035446 0.142736,0.091536 0.142736,0.1683337 0,0.025792 -0.0092,0.042454 -0.0402,0.072715 -0.02211,0.021589 -0.0402,0.047014 -0.0402,0.056496 0,0.00948 0.02004,0.040717 0.04453,0.069407 0.04619,0.054108 0.05508,0.082195 0.05445,0.1720311 -4.18e-4,0.060384 0.01064,0.080479 0.08771,0.1593604 0.05593,0.057247 0.06587,0.073408 0.08031,0.1306557 0.01672,0.066259 0.03363,0.093945 0.0689,0.1128235 0.01571,0.00841 0.02312,0.00604 0.0378,-0.012092 0.02939,-0.036296 0.02176,-0.076971 -0.03849,-0.2052422 -0.05626,-0.1197771 -0.07375,-0.1886275 -0.05499,-0.2164755 0.0084,-0.012413 0.02685,-0.011043 0.131159,0.00971 l 0.121425,0.024157 0.02254,-0.022532 c 0.02396,-0.023948 0.02567,-0.045421 0.01856,-0.2342933 -0.0032,-0.083921 0.01338,-0.133128 0.04849,-0.1442699 0.01172,-0.00371 0.03983,0.00404 0.06993,0.01929 0.03257,0.016504 0.05265,0.021766 0.05689,0.014907 0.0101,-0.016342 -0.0049,-0.081002 -0.02725,-0.1173406 -0.0187,-0.030422 -0.02385,-0.032665 -0.07505,-0.032665 -0.05323,0 -0.05543,-0.00111 -0.06953,-0.034852 -0.01806,-0.043224 -0.01854,-0.076472 -0.0014,-0.099857 0.01194,-0.016337 0.01623,-0.016648 0.04774,-0.00348 0.01904,0.00796 0.04082,0.021956 0.04841,0.031104 0.01853,0.022351 0.05334,0.020981 0.08423,-0.0033 0.03524,-0.027719 0.04006,-0.05778 0.0226,-0.1408075 -0.0083,-0.039449 -0.01509,-0.1001951 -0.01509,-0.134993 0,-0.070951 -0.02372,-0.1173842 -0.08688,-0.1700546 -0.01886,-0.015733 -0.06089,-0.06322 -0.09339,-0.1055295 -0.127523,-0.165996 -0.265753,-0.2819782 -0.597177,-0.501064 -0.265552,-0.1755422 -0.380903,-0.260541 -0.48311,-0.3559915 -0.100791,-0.094127 -0.10236,-0.126721 -0.0071,-0.1481169 0.02371,-0.00533 0.04539,-0.011972 0.04818,-0.014767 0.01501,-0.015013 -0.09069,-0.315838 -0.158261,-0.4503796 -0.01566,-0.031179 -0.06419,-0.1012781 -0.107844,-0.1557819 -0.06563,-0.08193 -0.09112,-0.1252136 -0.147144,-0.2498537 -0.03727,-0.082916 -0.077,-0.1658883 -0.08828,-0.1843831 -0.01128,-0.018496 -0.06398,-0.065421 -0.117094,-0.1042794 -0.05312,-0.038859 -0.104652,-0.08026 -0.114523,-0.092003 -0.02827,-0.03363 -0.06519,-0.109473 -0.07265,-0.149217 -0.0047,-0.025128 -0.02431,-0.054469 -0.06364,-0.095315 -0.03125,-0.032452 -0.07632,-0.082602 -0.100146,-0.1114375 -0.02382,-0.028833 -0.05548,-0.058552 -0.07035,-0.066038 -0.01487,-0.00749 -0.08846,-0.027979 -0.163546,-0.045537 l -0.136511,-0.031926 -0.04774,0.020465 c -0.05582,0.02393 -0.09709,0.025118 -0.186783,0.00539 -0.07791,-0.017136 -0.200965,-0.01916 -0.254866,-0.00418 -0.02131,0.00592 -0.06409,0.031383 -0.09503,0.056581 -0.07731,0.062965 -0.07908,0.037276 -0.0028,-0.04205 0.07427,-0.077346 0.08037,-0.1101269 0.0293,-0.1578048 -0.05961,-0.055682 -0.146637,-0.088063 -0.346678,-0.1289886 -0.0618,-0.01264 -0.117777,-0.02634 -0.124408,-0.030435 -0.02131,-0.013179 -4.64e-4,-0.028155 0.05535,-0.039746 0.08299,-0.017228 0.189175,0.00167 0.373989,0.066538 l 0.159185,0.055878 0.100505,-0.00624 0.100506,-0.00624 0.07035,0.056627 c 0.03868,0.031146 0.08097,0.060713 0.09395,0.065708 0.01296,0.005 0.110214,0.00789 0.216082,0.00645 0.191767,-0.00265 0.192686,-0.00255 0.245026,0.024473 0.128097,0.066099 0.268694,0.1824633 0.322776,0.2671426 0.01667,0.026103 0.0492,0.1017345 0.07229,0.1680675 l 0.04198,0.1206051 0.10488,0.095285 0.104879,0.095285 0.05075,0.1594004 c 0.04871,0.152991 0.05398,0.1638436 0.131059,0.2699136 l 0.08031,0.1105137 0.06949,0.2211527 c 0.03822,0.1216347 0.0773,0.2377019 0.08684,0.2579279 0.0095,0.020228 0.074,0.095584 0.143256,0.167462 0.06925,0.071878 0.150265,0.1609756 0.180028,0.1979946 0.03852,0.047912 0.09171,0.094242 0.184572,0.1607754 0.498588,0.3572119 0.585745,0.4421903 0.70101,0.6834864 0.162093,0.3393273 0.264196,0.8865228 0.232737,1.2472937 -0.01921,0.2202695 -0.05108,0.3354743 -0.189599,0.6853458 -0.04158,0.105027 -0.09739,0.2574831 -0.124025,0.3387914 -0.02663,0.081308 -0.06038,0.1682385 -0.07499,0.1931785 -0.043,0.073375 -0.12151,0.1358172 -0.276901,0.2202314 -0.126999,0.06899 -0.157022,0.090494 -0.240684,0.17239 -0.08588,0.084068 -0.101698,0.095205 -0.155782,0.1096982 -0.03311,0.00887 -0.07829,0.021793 -0.100397,0.028713 l -0.0402,0.01258 9.75e-4,0.07026 c 7.43e-4,0.05192 0.013,0.110925 0.04699,0.226042 0.05783,0.195843 0.07911,0.302305 0.07882,0.394295 -1.97e-4,0.06227 -0.0051,0.08211 -0.03551,0.143028 -0.03175,0.06366 -0.166427,0.246983 -0.235354,0.320374 -0.04272,0.04549 -0.07865,0.05967 -0.138583,0.0547 -0.06345,-0.0053 -0.0641,-0.0043 -0.0641,0.09834 0,0.06706 -0.0027,0.07741 -0.02764,0.104923 -0.0152,0.01679 -0.05663,0.04739 -0.09206,0.068 -0.03543,0.02061 -0.07307,0.04916 -0.08364,0.06345 -0.01057,0.01429 -0.02978,0.07582 -0.04268,0.136739 -0.03203,0.151251 -0.07325,0.224678 -0.146797,0.261517 -0.0906,0.04538 -0.241528,0.10667 -0.273389,0.111017 -0.03533,0.0048 -0.0389,0.0029 -0.04998,-0.02642 -0.0066,-0.01739 -0.01493,-0.03044 -0.0186,-0.02901 -0.0037,0.0014 -0.02197,0.02295 -0.04068,0.04783 -0.04575,0.06086 -0.09677,0.08512 -0.179335,0.08529 -0.05109,1.06e-4 -0.07353,-0.005 -0.102992,-0.02328 -0.04997,-0.03107 -0.07545,-0.02449 -0.174303,0.04506 -0.04372,0.03076 -0.09482,0.06254 -0.113554,0.07063 -0.06672,0.02879 -0.236534,0.01037 -0.280841,-0.03046 -0.0352,-0.03244 -0.103891,-0.02831 -0.173093,0.01039 -0.191153,0.106909 -0.161525,0.09703 -0.26771,0.08924 l -0.09538,-0.007 -0.120749,0.05756 c -0.106482,0.05076 -0.127857,0.05749 -0.180894,0.05699 -0.03608,-3.42e-4 -0.101816,0.0107 -0.164396,0.02764 -0.06899,0.01866 -0.117576,0.02641 -0.143646,0.02292 -0.05523,-0.0074 -0.07295,0.0063 -0.101899,0.07916 -0.02211,0.0556 -0.03097,0.06647 -0.07015,0.08623 -0.04846,0.02444 -0.06685,0.0261 -0.12099,0.01096 z M 9.8484185,9.1106294 c 0.1227264,-0.065788 0.1665035,-0.09795 0.2042855,-0.1500909 0.02707,-0.037327 0.02842,-0.044437 0.02842,-0.1490698 V 8.7015963 l 0.08378,-0.087115 c 0.09386,-0.0976 0.110625,-0.1314906 0.15488,-0.3132504 0.02094,-0.08595 0.02605,-0.1334991 0.02768,-0.2562859 9.29e-4,-0.082916 0.0079,-0.1783099 0.01523,-0.2119868 0.01556,-0.071809 0.0098,-0.094551 -0.02419,-0.094551 -0.0182,0 -0.04532,0.022699 -0.103334,0.086447 -0.0824,0.090575 -0.138682,0.1311879 -0.18917,0.1365115 l -0.03014,0.00316 -3.2e-5,-0.075378 c -2.8e-5,-0.075314 -6.1e-5,-0.075381 -0.028559,-0.078643 -0.038033,-0.00437 -0.1294413,0.041288 -0.1635733,0.081669 -0.014953,0.017684 -0.035757,0.051489 -0.046252,0.075125 l -0.019086,0.042974 0.028234,0.06758 c 0.026238,0.062786 0.028188,0.07685 0.027445,0.1982356 -9.287e-4,0.1243396 -0.00325,0.1403724 -0.053766,0.3316645 -0.049252,0.186855 -0.052596,0.2068378 -0.047455,0.2837972 0.00372,0.05278 4.644e-4,0.1068599 -0.00836,0.1491998 -0.01356,0.064899 -0.012074,0.086747 0.00762,0.1122388 0.015325,0.019787 0.027491,0.016007 0.1363838,-0.042375 z M 13.151142,8.6268107 c 0.02122,-0.021222 0.01379,-0.044269 -0.04008,-0.1245714 -0.08838,-0.131733 -0.297194,-0.3115634 -0.361785,-0.3115634 -0.02656,0 -0.0856,0.04446 -0.114266,0.086051 -0.02118,0.0307 -0.02684,0.068519 -0.01491,0.099541 0.01031,0.02692 0.119304,0.095089 0.293266,0.1834451 0.16662,0.08463 0.208437,0.096431 0.237772,0.067098 z m -1.92064,-0.027751 c 0.02327,-0.013639 0.04859,-0.036519 0.05626,-0.050841 0.01244,-0.023279 0.01156,-0.030844 -0.0087,-0.07135 -0.03822,-0.076494 -0.06499,-0.100863 -0.131317,-0.1194749 -0.03432,-0.00963 -0.06059,-0.022671 -0.06059,-0.030069 0,-0.00719 0.01026,-0.028439 0.02276,-0.04722 0.01737,-0.026038 0.05259,-0.048912 0.148244,-0.09628 0.09754,-0.048301 0.135158,-0.072906 0.16902,-0.1105535 0.112348,-0.1249155 0.204708,-0.3005692 0.206552,-0.3928369 l 9.29e-4,-0.057521 -0.04263,-0.013541 c -0.04337,-0.01376 -0.09056,-0.050852 -0.11049,-0.086808 -0.01087,-0.019634 -0.01282,-0.019662 -0.170145,-0.00232 -0.225953,0.024872 -0.226129,0.024858 -0.273538,-0.023029 -0.05722,-0.057795 -0.111735,-0.052267 -0.111735,0.011331 0,0.054959 0.05579,0.080181 0.249883,0.1129772 0.09325,0.015756 0.127445,0.025411 0.129284,0.0365 0.0014,0.00832 -0.02285,0.034211 -0.05405,0.05779 -0.063,0.047593 -0.09886,0.053575 -0.16212,0.027041 -0.02057,-0.00862 -0.06984,-0.021909 -0.109538,-0.029535 -0.0397,-0.00763 -0.08583,-0.020925 -0.102516,-0.029553 -0.0443,-0.022917 -0.114294,-0.020544 -0.137095,0.00465 -0.01788,0.019755 -0.01783,0.021143 0.0019,0.04774 0.01407,0.01897 0.04625,0.036681 0.104685,0.057595 0.06669,0.023874 0.08711,0.035938 0.09749,0.057598 0.01723,0.035892 0.0074,0.054227 -0.07454,0.1398704 -0.0352,0.036774 -0.064,0.074273 -0.064,0.083328 0,0.00906 0.01421,0.043791 0.03162,0.077191 0.02675,0.051353 0.03176,0.072368 0.03265,0.1361438 9.29e-4,0.06915 0.0032,0.077389 0.02865,0.099156 0.01625,0.013987 0.05281,0.028699 0.08896,0.035808 0.03743,0.00737 0.07315,0.021993 0.09159,0.037513 0.02796,0.023507 0.02986,0.029307 0.02531,0.076382 -0.0028,0.028016 -9.28e-4,0.061693 0.0042,0.074833 0.0079,0.020739 0.01379,0.023126 0.04477,0.018097 0.01964,-0.0032 0.05475,-0.016954 0.07802,-0.030593 z m 3.549184,-0.079628 c 0.03229,-0.016509 0.06038,-0.020721 0.142719,-0.021385 0.06975,-5.573e-4 0.106692,-0.00501 0.115579,-0.013894 0.0079,-0.00791 0.01306,-0.037657 0.01306,-0.075378 0,-0.070123 -0.02437,-0.1163379 -0.0752,-0.1426265 -0.02672,-0.01382 -0.03234,-0.012627 -0.09542,0.020252 -0.09521,0.049627 -0.118042,0.046474 -0.22621,-0.031239 -0.02623,-0.018845 -0.06639,-0.040861 -0.08923,-0.04892 l -0.04154,-0.014656 -0.0151,0.0292 c -0.02085,0.040308 -0.01894,0.1139301 0.0041,0.1591389 0.01762,0.034536 0.07905,0.1003108 0.14158,0.1515811 0.02897,0.023758 0.06172,0.020609 0.125631,-0.012069 z m 0.453781,-0.4144988 c 0.01344,-0.03501 -0.0813,-0.1644603 -0.103849,-0.1419081 -0.01062,0.010625 0.01449,0.095522 0.03804,0.1285994 0.02214,0.03109 0.05633,0.038005 0.0658,0.013309 z m -0.676035,-0.058994 c 0.02973,-0.062647 0.01415,-0.1554499 -0.03491,-0.2079699 -0.03463,-0.037067 -0.0549,-0.036946 -0.07424,4.407e-4 -0.01785,0.034517 -0.01967,0.078237 -0.0049,0.1171408 0.01261,0.033175 0.07847,0.1245686 0.08976,0.1245686 0.0044,0 0.01535,-0.01538 0.02427,-0.034183 z M 11.541883,7.3224052 c 0.06064,-0.018399 0.08699,-0.041557 0.08699,-0.07647 0,-0.031369 -0.02317,-0.055407 -0.06866,-0.071269 -0.02749,-0.00959 -0.04379,-0.0071 -0.111985,0.01714 l -0.07981,0.028355 -0.06702,-0.021793 -0.06703,-0.021793 -0.05965,0.030115 c -0.05268,0.026595 -0.05929,0.033231 -0.05652,0.056802 0.0037,0.031476 0.04546,0.059077 0.110211,0.072864 0.05982,0.012733 0.254011,0.00409 0.31348,-0.01395 z M 11.069334,6.9701969 c 0.106831,-0.020437 0.179497,-0.053124 0.17562,-0.078987 -0.0046,-0.030863 -0.05146,-0.059636 -0.105531,-0.064831 -0.06941,-0.00667 -0.177834,0.044283 -0.201977,0.094909 -0.01597,0.033468 -0.01583,0.035748 0.0028,0.049215 0.0241,0.017609 0.0358,0.017581 0.129306,-3.042e-4 z m 0.511868,5.1699731 c -0.0124,-0.005 -0.0319,-0.02388 -0.04333,-0.04204 -0.01765,-0.02801 -0.0202,-0.04519 -0.01686,-0.113416 0.0052,-0.107418 0.0183,-0.132751 0.215547,-0.417755 0.032,-0.04626 0.0437,-0.07801 0.06758,-0.18342 0.0234,-0.103301 0.03218,-0.127481 0.04634,-0.127481 0.02345,0 0.03046,0.02116 0.03692,0.1116 0.0081,0.112834 -0.01505,0.200134 -0.09791,0.369793 -0.0385,0.07881 -0.08299,0.187861 -0.0989,0.242333 -0.02879,0.09855 -0.05789,0.161724 -0.07688,0.16677 -0.0055,0.0014 -0.02011,-0.0014 -0.03251,-0.0064 z m -0.5252,-0.024 c -0.06759,-0.01931 -0.100506,-0.03428 -0.100506,-0.04571 0,-0.0056 0.01792,-0.02321 0.03984,-0.03908 0.03752,-0.02717 0.04282,-0.02826 0.09093,-0.01874 0.04147,0.0082 0.05402,0.01572 0.0665,0.03986 0.01449,0.028 0.01407,0.03116 -0.0072,0.05385 -0.02568,0.02731 -0.02754,0.02752 -0.08949,0.0098 z m -0.125629,-0.47608 c -0.01105,-0.0023 -0.03079,-0.01384 -0.04384,-0.02573 -0.02206,-0.02009 -0.02336,-0.02708 -0.01853,-0.09937 0.0064,-0.09519 0.03492,-0.159389 0.08816,-0.197939 0.03576,-0.0259 0.04189,-0.02711 0.09666,-0.01892 0.03218,0.0048 0.103478,0.0075 0.158484,0.006 l 0.100009,-0.0028 0.01361,0.04523 c 0.02656,0.08826 -0.01393,0.22442 -0.08217,0.27647 -0.04683,0.03572 -0.0684,0.03228 -0.09506,-0.01516 -0.01245,-0.02211 -0.0294,-0.0402 -0.03771,-0.0402 -0.0083,0 -0.03543,0.01395 -0.06021,0.03101 -0.0497,0.0342 -0.0887,0.04774 -0.119355,0.04146 z m 2.304701,-0.09301 c -0.02317,-0.01352 -0.08384,-0.115895 -0.09895,-0.166993 -0.01175,-0.03969 -0.0105,-0.04555 0.02415,-0.115669 0.04739,-0.09592 0.04761,-0.141253 0.0014,-0.273287 -0.04449,-0.126784 -0.05202,-0.181734 -0.03167,-0.230458 0.01328,-0.03174 0.02025,-0.03728 0.04701,-0.03728 0.04379,0 0.08503,0.04417 0.104202,0.111581 0.01277,0.04487 0.01486,0.108967 0.01207,0.37084 -0.0019,0.174123 -0.0067,0.324503 -0.01077,0.334176 -0.0083,0.01967 -0.0222,0.02176 -0.04733,0.0071 z m -0.526965,-0.08026 c -0.03144,-0.01199 -0.05904,-0.0632 -0.09985,-0.185145 -0.02731,-0.08158 -0.03785,-0.132363 -0.04203,-0.202671 -0.0064,-0.108433 0.0028,-0.121285 0.06106,-0.08524 0.06561,0.04055 0.117544,0.145529 0.137958,0.278882 0.02015,0.131663 -0.0042,0.214383 -0.05715,0.194175 z m -2.187031,-0.121136 c -0.165431,-0.02425 -0.174788,-0.08749 -0.06307,-0.426312 0.101309,-0.307264 0.198313,-0.486472 0.254907,-0.470928 0.02136,0.0059 0.02327,0.0109 0.0189,0.04969 -0.0033,0.02702 -0.02322,0.0744 -0.05391,0.126672 l -0.04904,0.08351 -0.005,0.200634 c -0.0055,0.220033 -0.0032,0.232334 0.05205,0.275928 0.01695,0.01336 0.03738,0.04007 0.04542,0.05936 0.01342,0.03217 0.01305,0.03722 -0.0047,0.06114 -0.03752,0.05055 -0.07416,0.0581 -0.195541,0.04031 z m 4.364143,-0.141115 c -0.09102,-0.03629 -0.152176,-0.18696 -0.180414,-0.444451 l -0.01085,-0.09895 0.03618,-0.04929 c 0.04085,-0.05564 0.06888,-0.063 0.101575,-0.02668 0.03197,0.03552 0.03597,0.05409 0.04272,0.198496 0.0063,0.135022 0.0066,0.136178 0.05379,0.238311 0.05114,0.110614 0.05602,0.136943 0.03181,0.17152 -0.01686,0.02407 -0.03531,0.02679 -0.0748,0.01105 z m -0.98138,-0.221613 c -0.01676,-0.0081 -0.02633,-0.03078 -0.04305,-0.102337 -0.03381,-0.144331 -0.05232,-0.263722 -0.04899,-0.315599 0.0028,-0.04494 0.0048,-0.04784 0.03357,-0.05065 0.04733,-0.0046 0.11114,0.04719 0.143746,0.116753 0.0231,0.04928 0.02676,0.07016 0.02676,0.152572 0,0.09997 -0.01158,0.137451 -0.0582,0.188446 -0.02308,0.02527 -0.02368,0.02539 -0.05381,0.01082 z M 10.1051,10.548171 c -0.0372,-0.01618 -0.04917,-0.05717 -0.02847,-0.09724 0.01579,-0.03054 0.139453,-0.14711 0.172067,-0.162199 0.01203,-0.0056 0.03353,-0.0072 0.04774,-0.0036 0.02438,0.0061 0.02587,0.01012 0.02587,0.07048 0,0.148288 -0.105038,0.241414 -0.217219,0.192585 z M 14.192896,9.5181621 C 14.16866,9.5020806 14.123872,9.4647899 14.093369,9.4352888 13.898882,9.2471957 13.837918,9.0623942 13.93991,8.970095 c 0.0195,-0.017633 0.02689,-0.018431 0.07585,-0.00816 0.09691,0.020326 0.278137,0.1106864 0.351482,0.1752468 0.03907,0.034387 0.04597,0.047236 0.06207,0.1155518 0.01713,0.072689 0.02073,0.078738 0.06621,0.1114113 0.04711,0.033844 0.06596,0.06777 0.0544,0.09789 -0.0063,0.016342 -0.02443,0.019318 -0.04358,0.00715 -0.0066,-0.00423 -0.02541,-0.039189 -0.04178,-0.077737 -0.02825,-0.066548 -0.03196,-0.070685 -0.0734,-0.081845 -0.05325,-0.01434 -0.148836,-0.016458 -0.168935,-0.00376 -0.01231,0.00778 -0.0078,0.02262 0.02764,0.090248 0.02634,0.050315 0.04237,0.094259 0.04237,0.1161596 0,0.03174 -0.0027,0.035223 -0.02764,0.035186 -0.0152,-2e-5 -0.04747,-0.013198 -0.0717,-0.029279 z m -1.317768,-1.911454 c -0.01937,-0.011879 -0.06231,-0.043081 -0.09548,-0.069338 -0.03316,-0.026261 -0.08799,-0.065262 -0.121835,-0.086673 -0.03385,-0.021413 -0.116652,-0.092119 -0.184019,-0.1571272 -0.098,-0.094566 -0.127561,-0.1297293 -0.147855,-0.1758827 -0.03427,-0.077892 -0.0542,-0.096948 -0.157136,-0.1501201 -0.06447,-0.033301 -0.09821,-0.058111 -0.125327,-0.092147 -0.02039,-0.02562 -0.05456,-0.066089 -0.0759,-0.089935 -0.03552,-0.039718 -0.03761,-0.045138 -0.0247,-0.06457 0.01825,-0.027491 0.109909,-0.074365 0.17143,-0.087673 0.06897,-0.014921 0.147984,-0.012905 0.230565,0.00587 0.0853,0.019402 0.147506,0.014456 0.26843,-0.021334 0.14068,-0.041632 0.224338,-0.032274 0.437539,0.048932 0.142881,0.054426 0.143935,0.089712 0.0028,0.091966 -0.06686,0.00107 -0.09998,0.00768 -0.170492,0.034025 -0.102229,0.038195 -0.119155,0.060685 -0.07324,0.097297 0.05699,0.045444 0.275814,0.094749 0.433596,0.097698 0.118348,0.00223 0.137958,-0.00776 0.151867,-0.077192 0.0073,-0.036551 0.01124,-0.04106 0.03302,-0.038019 0.03455,0.00483 0.185088,0.067676 0.248383,0.103704 0.073,0.041548 0.0826,0.062432 0.04621,0.1004334 -0.0281,0.02934 -0.02823,0.029994 -0.01096,0.060094 0.02503,0.043582 0.0221,0.059998 -0.01937,0.1084184 -0.03413,0.039872 -0.03961,0.042588 -0.07434,0.037034 -0.02062,-0.00329 -0.06797,-0.019661 -0.10521,-0.036369 -0.115867,-0.051984 -0.289439,-0.1183631 -0.32866,-0.1256868 -0.02921,-0.00545 -0.05842,3.952e-4 -0.132126,0.026442 l -0.09464,0.033445 -0.06657,-0.027338 c -0.08338,-0.034239 -0.116397,-0.034517 -0.155851,-0.0013 -0.03608,0.030352 -0.03868,0.051847 -0.01068,0.087477 0.02619,0.033301 0.06225,0.044028 0.188729,0.056155 0.09997,0.00958 0.160843,0.030278 0.170014,0.057781 0.0019,0.00614 -0.0183,0.02529 -0.04518,0.042556 -0.06804,0.043661 -0.07913,0.067446 -0.06295,0.1349234 0.0071,0.029363 0.01114,0.062208 0.0091,0.072986 -0.0055,0.028931 -0.06455,0.030816 -0.109082,0.00348 z M 10.204751,6.5775704 c -0.01662,-0.011651 -0.02313,-0.029952 -0.02851,-0.080403 -0.005,-0.046848 -0.0111,-0.065318 -0.02145,-0.065318 -0.0079,0 -0.0667,0.013569 -0.130569,0.030152 C 9.8601769,6.5045944 9.8561507,6.5034144 9.9150806,6.4301174 10.020643,6.298812 10.032903,6.280175 10.037812,6.2435605 c 0.0037,-0.027501 -9.29e-4,-0.050235 -0.01676,-0.080406 -0.030788,-0.059106 -0.021222,-0.082092 0.105725,-0.2539287 0.03474,-0.046986 0.09318,-0.1385701 0.129924,-0.2035211 0.03673,-0.064951 0.0722,-0.1180232 0.07879,-0.1179386 0.04722,6.037e-4 0.04731,0.059685 2.37e-4,0.1707033 -0.04017,0.094777 -0.03757,0.1794078 0.01026,0.3328966 0.07523,0.2414517 0.06573,0.3568641 -0.03817,0.4636001 -0.03943,0.040522 -0.06839,0.046872 -0.103037,0.022601 z m 3.689784,-0.017577 c -0.03859,-0.04563 -0.08641,-0.1514107 -0.09237,-0.2043301 -0.0059,-0.051984 0.0032,-0.055404 0.04745,-0.018097 0.03729,0.031387 0.05205,0.058239 0.08071,0.1469416 0.01681,0.052061 0.01913,0.071292 0.0105,0.087443 -0.0061,0.011387 -0.01277,0.020702 -0.01486,0.020702 -0.0019,0 -0.01621,-0.014698 -0.03139,-0.032664 z M 14.645976,5.7601377 C 14.550164,5.7259082 14.516845,5.6803154 14.464801,5.5122362 14.426142,5.3873769 14.400057,5.3546126 14.272645,5.2708681 14.198157,5.2219094 14.153798,5.1825894 14.083053,5.1028135 13.929986,4.9302071 13.809962,4.7623704 13.793937,4.6985153 l -0.0071,-0.028434 0.04746,0.00535 c 0.109816,0.01238 0.276148,0.1277422 0.412503,0.2861037 0.05388,0.062581 0.07759,0.1003525 0.100124,0.1594951 l 0.02952,0.077495 0.08606,0.05517 c 0.04733,0.030343 0.08707,0.055956 0.0883,0.056918 0.0013,9.752e-4 0.0093,0.035372 0.01796,0.076463 0.01824,0.086693 0.03552,0.108547 0.160708,0.2031203 0.110707,0.083638 0.145732,0.1182345 0.145732,0.1439495 0,0.025755 -0.01733,0.031973 -0.110555,0.039654 -0.04929,0.00404 -0.07842,6.965e-4 -0.118635,-0.013662 z M 13.528409,4.5831261 c -0.1397,-0.020948 -0.1809,-0.033779 -0.210852,-0.065663 -0.03195,-0.03402 -0.02076,-0.055497 0.02888,-0.055497 0.130026,0 0.286406,0.042607 0.335097,0.091297 0.05497,0.054971 0.03729,0.058418 -0.153144,0.029864 z"
         id="path7353" /></g></g></svg>
