<?xml version="1.0" encoding="UTF-8" standalone="no"?>
<!-- Created with Inkscape (http://www.inkscape.org/) -->

<svg
   width="200"
   height="200"
   viewBox="0 0 52.916668 52.916666"
   version="1.1"
   id="svg8"
   inkscape:version="1.2.2 (b0a8486541, 2022-12-01)"
   sodipodi:docname="international.svg"
   xml:space="preserve"
   xmlns:inkscape="http://www.inkscape.org/namespaces/inkscape"
   xmlns:sodipodi="http://sodipodi.sourceforge.net/DTD/sodipodi-0.dtd"
   xmlns="http://www.w3.org/2000/svg"
   xmlns:svg="http://www.w3.org/2000/svg"
   xmlns:rdf="http://www.w3.org/1999/02/22-rdf-syntax-ns#"
   xmlns:cc="http://creativecommons.org/ns#"
   xmlns:dc="http://purl.org/dc/elements/1.1/"><defs
     id="defs2"><inkscape:path-effect
       effect="envelope"
       id="path-effect4658"
       is_visible="true"
       yy="true"
       xx="true"
       bendpath1="m -199.08406,108.42369 h 7.0057"
       bendpath2="m -192.07836,108.42369 v 6.75242"
       bendpath3="m -199.08406,115.17611 h 7.0057"
       bendpath4="m -199.08406,108.42369 v 6.75242" /><inkscape:path-effect
       effect="bend_path"
       id="path-effect4656"
       is_visible="true"
       bendpath="m -192.00142,114.60623 c 2.12577,-0.53066 4.48261,0.85111 7.0057,0"
       prop_scale="1"
       scale_y_rel="false"
       vertical="false"
       bendpath-nodetypes="cc" /><inkscape:path-effect
       effect="bounding_box"
       id="path-effect4654"
       is_visible="true"
       linkedpath=""
       visualbounds="false" /></defs><sodipodi:namedview
     id="base"
     pagecolor="#ffffff"
     bordercolor="#666666"
     borderopacity="1.0"
     inkscape:pageopacity="0.0"
     inkscape:pageshadow="2"
     inkscape:zoom="3.6203867"
     inkscape:cx="87.145387"
     inkscape:cy="105.23738"
     inkscape:document-units="px"
     inkscape:current-layer="g5175"
     showgrid="false"
     fit-margin-top="0"
     fit-margin-left="0"
     fit-margin-right="0"
     fit-margin-bottom="0"
     inkscape:window-width="1920"
     inkscape:window-height="1012"
     inkscape:window-x="0"
     inkscape:window-y="0"
     inkscape:window-maximized="1"
     showguides="false"
     inkscape:object-nodes="true"
     units="px"
     inkscape:snap-page="true"
     inkscape:showpageshadow="2"
     inkscape:pagecheckerboard="0"
     inkscape:deskcolor="#d1d1d1" /><metadata
     id="metadata5"><rdf:RDF><cc:Work
         rdf:about=""><dc:format>image/svg+xml</dc:format><dc:type
           rdf:resource="http://purl.org/dc/dcmitype/StillImage" /></cc:Work></rdf:RDF></metadata><g
     inkscape:label="Layer 1"
     inkscape:groupmode="layer"
     id="layer1"
     transform="translate(98.048812,-95.14345)"><g
       style="stroke-width:0.5"
       transform="matrix(2,0,0,2,-98.048812,95.143449)"
       id="g5175"><rect
         y="-1.110223e-16"
         x="0"
         height="26.458334"
         width="26.458334"
         id="rect5163"
         style="opacity:1;fill:#222222;fill-opacity:1;fill-rule:nonzero;stroke:none;stroke-width:0.25;stroke-linecap:butt;stroke-linejoin:round;stroke-miterlimit:4;stroke-dasharray:none;stroke-dashoffset:0;stroke-opacity:0.90944878;paint-order:normal"
         rx="1.984375"
         ry="1.984375" /><rect
         style="opacity:1;fill:#782144;fill-opacity:1;fill-rule:nonzero;stroke:none;stroke-width:0.25;stroke-linecap:butt;stroke-linejoin:round;stroke-miterlimit:4;stroke-dasharray:none;stroke-dashoffset:0;stroke-opacity:0.90944878;paint-order:normal"
         id="rect5165"
         width="23.8125"
         height="23.8125"
         x="1.322917"
         y="1.322917"
         rx="1.3229166"
         ry="1.3229166" /><path
         style="opacity:1;fill:#222222;fill-opacity:1;fill-rule:nonzero;stroke:none;stroke-width:0.24999997;stroke-linecap:butt;stroke-linejoin:round;stroke-miterlimit:4;stroke-dasharray:none;stroke-dashoffset:0;stroke-opacity:0.90944878;paint-order:normal"
         d="m 0.72760492,18.520836 v 4.167188 c 0,1.539081 1.23904398,2.778124 2.77812498,2.778124 H 22.952604 c 1.539081,0 2.778125,-1.239043 2.778125,-2.778124 v -4.167188 z"
         id="rect5205-3-6"
         inkscape:connector-curvature="0" /><text
         xml:space="preserve"
         style="font-size:2.96303px;fill:#222222;fill-opacity:1;stroke-width:0.123463"
         x="1.2178996"
         y="23.137905"
         id="text2040"><tspan
           sodipodi:role="line"
           id="tspan2038"
           style="font-style:normal;font-variant:normal;font-weight:bold;font-stretch:normal;font-family:'Gothic A1';-inkscape-font-specification:'Gothic A1 Bold';fill:#ffffff;fill-opacity:1;stroke-width:0.123463"
           x="1.2178996"
           y="23.137905">INTERNATIONAL</tspan></text><path
         style="fill:#ffffff;stroke-width:0.00424692;fill-opacity:1"
         d="m 12.876727,18.063631 c -0.02803,-0.0014 -0.11403,-0.0065 -0.191112,-0.01152 -0.07708,-0.005 -0.210859,-0.01659 -0.297284,-0.02583 -0.08643,-0.0092 -0.212559,-0.0245 -0.280297,-0.03393 -0.06774,-0.0094 -0.199606,-0.03064 -0.293038,-0.04714 -0.09343,-0.0165 -0.230109,-0.04306 -0.303727,-0.05903 -0.07362,-0.01597 -0.188284,-0.04268 -0.254815,-0.05936 -0.06653,-0.01668 -0.187855,-0.04944 -0.269608,-0.0728 -0.08175,-0.02336 -0.219354,-0.06561 -0.305779,-0.09389 -0.08643,-0.02828 -0.233581,-0.0801 -0.327013,-0.11515 -0.09343,-0.03505 -0.236766,-0.09229 -0.318519,-0.127195 -0.08175,-0.03491 -0.1923869,-0.08424 -0.2458539,-0.109625 -0.05347,-0.02538 -0.1203548,-0.05207 -0.1486419,-0.0593 -0.028287,-0.0072 -0.08392,-0.03058 -0.1236289,-0.05189 -0.039709,-0.02131 -0.088582,-0.04999 -0.1086062,-0.06373 -0.020025,-0.01374 -0.054425,-0.03107 -0.076445,-0.03853 -0.02202,-0.0075 -0.095459,-0.04595 -0.163197,-0.08555 -0.067738,-0.0396 -0.1671164,-0.09865 -0.22084,-0.131238 C 8.8945981,16.845343 8.7886684,16.778053 8.7129218,16.72839 8.6371748,16.67873 8.570485,16.62929 8.5647213,16.618529 8.5589613,16.607769 8.4967093,16.557189 8.4263923,16.506147 8.3560753,16.455117 8.229743,16.358451 8.1456539,16.291353 8.0615649,16.224253 7.9277867,16.112383 7.8483693,16.042747 7.7689513,15.973107 7.6261167,15.839692 7.530958,15.746259 7.435799,15.652829 7.3035131,15.517137 7.2369887,15.444727 7.1704647,15.372317 7.0801432,15.271016 7.0362753,15.219613 6.9924073,15.168213 6.9121417,15.070743 6.8579072,15.00302 6.8036732,14.9353 6.7173312,14.822552 6.6660371,14.752478 6.6147431,14.682408 6.5363194,14.571559 6.4917624,14.506157 6.4472054,14.440757 6.3793697,14.337899 6.3410165,14.27759 6.3026635,14.21728 6.2397311,14.114081 6.2011671,14.048257 6.1626031,13.982427 6.1060381,13.882708 6.0754668,13.826649 6.0448958,13.770589 5.9797118,13.644456 5.930613,13.546352 5.881515,13.448252 5.81839,13.316381 5.7903358,13.253314 c -0.028054,-0.06307 -0.067024,-0.15256 -0.086599,-0.198872 -0.019575,-0.04631 -0.058452,-0.143781 -0.086391,-0.216593 -0.02794,-0.07281 -0.077532,-0.210744 -0.1102052,-0.306512 -0.032673,-0.09577 -0.083674,-0.258213 -0.1133365,-0.360989 -0.029662,-0.102775 -0.069303,-0.249931 -0.088092,-0.327013 -0.018788,-0.07708 -0.04794,-0.207037 -0.064781,-0.28879 -0.016841,-0.08175 -0.041918,-0.215936 -0.055725,-0.298184 -0.013808,-0.08225 -0.034485,-0.22367 -0.045951,-0.314272 -0.011465,-0.0906 -0.026714,-0.231621 -0.033887,-0.313374 -0.00717,-0.08175 -0.016908,-0.219353 -0.021635,-0.305778 -0.00473,-0.08643 -0.00859,-0.267981 -0.00858,-0.4034576 7.6e-6,-0.135477 0.00391,-0.318944 0.00868,-0.407705 0.00477,-0.08876 0.014462,-0.226361 0.021544,-0.305778 0.00708,-0.07942 0.02238,-0.220417 0.033996,-0.313333 0.011615,-0.09292 0.034197,-0.24586 0.050182,-0.339877 0.015985,-0.09402 0.044602,-0.243188 0.063593,-0.331489 0.018992,-0.0883 0.052103,-0.229667 0.073581,-0.314148 0.021478,-0.084481 0.061334,-0.2281349 0.08857,-0.3192314 0.027236,-0.091096 0.074942,-0.2401635 0.1060135,-0.33126 0.031072,-0.091096 0.088325,-0.2458969 0.1272303,-0.3440009 0.038905,-0.098104 0.094325,-0.231882 0.123155,-0.2972846 0.02883,-0.065403 0.095718,-0.2068252 0.1486399,-0.3142724 C 5.9732588,6.193653 6.045682,6.0528988 6.0812775,5.988313 6.1168725,5.923727 6.1828383,5.8090603 6.2278671,5.7334976 c 0.045029,-0.075563 0.1275546,-0.207287 0.1833906,-0.2927205 0.055836,-0.085434 0.099354,-0.1575001 0.096706,-0.160148 -0.00265,-0.00265 0.035741,-0.060792 0.085308,-0.1292102 0.049567,-0.068418 0.124752,-0.1693071 0.1670777,-0.2241986 0.042326,-0.054892 0.081968,-0.099803 0.088094,-0.099803 0.00613,0 0.010015,-0.0051 0.00864,-0.011334 -0.00137,-0.00623 0.026171,-0.04632 0.061208,-0.089081 0.035037,-0.042761 0.068291,-0.077795 0.073898,-0.077852 0.00561,-5.95e-5 0.024718,-0.017631 0.042469,-0.039054 0.017751,-0.021423 0.031484,-0.04195 0.030518,-0.045616 -9.662e-4,-0.00367 0.011777,-0.022477 0.028319,-0.041802 0.016541,-0.019325 0.034167,-0.032607 0.039168,-0.029516 0.005,0.00309 0.0067,0.00175 0.00378,-0.00298 -0.00292,-0.00473 0.041689,-0.059786 0.099135,-0.1223497 C 7.2930264,4.3052716 7.4329343,4.1633049 7.5464857,4.052354 7.6600372,3.9414032 7.7581986,3.8506252 7.7646221,3.8506252 c 0.00642,0 0.064206,-0.045343 0.1284049,-0.1007616 0.064199,-0.055419 0.1783835,-0.150019 0.2537434,-0.2102227 0.07536,-0.060204 0.1919381,-0.1494765 0.2590624,-0.198384 0.067124,-0.048908 0.1821473,-0.1295901 0.2556067,-0.1792944 0.073459,-0.049704 0.1316458,-0.092288 0.1293034,-0.09463 -0.00234,-0.00234 0.071333,-0.050363 0.1637223,-0.1067117 0.09239,-0.056349 0.2348702,-0.1397358 0.3166235,-0.1853041 0.081753,-0.045568 0.2480204,-0.1314261 0.3694824,-0.190795 0.121462,-0.059369 0.297285,-0.1404835 0.3907169,-0.1802544 0.09343,-0.039771 0.252055,-0.1028877 0.352495,-0.1402593 0.100439,-0.037372 0.243773,-0.0877 0.318519,-0.1118415 0.07475,-0.024141 0.200879,-0.062527 0.280297,-0.085302 0.07942,-0.022775 0.205551,-0.056662 0.280297,-0.075305 0.07475,-0.018643 0.200879,-0.047807 0.280297,-0.064809 0.07942,-0.017002 0.232481,-0.045689 0.340142,-0.063748 0.107661,-0.018059 0.277751,-0.042525 0.377977,-0.054368 0.100226,-0.011843 0.261192,-0.027707 0.357703,-0.035253 0.143983,-0.011257 0.267454,-0.013029 0.688002,-0.00987 0.39568,0.00297 0.54351,0.00707 0.648428,0.017982 0.07475,0.00778 0.210436,0.023655 0.301532,0.035288 0.0911,0.011633 0.233526,0.03258 0.316509,0.046548 0.08298,0.013968 0.226317,0.041005 0.318519,0.060081 0.0922,0.019076 0.247907,0.055073 0.346011,0.079993 0.0981,0.02492 0.243349,0.064994 0.322767,0.089054 0.07942,0.02406 0.161595,0.051424 0.182617,0.060809 0.02102,0.00939 0.09938,0.03818 0.174124,0.063988 0.07475,0.025808 0.206613,0.074733 0.293038,0.1087227 0.08643,0.033989 0.216381,0.087488 0.288791,0.1188855 0.07241,0.031398 0.211921,0.096093 0.310025,0.1437665 0.0981,0.047674 0.243349,0.1223355 0.322766,0.1659147 0.07942,0.043579 0.213196,0.1203198 0.297285,0.1705348 0.08409,0.050215 0.227423,0.1410017 0.318519,0.2017482 0.0911,0.060747 0.219142,0.149509 0.284544,0.1972501 0.0654,0.047741 0.160959,0.119644 0.212346,0.1597842 0.05139,0.04014 0.150563,0.1209284 0.220389,0.1795293 0.06983,0.058601 0.167294,0.1426373 0.216594,0.1867475 0.0493,0.04411 0.165525,0.1549548 0.258278,0.2463215 0.09275,0.091367 0.224654,0.2272771 0.293114,0.3020229 0.06846,0.074746 0.164868,0.1836795 0.21424,0.2420747 0.04937,0.058395 0.126108,0.1520398 0.170526,0.2080992 0.04442,0.056059 0.119115,0.1535263 0.165994,0.2165931 0.04688,0.063067 0.133015,0.1853783 0.191416,0.2718032 0.0584,0.086425 0.134838,0.2030029 0.169859,0.2590623 0.03502,0.056059 0.100086,0.164993 0.144588,0.2420747 0.0445,0.077082 0.117849,0.2108597 0.162991,0.2972846 0.04514,0.086425 0.112488,0.2212804 0.149655,0.2996787 0.03717,0.078398 0.09628,0.2098894 0.131362,0.2922022 0.03508,0.082313 0.09248,0.2264803 0.127565,0.3203722 0.03508,0.093892 0.06945,0.1862765 0.07638,0.2052993 0.0081,0.022363 0.02906,0.048803 0.05918,0.074811 0.02563,0.022123 0.04659,0.043585 0.04659,0.047694 0,0.00411 -0.01338,0.0053 -0.02973,0.00265 -0.02019,-0.00328 -0.02973,-0.00154 -0.02973,0.00541 0,0.00563 0.0091,0.037661 0.02011,0.071186 0.01106,0.033525 0.02278,0.072185 0.02604,0.085911 0.0033,0.013726 0.01091,0.029015 0.017,0.033975 0.0061,0.00496 0.03062,0.07973 0.05452,0.1661547 0.02389,0.086425 0.0585,0.2221141 0.07691,0.3015311 0.01841,0.07942 0.04739,0.215107 0.06442,0.301532 0.01703,0.08643 0.03428,0.195359 0.03835,0.242075 0.0041,0.04672 0.01706,0.152487 0.02886,0.235047 0.01181,0.08256 0.0291,0.233537 0.03843,0.335507 0.0093,0.101969 0.02091,0.258021 0.02574,0.346781 0.0048,0.08876 0.0088,0.272228 0.0087,0.407705 0,0.1354766 -0.004,0.3208546 -0.0088,0.4119516 -0.0048,0.0911 -0.0144,0.228697 -0.0213,0.305778 -0.0069,0.07708 -0.02036,0.203215 -0.02992,0.280297 -0.0096,0.07708 -0.02674,0.199393 -0.0382,0.271803 -0.01145,0.07241 -0.03436,0.204277 -0.05091,0.293038 -0.01655,0.08876 -0.03373,0.176672 -0.03818,0.195358 -0.0045,0.01869 -0.03261,0.129532 -0.06255,0.246322 -0.02995,0.11679 -0.07367,0.275413 -0.09717,0.352495 -0.02349,0.07708 -0.06811,0.214682 -0.09916,0.305778 -0.03104,0.0911 -0.08827,0.245897 -0.127175,0.344001 -0.0389,0.0981 -0.09444,0.231882 -0.12342,0.297285 -0.02898,0.0654 -0.08973,0.195358 -0.135008,0.288791 -0.04528,0.09343 -0.117987,0.234854 -0.161577,0.314272 -0.04359,0.07942 -0.11568,0.205551 -0.160201,0.280297 -0.04452,0.07475 -0.124712,0.20279 -0.178202,0.284544 -0.05349,0.08175 -0.1384,0.205976 -0.188684,0.27605 -0.05028,0.07007 -0.114859,0.157905 -0.143501,0.195178 -0.02864,0.03727 -0.05035,0.07228 -0.04823,0.07779 0.0021,0.0055 -0.03471,0.05719 -0.08183,0.114847 -0.04712,0.05766 -0.108923,0.131585 -0.137345,0.164286 -0.02842,0.0327 -0.08414,0.09577 -0.123825,0.140148 -0.03968,0.04438 -0.07604,0.08082 -0.0808,0.08098 -0.0048,1.62e-4 -0.08892,0.08187 -0.187027,0.181578 -0.0981,0.09971 -0.24158,0.239088 -0.318835,0.309735 -0.07726,0.07065 -0.195745,0.174787 -0.263309,0.231424 -0.06757,0.05664 -0.176556,0.144751 -0.242203,0.195812 -0.06565,0.05106 -0.178402,0.135155 -0.250568,0.186877 -0.07217,0.05172 -0.203834,0.141699 -0.292595,0.199945 -0.08876,0.05825 -0.212983,0.136463 -0.27605,0.173814 -0.06307,0.03735 -0.167802,0.09758 -0.232745,0.133843 -0.06494,0.03626 -0.204454,0.109181 -0.310025,0.162043 -0.105571,0.05286 -0.232081,0.114013 -0.281133,0.135889 -0.04905,0.02188 -0.150619,0.06572 -0.225704,0.09742 -0.07509,0.03171 -0.195485,0.07956 -0.267557,0.106332 -0.07207,0.02678 -0.180726,0.06578 -0.241457,0.08668 -0.06073,0.0209 -0.164041,0.05468 -0.229579,0.07508 -0.06554,0.0204 -0.183861,0.05465 -0.262942,0.07612 -0.07908,0.02147 -0.207014,0.05383 -0.284298,0.07192 -0.07728,0.01808 -0.210602,0.04665 -0.296263,0.06348 -0.08566,0.01683 -0.215616,0.0399 -0.288791,0.05126 -0.07317,0.01136 -0.1942,0.02833 -0.268945,0.03771 -0.07475,0.0094 -0.202791,0.02286 -0.284544,0.02996 -0.08175,0.0071 -0.219354,0.01679 -0.305779,0.02151 -0.08643,0.0047 -0.281359,0.0079 -0.433186,0.007 -0.151828,-8.8e-4 -0.298983,-0.0027 -0.327013,-0.0041 z m 0.77294,-0.138831 c 0.07942,-0.0047 0.211284,-0.01427 0.293038,-0.02137 0.08175,-0.0071 0.209798,-0.02071 0.284544,-0.03025 0.07475,-0.0095 0.206612,-0.02882 0.293037,-0.04285 0.08643,-0.01403 0.23167,-0.04087 0.322767,-0.05963 0.0911,-0.01876 0.241848,-0.0532 0.335004,-0.07653 0.09316,-0.02332 0.244135,-0.06482 0.335507,-0.09221 0.09137,-0.02739 0.221555,-0.06878 0.289293,-0.09196 0.06774,-0.02319 0.175861,-0.0618 0.240273,-0.08581 0.06441,-0.02401 0.177167,-0.06866 0.250568,-0.09922 0.0734,-0.03056 0.191737,-0.08196 0.262966,-0.114209 0.07123,-0.03225 0.187024,-0.08744 0.257319,-0.122651 0.0703,-0.03521 0.187838,-0.0969 0.261208,-0.137099 0.07337,-0.0402 0.200287,-0.113125 0.28204,-0.162059 0.08175,-0.04893 0.219354,-0.135822 0.305779,-0.193084 0.08643,-0.05726 0.216381,-0.147352 0.288791,-0.2002 0.07241,-0.05285 0.166054,-0.122992 0.208099,-0.155877 0.04204,-0.03288 0.130961,-0.104927 0.197592,-0.160095 0.06663,-0.05517 0.175566,-0.148709 0.242075,-0.207868 0.06651,-0.05916 0.217192,-0.204336 0.334849,-0.322618 0.117657,-0.118282 0.216304,-0.222561 0.219214,-0.23173 0.0033,-0.01029 -0.0028,-0.03058 -0.01583,-0.05301 -0.01162,-0.01998 -0.03258,-0.06535 -0.04659,-0.100822 -0.01401,-0.03547 -0.03132,-0.09282 -0.03848,-0.12746 -0.0072,-0.03464 -0.01844,-0.07836 -0.02507,-0.09718 -0.0066,-0.01881 -0.01348,-0.06237 -0.01522,-0.09679 l -0.0032,-0.06259 0.02973,-0.01081 c 0.01635,-0.0059 0.0472,-0.0111 0.06855,-0.01145 0.0323,-5.35e-4 0.04443,0.0042 0.07221,0.02794 0.01889,0.01617 0.04414,0.05107 0.05813,0.08033 0.0136,0.02846 0.02785,0.04982 0.03166,0.04746 0.0038,-0.0024 0.01441,-2.71e-4 0.02357,0.0046 l 0.01664,0.0089 0.0053,-0.04036 c 0.0029,-0.0222 0.01709,-0.07457 0.03156,-0.116382 l 0.02631,-0.07602 -0.01011,-0.03778 c -0.0056,-0.02078 -0.0201,-0.04964 -0.03232,-0.06413 -0.01222,-0.01449 -0.02737,-0.03865 -0.03367,-0.05368 -0.0063,-0.01503 -0.01145,-0.04405 -0.01145,-0.06447 0,-0.02043 0.0075,-0.07311 0.01661,-0.117063 0.0093,-0.04466 0.01771,-0.123762 0.01911,-0.179293 0.0017,-0.06595 -7.39e-4,-0.102616 -0.0071,-0.10902 -0.0072,-0.0072 -0.01647,-0.0061 -0.03656,0.0043 -0.0148,0.0077 -0.04529,0.01609 -0.06776,0.01876 -0.02275,0.0027 -0.05435,3.82e-4 -0.07132,-0.0052 -0.01676,-0.0055 -0.04197,-0.02315 -0.05602,-0.03915 -0.01405,-0.016 -0.03144,-0.04895 -0.03865,-0.07322 -0.0072,-0.02427 -0.0131,-0.0709 -0.0131,-0.103612 0,-0.03271 0.0061,-0.08106 0.01346,-0.107438 0.01066,-0.03798 0.01154,-0.05509 0.0042,-0.08226 -0.0051,-0.01887 -0.01705,-0.04424 -0.02661,-0.05639 -0.0096,-0.01215 -0.046,-0.03623 -0.08099,-0.05352 -0.04081,-0.02017 -0.07974,-0.03278 -0.108587,-0.03517 l -0.04497,-0.0037 -0.02749,0.03703 c -0.01512,0.02037 -0.04237,0.06761 -0.06056,0.104983 -0.01819,0.03737 -0.04857,0.109772 -0.06753,0.160887 -0.01895,0.05111 -0.04592,0.110794 -0.05992,0.132622 -0.01401,0.02183 -0.04738,0.06029 -0.07416,0.08548 -0.02678,0.02519 -0.06665,0.05915 -0.0886,0.07548 -0.02814,0.02093 -0.04612,0.04346 -0.06098,0.0764 -0.01159,0.02569 -0.02911,0.06722 -0.03892,0.09228 -0.0098,0.02506 -0.0292,0.06207 -0.04309,0.08225 -0.01388,0.02018 -0.03766,0.04535 -0.05283,0.05593 -0.01517,0.01058 -0.05143,0.04087 -0.08058,0.0673 -0.02914,0.02643 -0.07692,0.05972 -0.106173,0.07396 -0.02925,0.01424 -0.07508,0.03033 -0.101846,0.03575 -0.03664,0.0074 -0.05264,0.01549 -0.06476,0.03265 -0.0089,0.01254 -0.03042,0.05146 -0.04793,0.0865 -0.01751,0.03504 -0.04664,0.08875 -0.06474,0.119361 -0.0181,0.03061 -0.04431,0.08939 -0.05825,0.130613 -0.01394,0.04123 -0.03487,0.09122 -0.04652,0.111097 -0.01339,0.02285 -0.03371,0.04234 -0.05525,0.05299 l -0.03406,0.01685 0.0487,0.03432 c 0.02679,0.01888 0.05894,0.04519 0.07145,0.05847 0.01251,0.01328 0.03229,0.04325 0.04396,0.06661 0.01167,0.02336 0.02804,0.07569 0.0364,0.1163 l 0.01519,0.07383 -0.01041,0.06072 -0.01041,0.06072 0.02559,0.0323 c 0.01407,0.01777 0.02559,0.03606 0.02559,0.04065 0,0.0046 -0.03516,0.02863 -0.07813,0.05343 -0.0594,0.03428 -0.08858,0.04596 -0.121753,0.04871 -0.03636,0.003 -0.05271,-8.87e-4 -0.09812,-0.02341 -0.02997,-0.01487 -0.06653,-0.03621 -0.08123,-0.04742 -0.0147,-0.01121 -0.03477,-0.03699 -0.04459,-0.05728 -0.01013,-0.02093 -0.01786,-0.05362 -0.01786,-0.07556 v -0.03867 l -0.03637,0.03637 c -0.02435,0.02435 -0.04693,0.03836 -0.06832,0.04237 -0.02167,0.0041 -0.04344,0.0016 -0.06768,-0.0077 -0.01965,-0.0075 -0.0572,-0.03058 -0.08345,-0.05122 -0.02955,-0.02323 -0.05472,-0.05199 -0.06611,-0.07553 -0.01012,-0.02091 -0.02207,-0.06042 -0.02656,-0.08782 -0.0045,-0.0274 -0.0081,-0.06892 -0.0081,-0.09228 0,-0.02336 0.01319,-0.12023 0.02923,-0.21527 l 0.02917,-0.172801 -0.02968,-0.0447 c -0.01632,-0.02459 -0.03898,-0.07105 -0.05034,-0.10325 -0.01136,-0.0322 -0.02074,-0.06834 -0.02084,-0.0803 -1.02e-4,-0.01196 -0.01172,-0.06682 -0.02583,-0.121907 -0.01411,-0.05509 -0.02904,-0.106496 -0.03319,-0.114245 -0.0041,-0.0077 -0.01554,-0.02133 -0.02531,-0.03018 -0.01071,-0.0097 -0.0178,-0.02654 -0.01783,-0.04237 0,-0.01446 -0.01204,-0.06642 -0.02668,-0.115474 -0.02129,-0.07133 -0.02679,-0.105593 -0.02746,-0.171124 l -8.33e-4,-0.08194 -0.03645,-0.005 c -0.02005,-0.0027 -0.05722,-0.01482 -0.0826,-0.02683 -0.02578,-0.0122 -0.06079,-0.03846 -0.07931,-0.0595 -0.01824,-0.02072 -0.03793,-0.05471 -0.04376,-0.07553 -0.0058,-0.02083 -0.0088,-0.0524 -0.0066,-0.07016 0.0025,-0.02004 -0.0088,-0.09033 -0.0298,-0.185181 -0.0283,-0.127897 -0.03417,-0.170941 -0.03595,-0.26331 -0.0012,-0.06073 -0.0107,-0.181131 -0.02117,-0.267556 l -0.01905,-0.157136 -0.04279,-0.04407 -0.04279,-0.04407 -0.03977,0.02016 c -0.02188,0.01108 -0.05664,0.03299 -0.07725,0.04868 -0.02061,0.01568 -0.06041,0.04138 -0.08844,0.0571 -0.02803,0.01572 -0.07581,0.04601 -0.106173,0.0673 -0.03037,0.02129 -0.08961,0.0718 -0.131655,0.112242 -0.04204,0.04044 -0.08446,0.076 -0.09427,0.07902 -0.0098,0.003 -0.02222,0.01516 -0.0276,0.02697 -0.006,0.01317 -0.0098,0.0714 -0.0098,0.150603 0,0.07102 -0.004,0.153976 -0.0088,0.184341 -0.0048,0.03037 -0.0183,0.075 -0.02999,0.09919 -0.01232,0.02549 -0.0422,0.06337 -0.07107,0.0901 -0.03713,0.03437 -0.08369,0.06296 -0.182706,0.112174 l -0.132883,0.06605 -0.07306,0.06674 c -0.05574,0.05092 -0.09541,0.07807 -0.167342,0.114553 -0.05185,0.0263 -0.106628,0.0595 -0.121723,0.07378 -0.0151,0.01428 -0.03155,0.0384 -0.03656,0.0536 -0.0073,0.02223 -0.01941,0.03254 -0.06174,0.05271 -0.02894,0.01379 -0.07938,0.0496 -0.112078,0.07956 -0.0327,0.02997 -0.07125,0.06271 -0.08566,0.07277 -0.01441,0.01006 -0.05646,0.02659 -0.09343,0.03674 -0.03697,0.01015 -0.08442,0.02228 -0.105446,0.02695 -0.02102,0.0047 -0.06498,0.02301 -0.09768,0.04074 -0.0327,0.01774 -0.07666,0.03683 -0.09768,0.04244 -0.02102,0.0056 -0.09365,0.01897 -0.161383,0.02971 -0.06774,0.01074 -0.212983,0.03585 -0.322766,0.05582 -0.165869,0.03016 -0.222108,0.03684 -0.332745,0.03949 l -0.133139,0.0032 -0.0877,-0.02116 c -0.04824,-0.01164 -0.112648,-0.03022 -0.143139,-0.0413 l -0.05544,-0.02015 0.01428,0.04285 c 0.0097,0.0291 0.02129,0.04637 0.03611,0.05383 0.012,0.006 0.05346,0.01653 0.09212,0.02331 0.03866,0.0068 0.114249,0.03016 0.167973,0.05193 l 0.09768,0.0396 0.114667,-0.01842 c 0.06307,-0.01013 0.150978,-0.01834 0.195358,-0.01825 0.04438,9.4e-5 0.105042,0.0041 0.134804,0.0089 0.02976,0.0048 0.06872,0.01623 0.08657,0.02534 0.01785,0.0091 0.04252,0.02975 0.05483,0.04589 0.0123,0.01613 0.0276,0.04917 0.034,0.07343 l 0.01163,0.0441 -0.03524,0.05194 c -0.01938,0.02856 -0.06979,0.08768 -0.112031,0.131359 -0.04224,0.04368 -0.08828,0.08535 -0.102322,0.0926 -0.01404,0.0072 -0.04655,0.03038 -0.07225,0.0514 -0.02569,0.02102 -0.07078,0.04955 -0.100195,0.0634 -0.02941,0.01384 -0.07337,0.04291 -0.09768,0.06459 -0.02431,0.02168 -0.06713,0.05692 -0.09516,0.07829 -0.02803,0.02138 -0.08536,0.06351 -0.127408,0.09363 -0.04204,0.03012 -0.08878,0.05985 -0.103867,0.06607 -0.01508,0.0062 -0.05904,0.04472 -0.09768,0.08555 -0.05841,0.06172 -0.07866,0.07736 -0.120102,0.09273 -0.02741,0.01017 -0.122971,0.03386 -0.212347,0.05265 -0.08938,0.01878 -0.186081,0.03803 -0.214901,0.04277 -0.03874,0.0064 -0.06531,0.0058 -0.101926,-0.0022 -0.02724,-0.0059 -0.07437,-0.01014 -0.104736,-0.0094 -0.03037,7.81e-4 -0.07148,0.0037 -0.09136,0.0065 -0.02884,0.0041 -0.03876,0.01013 -0.04904,0.03001 -0.0072,0.01395 -0.02619,0.03048 -0.04312,0.03755 -0.01663,0.0069 -0.06527,0.0186 -0.108094,0.02588 -0.04282,0.0073 -0.08503,0.01541 -0.09379,0.01804 -0.0088,0.0026 -0.03815,0.02521 -0.06532,0.05019 -0.02716,0.02497 -0.06887,0.05527 -0.09267,0.06734 -0.02381,0.01206 -0.05748,0.03473 -0.07483,0.05037 -0.01735,0.01564 -0.03897,0.02985 -0.04804,0.03158 -0.0095,0.0018 -0.02546,0.02056 -0.03756,0.04407 l -0.02106,0.04093 0.01424,0.03974 c 0.0078,0.02186 0.01422,0.0584 0.0142,0.08122 -3.4e-5,0.03076 -0.008,0.0571 -0.0307,0.101926 -0.01686,0.03325 -0.03357,0.06427 -0.03714,0.06894 -0.0036,0.0047 -0.01827,0.04675 -0.03266,0.09352 -0.0144,0.04676 -0.03847,0.103571 -0.05348,0.126244 -0.01502,0.02267 -0.04481,0.05407 -0.06621,0.06978 l -0.03891,0.02856 -0.05752,2.13e-4 c -0.03164,1.19e-4 -0.129105,0.0082 -0.216593,0.01805 -0.107337,0.01204 -0.188077,0.01649 -0.248256,0.01369 -0.07394,-0.0034 -0.103616,-0.0093 -0.173619,-0.03426 -0.0673,-0.024 -0.08798,-0.02826 -0.101926,-0.02098 -0.0096,0.005 -0.03365,0.02388 -0.0534,0.0419 -0.02063,0.01882 -0.04453,0.03277 -0.05616,0.03277 -0.01114,0 -0.04849,0.01856 -0.08301,0.04125 -0.03452,0.02269 -0.10289,0.06061 -0.151942,0.08428 -0.0597,0.0288 -0.116516,0.04886 -0.171852,0.06067 -0.04547,0.0097 -0.09707,0.01782 -0.114667,0.01803 l -0.032,3.91e-4 0.106174,0.04514 c 0.05839,0.02483 0.171151,0.07008 0.250568,0.100554 0.07942,0.03048 0.201729,0.07519 0.271803,0.09936 0.07007,0.02417 0.189465,0.06277 0.265312,0.08577 0.07585,0.023 0.19611,0.05732 0.26725,0.07628 0.07114,0.01895 0.194256,0.04949 0.273592,0.06785 0.07934,0.01837 0.145469,0.03217 0.146961,0.03068 0.0015,-0.0015 -0.02576,-0.02452 -0.06056,-0.05117 -0.0348,-0.02665 -0.07669,-0.06331 -0.09309,-0.08147 -0.01679,-0.01859 -0.03236,-0.04655 -0.03564,-0.06402 -0.0032,-0.01706 -0.0037,-0.04882 -0.0011,-0.07058 0.0026,-0.02176 0.01652,-0.0815 0.03093,-0.132754 0.01441,-0.05125 0.03546,-0.107167 0.04677,-0.124255 0.01182,-0.01786 0.03689,-0.03897 0.05895,-0.04965 0.0225,-0.01089 0.04997,-0.01747 0.06639,-0.01589 l 0.028,0.0027 0.03967,-0.06229 c 0.02182,-0.03426 0.04667,-0.07002 0.05521,-0.07947 0.0085,-0.0094 0.03033,-0.02473 0.04841,-0.03396 l 0.03287,-0.01678 0.05631,0.0095 c 0.03097,0.0052 0.07556,0.01882 0.09909,0.03016 0.02353,0.01134 0.05793,0.02596 0.07644,0.03249 l 0.03367,0.01187 0.07619,-0.01207 c 0.04191,-0.0066 0.08777,-0.01894 0.101926,-0.02734 0.01415,-0.0084 0.05378,-0.02006 0.08806,-0.02592 0.03428,-0.0059 0.08397,-0.01828 0.11042,-0.0276 0.02645,-0.0093 0.08457,-0.02092 0.12914,-0.02578 0.04457,-0.0049 0.102391,-0.0062 0.128481,-0.0029 l 0.04744,0.0059 0.0056,0.05685 0.0056,0.05685 -0.02618,0.08813 c -0.0144,0.04847 -0.03527,0.105803 -0.04637,0.127408 -0.0111,0.02161 -0.03764,0.06306 -0.05897,0.09212 -0.02133,0.02906 -0.04769,0.05867 -0.05856,0.06579 -0.01088,0.0071 -0.04627,0.02039 -0.07866,0.02946 -0.03238,0.0091 -0.07703,0.02106 -0.09922,0.02662 -0.02219,0.0056 -0.04035,0.01502 -0.04035,0.02101 0,0.006 -0.01854,0.03321 -0.0412,0.06048 -0.02266,0.02727 -0.04542,0.05761 -0.05058,0.06741 -0.0052,0.0098 -0.03554,0.03924 -0.06752,0.0654 -0.03198,0.02616 -0.07544,0.05498 -0.09659,0.06405 -0.02114,0.0091 -0.05661,0.02778 -0.0788,0.0416 l -0.04036,0.02512 0.134436,0.01831 c 0.07394,0.01007 0.203236,0.02575 0.287325,0.03485 0.08409,0.0091 0.214045,0.02064 0.288791,0.02566 0.07475,0.005 0.158835,0.01022 0.186865,0.01156 0.02803,0.0013 0.18283,0.0031 0.344001,0.004 0.16117,8.41e-4 0.358015,-0.0023 0.437433,-0.0069 z M 8.3175385,16.239177 c -0.025584,-0.02485 -0.035756,-0.04688 -0.063749,-0.138081 -0.018319,-0.05968 -0.040118,-0.13145 -0.048443,-0.159479 -0.00832,-0.02803 -0.029274,-0.08159 -0.046555,-0.119031 -0.017281,-0.03744 -0.045356,-0.08632 -0.062389,-0.108638 -0.017033,-0.02231 -0.03872,-0.06566 -0.048192,-0.09633 -0.00947,-0.03067 -0.017273,-0.0716 -0.017333,-0.09097 -5.94e-5,-0.01936 -0.00794,-0.06005 -0.017505,-0.09041 -0.010827,-0.03436 -0.020882,-0.101717 -0.026629,-0.178371 -0.00508,-0.06774 -0.0094,-0.153739 -0.00961,-0.191112 -2.897e-4,-0.05185 0.00705,-0.09646 0.030985,-0.188256 0.01725,-0.06617 0.031364,-0.129805 0.031364,-0.141415 0,-0.01237 0.022319,-0.05222 0.053934,-0.09629 0.029664,-0.04135 0.060601,-0.0881 0.068749,-0.103906 0.010282,-0.01994 0.013166,-0.03813 0.00943,-0.05946 -0.00296,-0.0169 -0.00565,-0.04029 -0.00596,-0.05196 -3.126e-4,-0.01168 -0.00403,-0.04716 -0.00827,-0.07884 -0.00423,-0.03168 -0.018599,-0.09284 -0.031921,-0.135902 -0.013322,-0.04306 -0.030556,-0.127988 -0.038296,-0.188719 -0.00774,-0.06073 -0.013987,-0.135518 -0.013881,-0.166193 1.062e-4,-0.03068 -0.00393,-0.07845 -0.00896,-0.106173 -0.00504,-0.02772 -0.017973,-0.07142 -0.028748,-0.09712 -0.010862,-0.0259 -0.023513,-0.08133 -0.028394,-0.124407 -0.00484,-0.04273 -0.014634,-0.08897 -0.021762,-0.102751 -0.00713,-0.01378 -0.024729,-0.07168 -0.039114,-0.128658 -0.014385,-0.05698 -0.041654,-0.138784 -0.060599,-0.181792 -0.018945,-0.04301 -0.041405,-0.106863 -0.049912,-0.1419 -0.00851,-0.03504 -0.029707,-0.105748 -0.047111,-0.157136 -0.017404,-0.05139 -0.044087,-0.127833 -0.059295,-0.169877 -0.015208,-0.04204 -0.030475,-0.09364 -0.033928,-0.114667 l -0.00628,-0.03822 -0.064791,-0.0637 c -0.040082,-0.03941 -0.080987,-0.09093 -0.1072603,-0.135098 -0.023358,-0.03927 -0.067314,-0.0961 -0.097679,-0.126292 -0.030365,-0.03019 -0.1087426,-0.0998 -0.1741712,-0.15468 -0.065429,-0.05488 -0.1480739,-0.131848 -0.183656,-0.171041 -0.04237,-0.04667 -0.084083,-0.0826 -0.1208819,-0.104119 -0.030903,-0.01807 -0.071,-0.04893 -0.089105,-0.06857 -0.018447,-0.02001 -0.039416,-0.05528 -0.0477,-0.08022 -0.00961,-0.02893 -0.02147,-0.04755 -0.033897,-0.05321 -0.0155,-0.0071 -0.022575,-0.02377 -0.037407,-0.08834 -0.010061,-0.0438 -0.02407,-0.131741 -0.031131,-0.195431 -0.00706,-0.06369 -0.016558,-0.132395 -0.021104,-0.15268 -0.00455,-0.02029 -0.02808,-0.08583 -0.052299,-0.145651 l -0.044033,-0.108768 -0.00367,-0.08918 c -0.00274,-0.06666 -6.79e-5,-0.10206 0.010569,-0.140149 0.00783,-0.02803 0.021122,-0.07772 0.029538,-0.11042 0.00842,-0.0327 0.023756,-0.09577 0.034089,-0.140148 0.010333,-0.04438 0.0302,-0.101159 0.044149,-0.126175 0.013949,-0.02502 0.033036,-0.0747 0.042416,-0.11042 0.01177,-0.04482 0.017847,-0.09914 0.019615,-0.1753566 l 0.00256,-0.11042 0.040811,-0.11042 c 0.022446,-0.06073 0.047203,-0.119975 0.055015,-0.131655 0.00781,-0.01168 0.032225,-0.05635 0.054252,-0.09927 0.022026,-0.04292 0.055058,-0.09509 0.073403,-0.115931 0.023622,-0.02684 0.056315,-0.04906 0.1120401,-0.07617 0.043277,-0.02105 0.1206926,-0.06928 0.1720348,-0.107167 0.051342,-0.03789 0.1212062,-0.0901 0.1552534,-0.116026 0.047302,-0.03602 0.063166,-0.05345 0.067256,-0.0739 0.00318,-0.01588 0.021736,-0.04314 0.045667,-0.06707 0.029601,-0.0296 0.06929,-0.05421 0.1493375,-0.09261 0.059962,-0.02876 0.1214996,-0.06163 0.1367503,-0.07304 0.015251,-0.01141 0.047916,-0.02999 0.072589,-0.04129 0.024673,-0.0113 0.074934,-0.02676 0.1116897,-0.03436 0.041518,-0.0086 0.082214,-0.01178 0.1074502,-0.0084 0.022342,0.003 0.085195,0.01902 0.1396749,0.03569 0.068773,0.02104 0.1085096,0.02893 0.1299861,0.02582 0.017013,-0.0025 0.055777,-0.01039 0.086142,-0.01762 0.03281,-0.0078 0.096564,-0.01336 0.1571361,-0.01369 0.058842,-3.18e-4 0.1145273,-0.0051 0.131737,-0.01121 0.016396,-0.0059 0.053817,-0.02697 0.083159,-0.04689 0.029342,-0.01993 0.07326,-0.0455 0.097597,-0.05683 0.033576,-0.01563 0.058696,-0.02062 0.1041486,-0.02068 0.044112,-6e-5 0.097841,0.01 0.2038523,0.03803 0.079174,0.02096 0.1668857,0.04574 0.1949154,0.05508 0.02803,0.0093 0.081275,0.02271 0.1183222,0.02973 0.037047,0.007 0.068412,0.01171 0.069699,0.01042 0.00129,-0.0013 -0.022444,-0.03277 -0.052734,-0.06996 -0.030291,-0.03719 -0.064522,-0.08652 -0.076069,-0.109632 -0.013647,-0.02731 -0.020995,-0.05639 -0.020995,-0.0831 0,-0.02751 0.00739,-0.05573 0.022377,-0.08539 0.012308,-0.02437 0.033334,-0.06029 0.046726,-0.07983 l 0.024349,-0.03552 -0.00907,-0.02385 c -0.00499,-0.01312 -0.00658,-0.03727 -0.00354,-0.05367 0.00304,-0.0164 0.015469,-0.04816 0.027623,-0.07058 L 9.6139987,8.0712734 9.4155423,7.8782064 9.2170857,7.6851848 10.413399,6.572697 c 0.657972,-0.6118683 1.210013,-1.1241846 1.226757,-1.1384808 l 0.03045,-0.025993 0.518124,0.036469 c 0.284969,0.020058 0.535325,0.035577 0.556347,0.034487 l 0.03822,-0.00198 -0.02579,-0.014142 c -0.01418,-0.00778 -0.04725,-0.035773 -0.07347,-0.062211 -0.02623,-0.026438 -0.05926,-0.069763 -0.07341,-0.096278 -0.01415,-0.026515 -0.03651,-0.058226 -0.04969,-0.070468 -0.01619,-0.01504 -0.03762,-0.024018 -0.06606,-0.027683 -0.02315,-0.00298 -0.08049,-0.023149 -0.127408,-0.044813 -0.04692,-0.021665 -0.09687,-0.047926 -0.11101,-0.058358 -0.01413,-0.010432 -0.0357,-0.037583 -0.04793,-0.060335 -0.01223,-0.022752 -0.0248,-0.053525 -0.02793,-0.068385 -0.0031,-0.01486 -0.01132,-0.031683 -0.01819,-0.037384 -0.0098,-0.00817 -0.02215,-0.00805 -0.05809,5.725e-4 -0.02508,0.00602 -0.06528,0.00905 -0.08933,0.00674 -0.02731,-0.00262 -0.06954,-0.017026 -0.112462,-0.03836 l -0.06873,-0.034158 -0.03037,0.00838 c -0.0167,0.00461 -0.08209,0.00685 -0.145299,0.00498 l -0.11493,-0.00341 -0.05717,-0.027593 c -0.03544,-0.017104 -0.06599,-0.039146 -0.08035,-0.057983 -0.01799,-0.02359 -0.02392,-0.042041 -0.02646,-0.082457 l -0.0033,-0.052067 0.02843,-0.042469 c 0.02188,-0.032681 0.04115,-0.048929 0.08364,-0.070496 l 0.05521,-0.028027 -0.03398,0.00434 c -0.01869,0.00239 -0.100864,0.00656 -0.182617,0.00928 -0.08175,0.00272 -0.219533,0.010476 -0.306178,0.017233 -0.08664,0.00676 -0.212778,0.018053 -0.280297,0.025102 -0.06752,0.00705 -0.183917,0.0206 -0.258663,0.030114 -0.07475,0.00951 -0.158835,0.020956 -0.186865,0.025428 -0.02803,0.00447 -0.06064,0.00816 -0.07247,0.00819 l -0.0215,6.43e-5 -0.01672,-0.065827 -0.01672,-0.065827 -0.09768,-0.00437 c -0.06292,-0.00281 -0.104127,-0.00861 -0.115801,-0.01629 -0.01,-0.00656 -0.0243,-0.022381 -0.03185,-0.035165 -0.0076,-0.012784 -0.01373,-0.035266 -0.01373,-0.04996 0,-0.014694 0.0057,-0.037796 0.01273,-0.051337 0.007,-0.013541 0.02657,-0.035329 0.04348,-0.048418 0.01691,-0.013088 0.05036,-0.033353 0.07433,-0.045032 l 0.04359,-0.021235 0.05668,-0.1146669 0.05668,-0.114667 -0.0312,-0.00472 c -0.01716,-0.0026 -0.0398,-0.010205 -0.05031,-0.016909 -0.01051,-0.0067 -0.02524,-0.02509 -0.03272,-0.040859 -0.0075,-0.015768 -0.01654,-0.050204 -0.02012,-0.076523 -0.0036,-0.02632 -0.005,-0.051741 -0.0032,-0.056493 0.0018,-0.00475 0.0044,-0.041363 0.0057,-0.08136 0.002,-0.060486 0.0062,-0.079038 0.02464,-0.1102747 0.01221,-0.020655 0.04152,-0.062372 0.06512,-0.092705 l 0.04292,-0.05515 -0.02939,-0.015078 c -0.01617,-0.00829 -0.03534,-0.02416 -0.04261,-0.03526 -0.0073,-0.0111 -0.01534,-0.03319 -0.01792,-0.049089 -0.0028,-0.017105 6.16e-4,-0.041609 0.0083,-0.060018 l 0.013,-0.03111 -0.02942,-0.018181 c -0.01618,-0.01 -0.03773,-0.034041 -0.04789,-0.053424 -0.01339,-0.025552 -0.01827,-0.049257 -0.01773,-0.086206 4.07e-4,-0.02803 0.0066,-0.065084 0.01386,-0.082342 l 0.01312,-0.031379 -0.03971,-0.01246 c -0.02184,-0.00685 -0.04993,-0.014709 -0.06242,-0.017457 l -0.0227,-0.005 -0.0098,0.029725 -0.0098,0.029725 h -0.02641 c -0.01452,0 -0.05531,0.00813 -0.09065,0.01807 -0.05328,0.014985 -0.0773,0.01716 -0.1406903,0.012742 -0.042045,-0.00293 -0.1012892,-0.00762 -0.1316547,-0.010426 l -0.05521,-0.0051 -0.050963,0.030491 c -0.02803,0.01677 -0.061324,0.039885 -0.073987,0.051366 -0.012663,0.011482 -0.037507,0.023565 -0.05521,0.026851 -0.017703,0.00329 -0.04049,0.011378 -0.05064,0.017981 -0.010149,0.0066 -0.038816,0.01397 -0.063704,0.016372 -0.033186,0.0032 -0.0645,-0.00123 -0.1174484,-0.016633 -0.039709,-0.01155 -0.084655,-0.023627 -0.09988,-0.026839 l -0.027682,-0.00584 -0.146442,0.097241 c -0.080543,0.053482 -0.2056865,0.140475 -0.2780966,0.193317 -0.07241,0.052842 -0.1660547,0.122969 -0.2080992,0.1558379 -0.042045,0.032869 -0.140467,0.1128948 -0.2187166,0.1778353 -0.07825,0.064941 -0.1422719,0.1194328 -0.1422719,0.1210941 0,0.00166 0.011352,0.019377 0.025227,0.039368 0.013875,0.019991 0.029923,0.054378 0.035663,0.076415 l 0.010435,0.040068 -0.016706,0.04031 c -0.011423,0.027563 -0.028744,0.049086 -0.054774,0.068064 -0.020937,0.015265 -0.052473,0.03834 -0.07008,0.051277 -0.017607,0.012938 -0.042035,0.042634 -0.054285,0.065992 -0.01225,0.023358 -0.036054,0.059303 -0.052899,0.079877 -0.016844,0.020574 -0.04306,0.042604 -0.058258,0.048954 -0.019414,0.00811 -0.027671,0.017196 -0.027762,0.030543 -6.8e-5,0.010448 -0.00344,0.024221 -0.00748,0.030606 -0.00597,0.00943 -0.013085,0.00972 -0.037811,0.00156 l -0.030456,-0.010051 -0.040627,0.039008 c -0.022345,0.021455 -0.056167,0.046554 -0.075161,0.055776 -0.02592,0.012585 -0.052168,0.016768 -0.1052337,0.016768 h -0.0707 l -0.040457,0.024894 c -0.022252,0.013692 -0.042243,0.023109 -0.044425,0.020926 -0.00218,-0.00218 -0.023872,0.019009 -0.0482,0.047091 l -0.044232,0.051058 0.02635,-0.00919 c 0.014493,-0.00505 0.040207,-0.00659 0.057144,-0.00341 0.016936,0.00318 0.041489,0.016473 0.054562,0.029545 0.013073,0.013073 0.026416,0.034315 0.029651,0.047205 0.00357,0.014226 2.608e-4,0.041268 -0.00842,0.068811 -0.00787,0.024956 -0.021396,0.050343 -0.030065,0.056415 -0.00867,0.00607 -0.029565,0.034592 -0.046436,0.063378 -0.016871,0.028786 -0.040328,0.063811 -0.052128,0.077834 -0.016255,0.019318 -0.033214,0.027805 -0.069992,0.035026 -0.026696,0.00524 -0.059336,0.01303 -0.072532,0.017307 -0.013197,0.00428 -0.035744,0.017664 -0.050105,0.029748 -0.014361,0.012084 -0.04752,0.032817 -0.073686,0.046072 l -0.047574,0.0241 -0.02039,0.051828 c -0.011214,0.028506 -0.023169,0.051828 -0.026565,0.051828 -0.0034,0 -0.010958,-0.00576 -0.016803,-0.012805 l -0.010628,-0.012805 -0.020094,0.020094 c -0.011052,0.011052 -0.03636,0.02808 -0.05624,0.037841 -0.01988,0.00976 -0.04293,0.019776 -0.051221,0.022254 -0.00829,0.00248 -0.058219,0.070524 -0.110949,0.1512112 C 6.4804757,5.5810569 6.4027834,5.7044074 6.3605568,5.7744816 6.3183298,5.8445556 6.2550301,5.9534894 6.2198899,6.0165562 6.1847499,6.0796232 6.1139492,6.2153123 6.0625557,6.3180878 6.0111617,6.4208634 5.9403239,6.5699304 5.9051375,6.6493479 5.8699515,6.7287649 5.8141125,6.8614752 5.781052,6.9442586 5.747991,7.0270416 5.695832,7.1662503 5.6651417,7.2536103 5.6344517,7.3409703 5.5886097,7.4806602 5.56327,7.5640324 5.537931,7.6474044 5.501682,7.7730122 5.482717,7.8431604 c -0.018965,0.07015 -0.051218,0.200994 -0.071675,0.290768 -0.020457,0.08977 -0.046911,0.214826 -0.058786,0.277893 -0.011876,0.06307 -0.029379,0.160843 -0.038896,0.217281 -0.00952,0.05644 -0.026664,0.176839 -0.038103,0.267557 -0.011439,0.09072 -0.026703,0.229919 -0.033919,0.309337 -0.00722,0.07942 -0.016985,0.215106 -0.021709,0.301531 -0.00472,0.08643 -0.00855,0.275626 -0.00851,0.420446 4.25e-5,0.1448196 0.00388,0.3282866 0.00854,0.4077036 0.00465,0.07942 0.014362,0.211285 0.021576,0.293038 0.00721,0.08175 0.020786,0.209798 0.030161,0.284544 0.00937,0.07475 0.028575,0.206613 0.042667,0.293038 0.014092,0.08643 0.038946,0.222114 0.05523,0.301531 0.016285,0.07942 0.046409,0.213916 0.066944,0.298884 0.020535,0.08497 0.05637,0.220659 0.079634,0.301532 0.023264,0.08087 0.062049,0.208199 0.086191,0.282945 0.024141,0.07475 0.073784,0.216168 0.1103179,0.314272 0.036534,0.0981 0.088129,0.229971 0.1146563,0.293038 0.026527,0.06307 0.076974,0.177733 0.1121028,0.254815 0.035129,0.07708 0.090294,0.192909 0.1225886,0.257393 0.032295,0.06448 0.091588,0.177241 0.131764,0.250569 0.040176,0.07333 0.1128366,0.199592 0.1614686,0.280586 0.048632,0.08099 0.1244909,0.20245 0.1685755,0.269903 0.044085,0.06745 0.1133418,0.169363 0.1539049,0.226467 0.040563,0.0571 0.1056655,0.146595 0.144672,0.198869 0.039007,0.05227 0.1039825,0.136362 0.1443912,0.186864 0.040409,0.0505 0.127747,0.154889 0.1940852,0.231971 0.066338,0.07708 0.1837117,0.20726 0.2608297,0.289285 0.077118,0.08202 0.216198,0.220195 0.3090665,0.307046 0.092869,0.08685 0.2205804,0.20214 0.283804,0.256201 0.063224,0.05406 0.1626017,0.136261 0.2208401,0.182668 0.058238,0.04641 0.1074555,0.08285 0.1093715,0.08099 0.00192,-0.0019 -0.010215,-0.01669 -0.026957,-0.03295 z M 17.365725,15.5509 c 0,-0.0023 -0.0019,-0.0042 -0.0042,-0.0042 -0.0023,0 -0.0042,0.0019 -0.0042,0.0042 0,0.0023 0.0019,0.0042 0.0042,0.0042 0.0023,0 0.0042,-0.0019 0.0042,-0.0042 z m 0.0085,-0.01699 c 0,-0.0023 -0.0019,-0.0042 -0.0042,-0.0042 -0.0023,0 -0.0042,0.0019 -0.0042,0.0042 0,0.0023 0.0019,0.0042 0.0042,0.0042 0.0023,0 0.0042,-0.0019 0.0042,-0.0042 z m 0.09543,-0.153895 c 0.01227,-0.02748 0.02474,-0.06142 0.02772,-0.07544 0.0046,-0.02149 0.0028,-0.02007 -0.01103,0.0091 -0.009,0.01899 -0.02802,0.04771 -0.04216,0.06381 -0.01414,0.01611 -0.03567,0.05378 -0.04783,0.08373 -0.01217,0.02994 -0.02212,0.05636 -0.02212,0.0587 0,0.0023 0.01645,-0.01692 0.03656,-0.04282 0.02011,-0.0259 0.0466,-0.06956 0.05886,-0.09704 z m 0.04048,-0.109414 c 0,-0.0023 -0.0019,-0.0042 -0.0042,-0.0042 -0.0023,0 -0.0042,0.0019 -0.0042,0.0042 0,0.0023 0.0019,0.0042 0.0042,0.0042 0.0023,0 0.0042,-0.0019 0.0042,-0.0042 z m 2.229946,-0.671014 c 0.04083,-0.05606 0.11714,-0.166904 0.169589,-0.246322 0.05245,-0.07942 0.126546,-0.195402 0.164659,-0.257745 0.03811,-0.06234 0.07534,-0.125043 0.08273,-0.139336 l 0.01344,-0.02599 -0.05405,0.005 c -0.02973,0.0028 -0.0846,0.01457 -0.121934,0.02621 -0.03734,0.01164 -0.087,0.02384 -0.110355,0.02711 -0.02336,0.0033 -0.05645,0.01145 -0.07354,0.01818 -0.0202,0.008 -0.03472,0.02103 -0.04149,0.03738 -0.0057,0.01383 -0.02122,0.03874 -0.03443,0.05536 -0.01321,0.01662 -0.03535,0.0595 -0.0492,0.09529 -0.01385,0.03579 -0.03302,0.08227 -0.04261,0.10329 -0.01177,0.02581 -0.01748,0.05615 -0.0176,0.09343 -9.3e-5,0.03036 0.0055,0.0877 0.01254,0.127407 0.007,0.03971 0.01272,0.100674 0.01273,0.135477 7e-6,0.03777 0.0031,0.06003 0.0076,0.05521 0.0042,-0.0044 0.04104,-0.05394 0.08186,-0.109995 z m -6.753566,-0.518606 c 0.03724,-0.119882 0.0507,-0.177553 0.0562,-0.24089 0.004,-0.0458 0.01311,-0.108631 0.0203,-0.139624 0.0072,-0.03099 0.01903,-0.07061 0.02631,-0.08803 0.0073,-0.01743 0.03613,-0.05287 0.06411,-0.07876 l 0.05087,-0.04708 0.03686,-0.09753 c 0.02027,-0.05364 0.03956,-0.103937 0.04286,-0.111771 0.0049,-0.01171 -5.26e-4,-0.01512 -0.03076,-0.01916 -0.02022,-0.0027 -0.103658,-0.01459 -0.185412,-0.0264 -0.08175,-0.01182 -0.192598,-0.03052 -0.246321,-0.04157 -0.05372,-0.01104 -0.09915,-0.01868 -0.100946,-0.01696 -0.0018,0.0017 0.0013,0.01403 0.0068,0.02736 0.0055,0.01333 0.04026,0.0538 0.07719,0.08993 0.04112,0.04023 0.07544,0.08279 0.08854,0.109807 l 0.02139,0.04412 -9.28e-4,0.08919 c -5.73e-4,0.055 0.0044,0.113005 0.01298,0.151321 0.0076,0.03417 0.01391,0.07848 0.01391,0.09845 0,0.01998 -0.006,0.05508 -0.01324,0.07801 -0.0088,0.02769 -0.01325,0.07451 -0.01327,0.139375 -1.7e-5,0.05476 -0.0047,0.112608 -0.01073,0.131654 l -0.01069,0.03398 0.01716,0.0361 c 0.0094,0.01985 0.01957,0.0361 0.02251,0.0361 0.0029,0 0.02739,-0.07093 0.05432,-0.157617 z m 7.568572,-0.904114 c 0.03835,-0.08642 0.09479,-0.220203 0.125419,-0.297284 0.03063,-0.07708 0.07673,-0.199393 0.102432,-0.271803 0.0257,-0.07241 0.06781,-0.198544 0.09356,-0.280297 0.02575,-0.08175 0.06812,-0.226812 0.09415,-0.322354 0.02603,-0.09554 0.04958,-0.185753 0.05234,-0.200472 l 0.005,-0.02676 -0.03085,-0.0182 c -0.01886,-0.01113 -0.03607,-0.03061 -0.04427,-0.0501 -0.01064,-0.02529 -0.01233,-0.0498 -0.0082,-0.118442 l 0.0052,-0.08655 -0.0279,-0.03657 c -0.01534,-0.02012 -0.03364,-0.03768 -0.04067,-0.03903 -0.007,-0.0014 -0.02896,0.0093 -0.04874,0.0236 -0.01978,0.01433 -0.03988,0.03464 -0.04466,0.04514 -0.0072,0.01574 -0.0035,0.02772 0.02099,0.06838 0.01633,0.02711 0.03376,0.06828 0.03873,0.09148 0.005,0.0232 0.009,0.0697 0.009,0.103343 0,0.03364 -0.0075,0.09174 -0.01656,0.129114 -0.0091,0.03737 -0.02649,0.09662 -0.0387,0.131654 -0.01221,0.03504 -0.04107,0.135474 -0.06412,0.223192 -0.02305,0.08772 -0.05363,0.189873 -0.06795,0.22701 -0.01432,0.03714 -0.04234,0.08959 -0.06227,0.116561 -0.01993,0.02697 -0.05232,0.06349 -0.07197,0.08116 -0.01966,0.01766 -0.05375,0.04009 -0.07577,0.04984 -0.02201,0.0098 -0.05308,0.02395 -0.06903,0.03155 -0.01595,0.0076 -0.03623,0.02531 -0.04506,0.03934 -0.01141,0.01813 -0.015,0.03595 -0.01239,0.06156 0.0023,0.02293 0.01254,0.04713 0.02807,0.06651 0.01342,0.01676 0.03146,0.0392 0.04008,0.04988 l 0.01567,0.01941 -0.01432,0.02769 c -0.0092,0.01775 -0.01303,0.04027 -0.01074,0.06272 0.002,0.01927 0.01378,0.0689 0.02625,0.110303 0.01247,0.0414 0.02253,0.09491 0.02237,0.118914 -1.7e-4,0.024 -0.0058,0.06658 -0.01261,0.0946 -0.0068,0.02803 -0.01217,0.05479 -0.01201,0.05946 1.61e-4,0.0047 0.01593,-0.02208 0.03503,-0.05946 0.01911,-0.03737 0.06612,-0.138662 0.104466,-0.225087 z m -3.299186,0.147696 c 0.02537,-0.0075 0.06525,-0.02335 0.0886,-0.03515 0.02336,-0.0118 0.0654,-0.03689 0.09343,-0.05575 0.02803,-0.01886 0.08099,-0.06324 0.1177,-0.09863 0.0367,-0.03539 0.08408,-0.08853 0.105266,-0.11809 0.02119,-0.02956 0.04745,-0.07543 0.05835,-0.101926 0.01205,-0.0293 0.01989,-0.06587 0.02002,-0.09333 1.11e-4,-0.02483 -0.0042,-0.0535 -0.0095,-0.0637 -0.0053,-0.0102 -0.02314,-0.03384 -0.03955,-0.05253 -0.01641,-0.01869 -0.09517,-0.104659 -0.175022,-0.19105 -0.07985,-0.08639 -0.261769,-0.281549 -0.404253,-0.433686 -0.142485,-0.152137 -0.268201,-0.286762 -0.27937,-0.299167 l -0.02031,-0.02256 0.06728,-0.07462 c 0.037,-0.04104 0.08671,-0.09756 0.110453,-0.125588 0.02375,-0.02803 0.08648,-0.108296 0.139407,-0.17837 0.05293,-0.07007 0.138924,-0.192386 0.191103,-0.271803 0.05218,-0.07942 0.117854,-0.184529 0.145947,-0.233581 0.02809,-0.04905 0.07061,-0.128194 0.09449,-0.175872 0.02388,-0.04768 0.06612,-0.139765 0.09387,-0.204638 0.02775,-0.06487 0.07141,-0.180665 0.09703,-0.257315 0.02562,-0.07665 0.06202,-0.200518 0.0809,-0.2752636 0.01888,-0.07475 0.04395,-0.189413 0.05573,-0.254815 0.01178,-0.0654 0.02714,-0.164781 0.03413,-0.22084 0.007,-0.05606 0.01717,-0.161171 0.02259,-0.233581 0.0061,-0.08199 0.008,-0.222969 0.0051,-0.37373 -0.0026,-0.133141 -0.0106,-0.293674 -0.01769,-0.356741 -0.0071,-0.06307 -0.01887,-0.1548 -0.02617,-0.203852 -0.0073,-0.04905 -0.02297,-0.138875 -0.03481,-0.199606 -0.01184,-0.06073 -0.0364,-0.169664 -0.05458,-0.242075 -0.01817,-0.07241 -0.04881,-0.1829204 -0.06807,-0.2455789 -0.01933,-0.062654 -0.05441,-0.1658538 -0.07803,-0.2293289 -0.02361,-0.063475 -0.06538,-0.1679501 -0.09282,-0.2321668 C 17.549685,7.1054121 17.494804,6.9880919 17.455165,6.9089171 17.415525,6.8297423 17.350004,6.7083718 17.309562,6.6392047 17.26912,6.5700376 17.200593,6.4599351 17.157281,6.3945325 17.113968,6.3291298 17.041307,6.2259296 16.995811,6.1651986 16.950315,6.1044676 16.866823,5.9994316 16.810272,5.9317854 16.753721,5.8641393 16.640563,5.7404155 16.55881,5.6568438 16.477056,5.5732721 16.368123,5.4676303 16.316735,5.4220844 16.265347,5.3765383 16.170253,5.2968339 16.105414,5.2449635 16.040575,5.1930931 15.935464,5.1146394 15.871833,5.0706219 15.808202,5.0266044 15.706452,4.9602633 15.645721,4.9231972 15.58499,4.8861312 15.485553,4.8288184 15.424749,4.7958357 15.363949,4.7628527 15.255224,4.7083367 15.183149,4.674688 15.111069,4.64104 15.00059,4.592695 14.937631,4.5672557 c -0.06296,-0.025439 -0.180444,-0.068821 -0.261079,-0.096403 -0.08064,-0.027582 -0.208984,-0.067468 -0.285217,-0.088636 -0.07623,-0.021168 -0.207405,-0.053788 -0.291494,-0.072489 -0.08409,-0.018701 -0.223601,-0.045332 -0.310026,-0.059181 -0.08642,-0.013848 -0.206825,-0.030978 -0.267556,-0.038065 -0.06073,-0.00709 -0.165842,-0.017827 -0.233581,-0.023865 -0.07912,-0.00705 -0.264406,-0.010979 -0.518124,-0.010979 -0.255496,0 -0.436954,0.00387 -0.513878,0.010962 -0.0654,0.00603 -0.172425,0.016623 -0.237828,0.023542 -0.0654,0.00692 -0.185418,0.02218 -0.266701,0.033912 -0.08128,0.011733 -0.218884,0.034694 -0.305779,0.051024 -0.0869,0.016331 -0.160861,0.030538 -0.164369,0.031571 -0.0035,0.00103 0.197159,0.00188 0.445927,0.00188 0.293687,0 0.501454,0.00387 0.592454,0.011046 0.07708,0.00608 0.19366,0.016663 0.259062,0.023528 0.0654,0.00687 0.187714,0.0222 0.271803,0.034077 0.08409,0.011877 0.223601,0.034838 0.310026,0.051025 0.08643,0.016186 0.233581,0.048284 0.327013,0.071328 0.09343,0.023043 0.233181,0.061013 0.310551,0.084376 0.07737,0.023363 0.204106,0.065546 0.281633,0.09374 0.07753,0.028194 0.19578,0.074517 0.262784,0.1029408 0.067,0.028424 0.196501,0.08899 0.287772,0.1345906 0.09127,0.045601 0.225049,0.1183937 0.297285,0.1617616 0.07224,0.043368 0.173381,0.1075615 0.224769,0.1426522 0.05139,0.035091 0.129743,0.090975 0.174124,0.124188 0.04438,0.033213 0.126299,0.09831 0.182042,0.1446598 0.05574,0.04635 0.160376,0.1419213 0.232518,0.2123801 0.07214,0.070459 0.166344,0.1682403 0.209339,0.2172922 0.043,0.049052 0.108456,0.1274077 0.145471,0.1741239 0.03701,0.046716 0.09907,0.1297701 0.137906,0.1845642 0.03884,0.054794 0.107125,0.1599056 0.151758,0.2335808 0.04463,0.073675 0.118646,0.2103997 0.164476,0.303832 0.04583,0.093432 0.108063,0.2329438 0.138296,0.3100254 0.03023,0.077082 0.06906,0.1841042 0.08629,0.2378278 0.01723,0.053724 0.04799,0.1626572 0.06836,0.2420746 0.02037,0.079418 0.04689,0.1955615 0.05893,0.2580977 0.01204,0.06254 0.02936,0.173381 0.03848,0.246322 0.0091,0.07294 0.02048,0.18613 0.02523,0.251533 0.0048,0.0654 0.0086,0.193447 0.0086,0.284544 0,0.0911 -0.0039,0.219141 -0.0087,0.284544 -0.0048,0.0654 -0.01638,0.177999 -0.0258,0.250214 -0.0094,0.07222 -0.02674,0.18115 -0.0385,0.242075 -0.01176,0.06092 -0.03691,0.171929 -0.05591,0.246675 -0.019,0.07475 -0.05731,0.202509 -0.08513,0.283918 -0.02783,0.08141 -0.07351,0.2018086 -0.10151,0.2675556 -0.028,0.06575 -0.08081,0.177392 -0.117343,0.248099 -0.03654,0.07071 -0.09959,0.181677 -0.140131,0.246601 -0.04054,0.06492 -0.109857,0.166927 -0.154047,0.226675 -0.04419,0.05975 -0.08394,0.1074 -0.08834,0.105894 -0.0044,-0.0015 -0.110129,-0.109762 -0.234962,-0.240567 C 15.799754,10.697515 15.559857,10.447159 15.391481,10.271974 15.223105,10.096788 14.955339,9.8197044 14.796444,9.6562314 14.63755,9.4927584 14.306878,9.1548534 14.061619,8.9053304 13.816359,8.6558074 13.46462,8.3041344 13.279977,8.1238344 13.095334,7.9435354 12.877467,7.7331922 12.795828,7.656406 12.714189,7.5796198 12.583371,7.4598449 12.505121,7.3902396 12.426871,7.3206343 12.362849,7.2611577 12.362849,7.2580693 c 0,-0.00309 0.279664,-0.2852986 0.621476,-0.6271339 L 13.6058,6.0094167 13.53855,5.9465747 C 13.50156,5.9120117 13.431824,5.8471987 13.383578,5.8025461 l -0.08772,-0.081186 -0.07366,-0.00557 c -0.04051,-0.00307 -0.238018,-0.016731 -0.438897,-0.030368 -0.20088,-0.013637 -0.518561,-0.035193 -0.705958,-0.047902 L 11.736614,5.6144091 11.380841,5.9457192 C 11.185166,6.1279399 10.690623,6.5877606 10.281856,6.9675431 9.8730901,7.3473256 9.5317955,7.66452 9.5234238,7.6724196 l -0.015221,0.014363 0.5858392,0.5794577 0.585838,0.579457 0.558094,-0.516346 c 0.306952,-0.283991 0.563219,-0.5163464 0.569482,-0.5163464 0.0063,0 0.08888,0.080476 0.183588,0.1788364 0.09471,0.09836 0.512378,0.532205 0.928152,0.964102 0.415774,0.431896 0.97412,1.012666 1.240769,1.2905997 0.266649,0.277933 0.682316,0.711711 0.923705,0.963952 0.24139,0.252241 0.43889,0.46071 0.43889,0.463265 0,0.0026 -0.0544,0.03861 -0.120884,0.08012 -0.06649,0.04151 -0.16682,0.09945 -0.222964,0.128741 -0.05614,0.0293 -0.147945,0.07304 -0.204005,0.09721 -0.05606,0.02417 -0.163082,0.06417 -0.237828,0.0889 -0.07475,0.02473 -0.183679,0.0566 -0.242074,0.07084 -0.0584,0.01424 -0.150129,0.03365 -0.203853,0.04314 -0.05372,0.0095 -0.147368,0.02332 -0.208099,0.03073 -0.06073,0.0074 -0.202505,0.0156 -0.315053,0.0182 -0.125409,0.0029 -0.258589,7.81e-4 -0.344001,-0.0055 -0.07665,-0.0056 -0.19479,-0.01754 -0.262528,-0.02652 -0.06774,-0.009 -0.163649,-0.02377 -0.213135,-0.03288 -0.04949,-0.0091 -0.134877,-0.02663 -0.189758,-0.03894 -0.05488,-0.01231 -0.155815,-0.03769 -0.224298,-0.0564 -0.06848,-0.01871 -0.178026,-0.0514 -0.243429,-0.07264 -0.0654,-0.02124 -0.183891,-0.06351 -0.263309,-0.09393 -0.07942,-0.03042 -0.201571,-0.08005 -0.271453,-0.110269 -0.06988,-0.03022 -0.192193,-0.08637 -0.271803,-0.124756 -0.07961,-0.03839 -0.213546,-0.107332 -0.297635,-0.153202 -0.08409,-0.04587 -0.217867,-0.122389 -0.297284,-0.170041 -0.07942,-0.04765 -0.177696,-0.107312 -0.218395,-0.132576 -0.0407,-0.02526 -0.07414,-0.05016 -0.07432,-0.05533 -1.76e-4,-0.0052 0.01244,-0.02619 0.02803,-0.04672 0.01559,-0.02053 0.04482,-0.06154 0.06495,-0.09114 l 0.0366,-0.05382 -0.08831,-0.08906 c -0.04857,-0.04898 -0.114228,-0.112223 -0.145911,-0.140533 l -0.0576,-0.05147 -0.08367,0.05571 -0.08367,0.05571 -0.02436,-0.02582 c -0.01339,-0.0142 -0.08075,-0.07729 -0.149685,-0.140206 l -0.1253299,-0.114389 -0.02068,0.01554 c -0.01138,0.0085 -0.08344,0.06714 -0.160145,0.130207 l -0.1394614,0.114667 0.049975,0.05521 c 0.027486,0.03036 0.089964,0.09916 0.1388384,0.152889 0.04888,0.05372 0.08892,0.100136 0.08898,0.103139 6.8e-5,0.003 -0.128883,0.116056 -0.2865502,0.251227 -0.157667,0.135171 -0.380312,0.329543 -0.4947666,0.431939 -0.1144546,0.102395 -0.2756171,0.253078 -0.3581388,0.33485 -0.1029862,0.10205 -0.163375,0.169337 -0.1925623,0.214562 -0.023387,0.03624 -0.051425,0.09166 -0.062307,0.123161 -0.016167,0.0468 -0.019725,0.07435 -0.019462,0.150706 2.726e-4,0.07909 0.00377,0.102995 0.022757,0.155731 0.012339,0.03426 0.035119,0.08395 0.050621,0.11042 0.015502,0.02647 0.064588,0.08479 0.1090804,0.129603 l 0.080894,0.08148 0.080509,0.03989 c 0.052691,0.02611 0.105078,0.04471 0.1516142,0.05384 0.057961,0.01137 0.082685,0.01228 0.133746,0.0049 0.034452,-0.005 0.08332,-0.01914 0.1085954,-0.03151 0.025275,-0.01237 0.074014,-0.04764 0.1083086,-0.0784 0.034294,-0.03075 0.082837,-0.07938 0.1078728,-0.10806 0.025035,-0.02868 0.088611,-0.109482 0.1412792,-0.179556 0.052668,-0.07008 0.1682093,-0.232519 0.2567573,-0.360989 0.08855,-0.128469 0.2498679,-0.36447 0.3584879,-0.524447 0.108619,-0.159976 0.201163,-0.293136 0.205652,-0.295911 0.0045,-0.0028 0.05559,0.04443 0.113559,0.1049 0.05797,0.06047 0.154299,0.154118 0.214068,0.208108 0.05977,0.05399 0.147127,0.130121 0.194128,0.169181 0.047,0.03906 0.135229,0.107905 0.196063,0.152989 0.06083,0.04508 0.15998,0.114177 0.220323,0.153541 0.06034,0.03937 0.15176,0.09576 0.203147,0.125312 0.05139,0.02956 0.156499,0.08512 0.233581,0.123482 0.07708,0.03836 0.177116,0.08541 0.222299,0.104567 0.04518,0.01915 0.127443,0.05167 0.182801,0.07227 0.05536,0.0206 0.150257,0.05298 0.210888,0.07197 0.06063,0.01899 0.161836,0.04791 0.224903,0.06428 0.06307,0.01637 0.162445,0.0393 0.22084,0.05097 0.0584,0.01167 0.155862,0.02887 0.216593,0.03822 0.06073,0.0094 0.171576,0.0237 0.246322,0.03188 0.106019,0.0116 0.210608,0.01492 0.475655,0.0151 l 0.339754,2.2e-4 0.144396,-0.01965 c 0.07942,-0.01081 0.201728,-0.03095 0.271803,-0.04476 0.07007,-0.01381 0.184741,-0.04018 0.254815,-0.05861 0.07007,-0.01842 0.188563,-0.05409 0.263309,-0.07926 0.07475,-0.02517 0.185591,-0.06576 0.246322,-0.0902 0.06073,-0.02444 0.183042,-0.0801 0.271803,-0.123694 0.08876,-0.04359 0.214894,-0.111272 0.280297,-0.150399 0.0654,-0.03913 0.154583,-0.09516 0.198178,-0.124509 l 0.07926,-0.05337 0.01751,0.01555 c 0.0096,0.0086 0.186341,0.193285 0.39269,0.410515 0.206351,0.21723 0.408524,0.431275 0.449274,0.475656 0.04075,0.04438 0.08446,0.0853 0.09713,0.09092 0.01267,0.0056 0.0405,0.01041 0.06185,0.01062 0.02134,2.12e-4 0.05956,-0.0058 0.08494,-0.01331 z m -3.577137,-1.419649 c 0.0233,-0.07358 0.05621,-0.180117 0.07314,-0.236752 l 0.03078,-0.102973 -0.02954,-0.08814 c -0.01625,-0.04848 -0.03211,-0.105339 -0.03526,-0.126361 -0.0031,-0.02102 -0.01309,-0.06021 -0.0221,-0.0871 -0.009,-0.02688 -0.01636,-0.06319 -0.01633,-0.08069 0,-0.0175 0.0041,-0.04626 0.009,-0.0639 0.0049,-0.01765 0.02074,-0.04555 0.03519,-0.06201 0.01445,-0.01646 0.03813,-0.03604 0.05262,-0.04352 0.01449,-0.0075 0.04081,-0.03 0.0585,-0.05005 0.01769,-0.02006 0.03966,-0.03885 0.04884,-0.04176 0.0092,-0.0029 0.01668,-0.0103 0.01668,-0.01642 0,-0.0061 0.0052,-0.01543 0.01151,-0.02068 0.0063,-0.0053 0.0202,-0.03917 0.03081,-0.07536 0.01062,-0.03619 0.02296,-0.07041 0.02743,-0.07603 0.0045,-0.0056 0.01333,-0.02752 0.01969,-0.04867 l 0.01157,-0.03845 -0.01286,-0.04052 c -0.0071,-0.02229 -0.01796,-0.05007 -0.02421,-0.06175 -0.0062,-0.01168 -0.018,-0.04417 -0.02612,-0.0722 -0.0081,-0.02803 -0.02282,-0.06243 -0.03267,-0.07644 -0.0098,-0.01401 -0.01879,-0.03005 -0.01988,-0.03564 -0.0011,-0.0056 -0.0087,-0.02088 -0.01699,-0.03398 l -0.01502,-0.02381 -0.151933,-0.0019 c -0.08357,-0.001 -0.164868,-0.0061 -0.180677,-0.01134 -0.01706,-0.0056 -0.0373,-0.02208 -0.04979,-0.04047 -0.0116,-0.01707 -0.02105,-0.04322 -0.02105,-0.05824 0,-0.01499 -0.0038,-0.02959 -0.0084,-0.03244 -0.0046,-0.0029 -0.01843,-0.02231 -0.03069,-0.04323 -0.01226,-0.02092 -0.02473,-0.05785 -0.02771,-0.08207 l -0.0054,-0.04402 -0.02874,-0.0082 -0.02874,-0.0082 -0.03289,0.03526 c -0.01809,0.01939 -0.04147,0.03987 -0.05195,0.04551 -0.01048,0.0056 -0.03243,0.01319 -0.04878,0.01678 -0.01635,0.0036 -0.04538,0.0112 -0.06452,0.01691 l -0.03479,0.01038 -0.0459,-0.01568 c -0.03287,-0.01123 -0.0652,-0.01505 -0.113852,-0.01345 -0.04395,0.0014 -0.07269,0.0065 -0.08136,0.01428 -0.0074,0.0066 -0.02017,0.01205 -0.02842,0.01205 -0.0083,0 -0.03602,0.0061 -0.0617,0.01357 l -0.04669,0.01357 -0.05654,-0.01466 c -0.03766,-0.0098 -0.08348,-0.01412 -0.137232,-0.01303 -0.05118,10e-4 -0.08723,0.0059 -0.09856,0.01321 -0.0098,0.0064 -0.03187,0.01421 -0.04899,0.01742 -0.01749,0.0033 -0.03809,0.0147 -0.04704,0.02607 -0.0088,0.01113 -0.02246,0.04796 -0.03046,0.08184 -0.0083,0.03499 -0.0215,0.0677 -0.03065,0.07571 -0.0121,0.01059 -0.0161,0.02557 -0.0161,0.06016 v 0.04606 l -0.03452,0.02774 -0.03453,0.02774 -0.03042,-0.0057 c -0.01673,-0.0031 -0.03864,-0.01109 -0.04869,-0.01768 -0.0133,-0.0087 -0.02856,-0.01016 -0.05609,-0.0053 -0.0208,0.0037 -0.05489,0.0036 -0.07575,-2.38e-4 -0.02086,-0.0038 -0.0518,-0.01606 -0.06875,-0.02728 -0.01695,-0.01121 -0.03753,-0.03455 -0.04575,-0.05186 -0.0096,-0.02016 -0.01308,-0.04075 -0.0098,-0.05729 0.0028,-0.0142 0.01904,-0.0472 0.03599,-0.07334 0.01696,-0.02613 0.04367,-0.06663 0.05936,-0.08999 l 0.02853,-0.04247 -7.38e-4,-0.06897 c -5.28e-4,-0.04929 0.0034,-0.07716 0.01374,-0.09768 0.008,-0.01579 0.02486,-0.04017 0.03754,-0.05419 0.01268,-0.01402 0.02725,-0.04003 0.03238,-0.05781 l 0.0093,-0.03233 -0.02059,-0.0094 c -0.01132,-0.0052 -0.02059,-0.01284 -0.02059,-0.01707 0,-0.0042 0.004,-0.01508 0.0088,-0.02412 l 0.0088,-0.01643 h -0.03943 c -0.0308,0 -0.0384,-0.0027 -0.03474,-0.01221 0.0026,-0.0067 0.0087,-0.02702 0.01355,-0.04512 0.0074,-0.02763 0.0062,-0.03823 -0.008,-0.06603 -0.0093,-0.01822 -0.01689,-0.03763 -0.01689,-0.04314 0,-0.0055 -0.0092,-0.01234 -0.02047,-0.01516 l -0.02047,-0.0051 0.01188,-0.04462 c 0.0065,-0.02454 0.01192,-0.05139 0.01198,-0.05967 5.9e-5,-0.0083 -0.0099,-0.03023 -0.02222,-0.04878 l -0.02232,-0.03373 0.0053,-0.04041 c 0.0029,-0.02223 0.0088,-0.06716 0.01301,-0.09987 0.0042,-0.0327 0.0071,-0.05991 0.0064,-0.06045 -7.16e-4,-5.48e-4 -0.01506,-0.0035 -0.03187,-0.0065 l -0.03057,-0.0055 -0.01918,0.0646 c -0.01055,0.03553 -0.02115,0.07935 -0.02357,0.09738 -0.0025,0.01891 0.003,0.06442 0.01313,0.107549 0.0096,0.04112 0.0196,0.104124 0.02214,0.140011 0.0025,0.03589 0.01009,0.07984 0.01678,0.09768 0.0067,0.01784 0.02256,0.05918 0.03526,0.09189 l 0.02309,0.05946 6.28e-4,0.131655 c 3.98e-4,0.08362 -0.0032,0.142765 -0.0098,0.162105 -0.0057,0.01675 -0.02123,0.04078 -0.0344,0.05341 -0.01318,0.01262 -0.03794,0.02522 -0.05503,0.028 -0.01875,0.003 -0.05212,-8.44e-4 -0.08414,-0.0098 -0.02919,-0.0082 -0.05528,-0.01834 -0.05799,-0.02263 -0.0027,-0.0043 -0.02561,0.0018 -0.05091,0.01351 -0.02529,0.01172 -0.06166,0.02365 -0.08081,0.02653 -0.01916,0.0029 -0.04891,0.0013 -0.06612,-0.0034 l -0.03129,-0.0086 -0.07355,0.02486 c -0.04045,0.01367 -0.09016,0.02486 -0.110465,0.02486 -0.02237,0 -0.05315,-0.0082 -0.07815,-0.02089 -0.02268,-0.01149 -0.05521,-0.03722 -0.07228,-0.05717 l -0.03105,-0.03627 0.0054,-0.04303 c 0.0044,-0.03491 0.0018,-0.04985 -0.01344,-0.07913 -0.01402,-0.02691 -0.01764,-0.04489 -0.01418,-0.07062 0.0029,-0.02152 0.01341,-0.04369 0.02795,-0.05886 0.01282,-0.01339 0.03654,-0.0287 0.05271,-0.03404 0.01616,-0.0053 0.04571,-0.0075 0.06567,-0.0047 0.01995,0.0027 0.05865,0.0151 0.086,0.02747 0.02735,0.01237 0.0724,0.0316 0.100114,0.04273 0.02772,0.01113 0.05977,0.02885 0.07124,0.03937 0.01516,0.01391 0.02192,0.01611 0.0248,0.008 0.0022,-0.0061 0.0086,-0.01543 0.01426,-0.02073 0.0081,-0.0076 0.008,-0.01617 -4.93e-4,-0.03987 -0.0059,-0.01663 -0.01098,-0.0408 -0.01118,-0.05372 -2.05e-4,-0.01292 -0.01148,-0.0435 -0.02505,-0.06795 -0.01357,-0.02445 -0.02735,-0.05784 -0.03062,-0.07419 -0.0033,-0.01635 -0.01928,-0.06031 -0.03557,-0.09768 -0.01629,-0.03737 -0.035,-0.096 -0.04158,-0.130279 -0.0066,-0.03428 -0.01193,-0.08397 -0.01191,-0.11042 2.5e-5,-0.02645 0.0038,-0.07079 0.0083,-0.09853 0.0045,-0.02774 0.007,-0.0517 0.0055,-0.05323 -0.0015,-0.0015 -0.01832,0.02123 -0.03731,0.05059 -0.02205,0.0341 -0.04671,0.06023 -0.06826,0.07234 -0.01856,0.01043 -0.04086,0.01902 -0.04957,0.01909 -0.0087,6.8e-5 -0.02084,0.0033 -0.02696,0.0072 -0.0061,0.0039 -0.01502,0.03512 -0.01977,0.06941 -0.0048,0.03429 -0.01782,0.08046 -0.02904,0.102602 -0.01122,0.02214 -0.04496,0.06593 -0.07498,0.09731 -0.0316,0.03303 -0.05939,0.05521 -0.066,0.05267 -0.0089,-0.0034 -0.01142,0.0084 -0.01142,0.05265 v 0.05703 l -0.03189,0.06292 -0.03189,0.06292 3.4e-5,0.08651 c 1.7e-5,0.04758 -0.004,0.09727 -0.009,0.1104194 -0.005,0.01315 -0.02083,0.03616 -0.03526,0.05112 -0.01444,0.01497 -0.03709,0.02959 -0.05034,0.03251 -0.01325,0.0029 -0.02609,0.0085 -0.02853,0.01246 -0.0024,0.0039 0.01567,0.01868 0.04025,0.03274 0.02457,0.01407 0.055,0.03636 0.06762,0.04954 0.01262,0.01318 0.03881,0.05835 0.05822,0.100381 0.01941,0.04203 0.03966,0.07923 0.04501,0.08266 0.0054,0.0034 0.02144,0.0063 0.03575,0.0064 0.01788,8.5e-5 0.03382,0.0083 0.05096,0.02627 0.01372,0.01438 0.05744,0.05041 0.09715,0.08008 0.03971,0.02967 0.09541,0.08002 0.123771,0.111889 0.02836,0.03187 0.08223,0.09616 0.119707,0.142881 0.03747,0.04672 0.07454,0.09024 0.08236,0.09673 l 0.01423,0.01179 0.0173,-0.01566 0.0173,-0.01566 0.129058,-0.0014 c 0.07098,-7.56e-4 0.135602,-0.0041 0.1436,-0.0075 0.008,-0.0034 0.01686,-0.01346 0.01969,-0.02238 0.0028,-0.0089 0.01158,-0.01958 0.01943,-0.0237 0.0079,-0.0041 0.0429,-0.01226 0.07787,-0.01808 0.03735,-0.0062 0.09093,-0.0085 0.129891,-0.0055 0.03741,0.0029 0.08316,0.01257 0.104968,0.02221 0.02126,0.0094 0.0598,0.03642 0.08564,0.06004 0.02584,0.02362 0.102886,0.0801 0.171206,0.125518 l 0.124219,0.08257 0.295443,0.08395 0.295443,0.08395 0.04364,0.0476 c 0.024,0.02618 0.06193,0.07555 0.08429,0.109706 0.02236,0.03416 0.04996,0.08194 0.06134,0.106173 0.01138,0.02424 0.02672,0.06201 0.03408,0.08394 0.0074,0.02193 0.01697,0.06208 0.02134,0.08921 0.0044,0.02714 0.0059,0.07465 0.0034,0.105592 l -0.0045,0.05625 -0.04351,0.0052 c -0.02393,0.0029 -0.08938,0.0054 -0.145441,0.0055 l -0.101926,3.06e-4 -0.01999,0.03243 c -0.01099,0.01784 -0.03202,0.03957 -0.04672,0.04829 l -0.02673,0.01586 0.0637,0.01079 c 0.03504,0.0059 0.116993,0.01695 0.182124,0.02447 0.06513,0.0075 0.174064,0.01656 0.242074,0.02009 0.06801,0.0035 0.126401,0.007 0.129756,0.0077 0.0034,7.05e-4 0.02516,-0.05891 0.04846,-0.132492 z m -1.124016,-0.05521 c -0.003,-0.01051 -0.0078,-0.03695 -0.01059,-0.05875 -0.004,-0.03083 -0.0091,-0.04072 -0.02314,-0.04448 -0.0099,-0.0027 -0.02773,-0.0049 -0.0396,-0.0049 -0.01444,-8.5e-5 -0.03392,0.01245 -0.05881,0.03781 l -0.03722,0.03792 0.01553,0.006 c 0.0085,0.0033 0.04456,0.01462 0.08004,0.0252 0.03548,0.01058 0.06783,0.0195 0.07187,0.01982 0.004,3.15e-4 0.0049,-0.008 0.0019,-0.01853 z m 2.642864,-0.204413 0.01904,-0.01058 -0.07123,-0.07086 -0.07123,-0.07086 0.0045,0.05838 c 0.0025,0.03211 0.0077,0.06467 0.01167,0.07236 0.004,0.0077 0.02162,0.0178 0.03923,0.02248 0.01761,0.0047 0.03585,0.0088 0.04052,0.0091 0.0047,3.14e-4 0.01706,-0.0042 0.02753,-0.01 z m 5.960028,-0.523935 c 0.01175,-0.07708 0.02896,-0.207037 0.03826,-0.28879 0.0093,-0.08175 0.02087,-0.192598 0.02572,-0.246322 0.0048,-0.05372 0.01262,-0.170302 0.01727,-0.259062 0.0047,-0.08876 0.0084,-0.281784 0.0083,-0.4289396 -1.01e-4,-0.147156 -0.0038,-0.326801 -0.0082,-0.399211 -0.0044,-0.07241 -0.01057,-0.171254 -0.01374,-0.219655 l -0.0058,-0.088 -0.01094,0.02602 c -0.006,0.01431 -0.02075,0.04046 -0.03275,0.05812 -0.01752,0.02578 -0.02181,0.04228 -0.02181,0.0838 0,0.02843 -0.0061,0.07235 -0.01363,0.0976 -0.009,0.03015 -0.02464,0.05691 -0.04572,0.07799 -0.01765,0.01765 -0.04114,0.03251 -0.0522,0.03303 -0.01106,5.18e-4 -0.02967,1.2e-4 -0.04134,-8.83e-4 -0.01168,-0.001 -0.03163,-0.0072 -0.04434,-0.01377 -0.01271,-0.0066 -0.02718,-0.01955 -0.03215,-0.02885 -0.005,-0.0093 -0.01178,-0.01689 -0.01512,-0.01688 -0.0033,9e-6 -0.01875,0.01863 -0.03426,0.04137 -0.0155,0.02274 -0.03766,0.04567 -0.04924,0.05095 -0.01158,0.0053 -0.03139,0.0093 -0.04401,0.009 -0.01263,-3.28e-4 -0.03012,-0.0034 -0.03888,-0.0069 -0.0088,-0.0034 -0.02254,-0.01906 -0.03064,-0.03472 l -0.01472,-0.02846 -0.006,0.0687 c -0.0044,0.04999 -0.0021,0.08985 0.0083,0.146319 0.01189,0.0647 0.0126,0.08609 0.0042,0.128567 l -0.01003,0.05095 0.04089,0.0465 c 0.02249,0.02558 0.05371,0.0636 0.06939,0.08451 0.01766,0.02355 0.05123,0.09852 0.08826,0.197119 0.03287,0.08751 0.06446,0.18205 0.07022,0.21008 0.0058,0.02803 0.02246,0.09874 0.03713,0.157136 0.01467,0.0584 0.03209,0.125284 0.03872,0.148643 0.0066,0.02336 0.01834,0.07687 0.02602,0.118913 0.0077,0.04204 0.02133,0.08836 0.03031,0.102929 0.01237,0.02005 0.01634,0.04218 0.01634,0.09115 0,0.03557 0.0047,0.09184 0.01036,0.125063 0.0057,0.03322 0.01127,0.05718 0.01238,0.05324 0.0011,-0.0039 0.01163,-0.07022 0.02338,-0.147301 z M 20.456315,9.5033574 c 0.0096,-0.01631 0.03007,-0.03732 0.04543,-0.04668 0.01537,-0.0094 0.04268,-0.01705 0.06071,-0.01707 l 0.03277,-3.4e-5 -0.0058,-0.02336 c -0.0032,-0.01285 -0.01339,-0.04056 -0.02268,-0.06158 l -0.01689,-0.03822 -0.0091,0.01699 c -0.005,0.0093 -0.01872,0.02735 -0.03048,0.04002 -0.01402,0.01511 -0.03388,0.0249 -0.05772,0.02848 l -0.03635,0.0055 -0.0054,0.03098 c -0.003,0.01704 -0.01058,0.04053 -0.01696,0.05221 l -0.0116,0.02124 0.02698,0.01 c 0.01484,0.0055 0.02756,0.01026 0.02827,0.01062 7.05e-4,3.55e-4 0.0092,-0.0127 0.01878,-0.029 z m -9.674688,-0.01809 c -0.007,-0.02542 -0.0046,-0.04337 0.01421,-0.103559 0.01667,-0.05347 0.03039,-0.08049 0.05165,-0.101752 0.01592,-0.01592 0.02894,-0.03056 0.02894,-0.03253 0,-0.002 0.0095,-0.01793 0.0211,-0.03546 0.0116,-0.01753 0.03334,-0.03911 0.04829,-0.04795 0.0168,-0.0099 0.04202,-0.01578 0.06596,-0.01532 l 0.03877,7.46e-4 0.01471,-0.03152 c 0.0081,-0.01733 0.03293,-0.05187 0.05521,-0.07674 l 0.0405,-0.04522 0.03822,-3.65e-4 c 0.02102,-2e-4 0.05542,0.0042 0.07644,0.0098 0.02102,0.0056 0.04826,0.01739 0.06053,0.02628 l 0.0223,0.01616 0.01467,-0.03253 c 0.0098,-0.02169 0.01274,-0.04133 0.0089,-0.05893 -0.0037,-0.01676 -0.01098,-0.02636 -0.01999,-0.0263 -0.0078,6e-5 -0.03521,0.0057 -0.06091,0.01264 -0.02569,0.0069 -0.06965,0.0125 -0.09768,0.01245 -0.031,-5.1e-5 -0.06427,-0.0061 -0.08494,-0.01554 -0.01869,-0.0085 -0.05617,-0.03575 -0.0833,-0.06056 l -0.04932,-0.04511 -0.03561,0.03364 c -0.01959,0.0185 -0.08767,0.08215 -0.151292,0.141443 -0.06362,0.05929 -0.119087,0.107804 -0.123257,0.107804 -0.0042,0 -0.0705,-0.06301 -0.147408,-0.140019 l -0.139826,-0.140019 -0.02995,0.02808 c -0.01647,0.01545 -0.04025,0.03444 -0.05282,0.04222 -0.01258,0.0078 -0.06227,0.028 -0.11042,0.04494 -0.04815,0.01695 -0.09915,0.03261 -0.11332,0.03481 -0.01641,0.0025 -0.06577,-0.009 -0.1359009,-0.0318 -0.06057,-0.01969 -0.11491,-0.03762 -0.12075,-0.03985 -0.0068,-0.0026 -0.01062,0.0038 -0.01062,0.01762 0,0.01192 0.0086,0.03157 0.01911,0.04367 0.01212,0.01394 0.03155,0.02387 0.05309,0.02712 0.01869,0.0028 0.05309,0.01862 0.07644,0.03511 0.02336,0.01649 0.07211,0.05513 0.1083279,0.08586 0.04868,0.0413 0.08634,0.06445 0.144395,0.08876 0.0432,0.01809 0.103382,0.04012 0.133747,0.04896 0.03037,0.0088 0.07096,0.01988 0.09022,0.02452 l 0.03501,0.0084 0.0055,0.0415 c 0.003,0.02283 0.01344,0.05159 0.02313,0.06391 0.0097,0.01232 0.0335,0.03066 0.05292,0.04076 0.01941,0.0101 0.07543,0.03084 0.124481,0.04609 0.04905,0.01525 0.09366,0.02791 0.09912,0.02812 0.0073,2.86e-4 0.0077,-0.0077 0.0014,-0.03036 z m 10.084454,-0.44915 c 0.01751,-0.03737 0.04139,-0.09662 0.05305,-0.131655 0.01167,-0.03504 0.02721,-0.09307 0.03455,-0.128968 0.0073,-0.0359 0.01708,-0.117485 0.02164,-0.18131 0.0053,-0.07434 0.0054,-0.161549 2.29e-4,-0.242655 -0.0044,-0.06963 -0.01595,-0.181069 -0.02558,-0.24763 -0.0096,-0.06656 -0.03073,-0.176442 -0.04686,-0.24418 -0.01614,-0.067738 -0.03316,-0.1365389 -0.03782,-0.1528895 -0.0047,-0.016351 -0.01835,-0.045017 -0.03042,-0.063704 -0.01207,-0.018686 -0.01923,-0.026331 -0.01592,-0.016988 0.0033,0.00934 0.0092,0.060706 0.01305,0.1141382 0.0039,0.053433 0.01115,0.1243473 0.01619,0.1575883 0.005,0.03324 0.0147,0.08126 0.02147,0.106702 0.0071,0.02671 0.01224,0.08396 0.01215,0.135449 -9.4e-5,0.04905 -0.0038,0.117115 -0.0082,0.151252 -0.0044,0.03414 -0.01406,0.07974 -0.0214,0.101348 -0.0073,0.02161 -0.01711,0.09305 -0.02173,0.158774 -0.0046,0.06572 -0.01207,0.15007 -0.01656,0.187443 -0.0055,0.04613 -0.01663,0.08522 -0.03453,0.121745 -0.017,0.03469 -0.03755,0.06175 -0.05785,0.07621 l -0.03149,0.02242 0.02762,0.02762 c 0.01589,0.01589 0.0337,0.0469 0.04193,0.07302 l 0.01431,0.04541 0.03017,-5.93e-4 0.03017,-5.93e-4 0.03184,-0.06795 z m -7.365056,-1.008384 c 0,-0.0052 0.01903,-0.03741 0.04229,-0.07169 0.02326,-0.03428 0.04995,-0.07735 0.05932,-0.0957 0.0094,-0.01835 0.02664,-0.06656 0.0384,-0.1071289 0.01176,-0.040569 0.02138,-0.075462 0.02138,-0.077539 0,-0.00208 -0.01158,0.00306 -0.02574,0.011426 -0.01415,0.00836 -0.03804,0.027939 -0.05309,0.043506 l -0.02735,0.028303 0.0021,0.074912 0.0021,0.07491 -0.04882,0.0059 c -0.02685,0.0033 -0.06741,0.0099 -0.09014,0.01463 l -0.04132,0.0087 0.05341,0.05389 c 0.02937,0.02964 0.05657,0.05194 0.06043,0.04955 0.0039,-0.0024 0.007,-0.0085 0.007,-0.01369 z m 7.313202,-0.4270746 c 0,-0.00234 -0.0019,-0.00425 -0.0042,-0.00425 -0.0023,0 -0.0042,0.00191 -0.0042,0.00425 0,0.00234 0.0019,0.00425 0.0042,0.00425 0.0023,0 0.0042,-0.00191 0.0042,-0.00425 z m -5.597866,-0.1903886 0.0069,-0.012018 0.0504,0.014141 c 0.02772,0.00778 0.05302,0.014141 0.05621,0.014141 0.0032,0 0.0058,-0.012016 0.0058,-0.026703 v -0.026703 l 0.06891,0.00575 c 0.0379,0.00316 0.07949,0.011217 0.09242,0.017902 l 0.02351,0.012155 0.05193,-0.050657 c 0.03808,-0.037143 0.05817,-0.050643 0.07533,-0.050604 0.01287,2.55e-5 0.03326,0.0052 0.04531,0.011485 l 0.02191,0.011433 -0.0038,-0.090053 c -0.0021,-0.049529 -0.0072,-0.096491 -0.01129,-0.1043589 -0.0041,-0.00787 -0.0074,-0.034624 -0.0074,-0.059457 0,-0.024833 0.0072,-0.068704 0.01598,-0.097491 0.0088,-0.028787 0.0221,-0.061171 0.02966,-0.071964 0.0076,-0.010794 0.01375,-0.033369 0.01375,-0.050168 0,-0.016799 0.006,-0.050818 0.01338,-0.075598 0.0097,-0.032664 0.02483,-0.056509 0.05503,-0.086707 0.02291,-0.022909 0.04569,-0.049195 0.05062,-0.058414 0.0049,-0.00922 0.01361,-0.016784 0.01929,-0.016812 0.0057,-2.55e-5 0.04759,-0.035648 0.09313,-0.079154 0.04555,-0.043506 0.08282,-0.083336 0.08282,-0.088511 0,-0.00517 0.0057,-0.010645 0.01277,-0.012155 0.0089,-0.00192 -0.01322,-0.037339 -0.07338,-0.1174131 -0.04739,-0.063068 -0.102992,-0.134391 -0.123569,-0.1584965 l -0.03741,-0.043828 -0.02047,0.02047 c -0.01126,0.011259 -0.02469,0.02047 -0.02985,0.02047 -0.0052,0 -0.007,-0.00382 -0.0041,-0.00849 0.0029,-0.00467 0.0012,-0.00849 -0.0037,-0.00849 -0.0049,0 -0.009,0.00289 -0.009,0.00643 0,0.00353 -0.01433,0.010915 -0.03185,0.016402 -0.01752,0.00549 -0.03887,0.012687 -0.04745,0.016 -0.0126,0.00487 -0.01505,0.00245 -0.01274,-0.012537 0.0024,-0.015447 -0.005,-0.021774 -0.04386,-0.037716 -0.02569,-0.010536 -0.07156,-0.037513 -0.101926,-0.05995 -0.03037,-0.022437 -0.05521,-0.044014 -0.05521,-0.047949 0,-0.00393 0.03057,-0.038385 0.06794,-0.076555 l 0.06794,-0.069401 -0.07218,-0.068553 c -0.03979,-0.037716 -0.118139,-0.1067815 -0.174198,-0.1534912 -0.05606,-0.04671 -0.136326,-0.1104508 -0.178371,-0.141647 -0.04204,-0.031196 -0.122311,-0.087269 -0.178371,-0.1246062 -0.05606,-0.037337 -0.141439,-0.091651 -0.189733,-0.1206972 -0.05693,-0.03424 -0.09277,-0.050859 -0.101927,-0.047258 -0.0078,0.00305 -0.05233,0.01289 -0.09904,0.021857 -0.05251,0.010082 -0.122203,0.016375 -0.182617,0.016491 -0.08052,1.537e-4 -0.104417,0.00328 -0.135919,0.017753 -0.02102,0.00966 -0.07405,0.028689 -0.117835,0.042283 -0.04379,0.013594 -0.08715,0.024716 -0.09636,0.024716 -0.0092,0 -0.05556,0.013097 -0.103005,0.029105 -0.05104,0.017223 -0.117469,0.032411 -0.162704,0.037203 l -0.07644,0.0081 -0.04979,0.030343 c -0.02739,0.016689 -0.07044,0.03463 -0.09568,0.03987 -0.02856,0.00593 -0.07475,0.00727 -0.122336,0.00355 -0.06405,-0.00501 -0.08297,-0.00343 -0.116666,0.00977 l -0.04022,0.015753 0.02686,0.00446 c 0.02057,0.00342 0.08683,0.060074 0.282834,0.2418508 l 0.25597,0.2373872 -0.49518,0.4961286 -0.49518,0.4961286 0.05096,-0.0044 c 0.03567,-0.00308 0.06788,-0.013305 0.107331,-0.034072 0.031,-0.016319 0.07687,-0.033578 0.101926,-0.038354 0.02506,-0.00478 0.06944,-0.01294 0.09863,-0.018144 0.03908,-0.00697 0.0626,-0.00695 0.08919,5.09e-5 0.01986,0.00523 0.04905,0.017023 0.06487,0.026207 l 0.02876,0.016699 0.01796,-0.016287 c 0.01124,-0.010199 0.03572,-0.018004 0.06548,-0.02088 0.02985,-0.00288 0.09126,-0.022515 0.165164,-0.052793 0.08764,-0.035906 0.141339,-0.052185 0.210539,-0.063818 0.07387,-0.01242 0.100057,-0.020729 0.127874,-0.040581 l 0.03498,-0.024964 0.03398,0.012306 c 0.0252,0.00913 0.05701,0.011126 0.123161,0.00774 0.04905,-0.00251 0.11403,-0.010548 0.144395,-0.017853 0.03037,-0.00731 0.104033,-0.016964 0.163705,-0.021464 l 0.108495,-0.00818 0.07837,0.02134 c 0.0431,0.011737 0.0984,0.031225 0.122889,0.043307 0.02653,0.013088 0.05141,0.033107 0.06156,0.04953 0.0094,0.01516 0.02617,0.055797 0.03734,0.090306 0.01117,0.034508 0.02502,0.091176 0.03079,0.1259291 l 0.01049,0.063187 0.04123,0.043597 c 0.02268,0.023978 0.04752,0.058611 0.05521,0.076962 0.0077,0.018351 0.01357,0.051968 0.01307,0.074706 -6.54e-4,0.029799 0.0043,0.048771 0.01766,0.067951 0.01021,0.014635 0.03213,0.042655 0.04871,0.062266 l 0.03015,0.035657 0.0112,-0.014422 c 0.0062,-0.00793 0.01431,-0.01983 0.01811,-0.02644 z M 14.874939,6.2394504 c -0.02217,-0.012809 -0.05009,-0.037719 -0.06203,-0.055357 -0.01195,-0.017637 -0.02725,-0.04774 -0.03401,-0.066895 -0.0068,-0.019155 -0.01229,-0.049028 -0.01229,-0.066385 0,-0.017357 0.0055,-0.049775 0.01218,-0.072042 0.0089,-0.029591 0.0099,-0.046524 0.0035,-0.06293 -0.0049,-0.012791 -0.0063,-0.044369 -0.0031,-0.073409 0.0031,-0.02803 0.0095,-0.069213 0.01422,-0.091518 l 0.0086,-0.040555 0.03535,-0.018004 c 0.01944,-0.0099 0.04843,-0.027964 0.06441,-0.040137 0.01598,-0.012173 0.03701,-0.022774 0.04672,-0.023558 0.0097,-7.84e-4 0.03103,-0.00512 0.04738,-0.00964 0.01635,-0.00452 0.03587,-0.010764 0.04338,-0.013882 0.0099,-0.0041 0.0166,0.00146 0.02431,0.02006 0.0066,0.015826 0.02541,0.033977 0.049,0.047159 0.02109,0.011787 0.04283,0.02143 0.04831,0.02143 0.0055,0 0.02551,0.010074 0.0445,0.022386 0.01899,0.012312 0.04109,0.033508 0.04912,0.047101 0.008,0.013594 0.01453,0.040787 0.01444,0.060429 -8.5e-5,0.019642 -0.0063,0.052788 -0.01372,0.073657 -0.0075,0.020869 -0.02266,0.053358 -0.03377,0.072198 -0.01111,0.01884 -0.03187,0.04535 -0.04614,0.058912 -0.01427,0.013562 -0.02387,0.027998 -0.02135,0.03208 0.0025,0.00408 -0.01402,0.029298 -0.03677,0.056034 -0.02275,0.026736 -0.04794,0.059079 -0.05599,0.071873 -0.008,0.012794 -0.03463,0.034736 -0.05909,0.04876 -0.02445,0.014024 -0.05402,0.025502 -0.06569,0.025508 -0.01168,5.7e-6 -0.03937,-0.01047 -0.06155,-0.023278 z m 1.097795,1.1638933 c 0.03071,-0.00828 0.06708,-0.011068 0.106173,-0.00813 l 0.05946,0.00447 0.07115,-0.035046 c 0.05181,-0.02552 0.08282,-0.035416 0.114101,-0.036409 0.03238,-0.00103 0.04653,-0.00577 0.05746,-0.019276 l 0.0145,-0.017913 -0.01266,-0.036299 c -0.0082,-0.023432 -0.01116,-0.053436 -0.0084,-0.084641 0.0023,-0.026588 0.01441,-0.070542 0.02683,-0.097677 l 0.02259,-0.049335 -0.06509,-0.1295338 c -0.0358,-0.071244 -0.06994,-0.1295338 -0.07587,-0.1295338 -0.0059,0 -0.03375,0.020496 -0.06183,0.045547 -0.02807,0.025051 -0.0605,0.04792 -0.07206,0.050821 -0.01598,0.00401 -0.02104,0.010898 -0.02111,0.028774 -8.5e-5,0.012925 -0.0079,0.058529 -0.01739,0.1013425 -0.0095,0.042813 -0.02675,0.096324 -0.03832,0.1189138 -0.01157,0.022589 -0.0272,0.052539 -0.03473,0.066553 -0.0075,0.014015 -0.01806,0.047568 -0.0234,0.074564 -0.0074,0.037473 -0.0152,0.052993 -0.03292,0.065616 -0.01277,0.00909 -0.03423,0.020812 -0.04769,0.026042 -0.01346,0.00523 -0.05887,0.01233 -0.100912,0.015778 l -0.07645,0.00627 0.02652,0.010367 c 0.0177,0.00692 0.03147,0.02134 0.04139,0.043353 l 0.01487,0.032986 0.04354,-0.0175 c 0.02395,-0.00963 0.06457,-0.023169 0.09026,-0.030098 z m 4.730262,-0.3951308 c -0.0097,-0.024526 -0.0379,-0.094282 -0.06278,-0.1550127 C 20.615345,6.7924692 20.565568,6.6778023 20.529605,6.5983848 20.493642,6.5189673 20.428471,6.3832781 20.384779,6.2968532 20.341088,6.2104283 20.27975,6.0938503 20.248472,6.0377909 20.217196,5.9817315 20.155258,5.874709 20.110834,5.7999631 20.06641,5.7252173 19.987248,5.5987012 19.934919,5.5188162 19.882589,5.4389313 19.794751,5.3108866 19.739722,5.2342723 19.684695,5.1576581 19.599401,5.0433737 19.550182,4.9803069 19.500962,4.91724 19.424459,4.822288 19.380174,4.7693023 19.335888,4.7163166 19.251563,4.6188497 19.192783,4.5527092 19.134003,4.4865687 18.999869,4.3463658 18.894709,4.2411474 18.789547,4.1359288 18.651906,4.0040261 18.588839,3.9480301 18.525772,3.8920343 18.428305,3.8078494 18.372246,3.7609526 18.316187,3.7140559 18.232737,3.6459242 18.186803,3.6095488 l -0.08352,-0.066137 0.0023,0.019829 c 0.0013,0.010906 -0.0023,0.033637 -0.0081,0.050514 -0.0078,0.022914 -0.0184,0.034062 -0.04199,0.044019 -0.01737,0.00733 -0.05642,0.015737 -0.08679,0.018674 -0.03036,0.00294 -0.06355,0.00737 -0.07375,0.00985 -0.0102,0.00248 -0.01678,0.0091 -0.01463,0.014713 0.0023,0.00602 -0.02077,0.022147 -0.05631,0.039344 -0.03313,0.016026 -0.06428,0.034015 -0.06923,0.039977 -0.0068,0.00823 -0.0045,0.01084 0.0095,0.01084 0.01025,0 0.01617,0.00381 0.01325,0.00853 -0.0029,0.00469 0.01313,0.026671 0.03562,0.04884 0.02821,0.027805 0.05876,0.074554 0.09851,0.1507264 0.03673,0.070385 0.06905,0.1206731 0.08916,0.1386988 l 0.03155,0.028279 0.0045,-0.037507 c 0.0025,-0.020629 0.01127,-0.04787 0.01957,-0.060536 0.0083,-0.012666 0.02674,-0.030117 0.04099,-0.038779 0.01424,-0.00866 0.04332,-0.018363 0.06462,-0.021556 0.03252,-0.00488 0.04006,-0.00331 0.04705,0.00978 0.0046,0.00858 0.02697,0.033829 0.04975,0.05612 0.03082,0.030155 0.07344,0.055984 0.166541,0.1009133 0.06882,0.033212 0.137549,0.069638 0.152737,0.080948 0.01519,0.01131 0.03334,0.031642 0.04035,0.045184 0.007,0.013541 0.01273,0.039806 0.01273,0.058366 0,0.023603 -0.0064,0.04133 -0.02123,0.058981 -0.01168,0.01388 -0.02124,0.027923 -0.02124,0.031208 0,0.00328 0.03552,0.042867 0.07892,0.087959 l 0.07893,0.081987 0.08383,0.1528893 c 0.04611,0.084089 0.09871,0.1743628 0.116879,0.2006084 0.01817,0.026245 0.05094,0.060645 0.07281,0.076445 0.02187,0.015799 0.07232,0.049266 0.112099,0.074371 0.05984,0.037765 0.08009,0.046114 0.117243,0.048362 0.02503,0.00151 0.06626,0.012493 0.09316,0.024807 0.02654,0.01215 0.0694,0.037899 0.09524,0.057222 0.02584,0.019322 0.0715,0.056419 0.101461,0.082437 0.02996,0.026018 0.08992,0.086501 0.13324,0.1344073 0.04332,0.047906 0.103267,0.1197436 0.133208,0.159639 0.02994,0.039896 0.07279,0.1052357 0.09523,0.1452006 0.0306,0.054521 0.03808,0.074337 0.02994,0.079368 -0.006,0.00369 -0.04189,0.012798 -0.07983,0.020246 l -0.06898,0.013542 -0.05946,-0.012306 c -0.0342,-0.00708 -0.09553,-0.030408 -0.144396,-0.054927 -0.04672,-0.023442 -0.121249,-0.069728 -0.16563,-0.1028585 -0.04438,-0.033131 -0.115573,-0.094757 -0.158206,-0.1369477 -0.05901,-0.058397 -0.08137,-0.075487 -0.09366,-0.071586 -0.01311,0.00416 -0.01554,0.011504 -0.01291,0.039051 0.0023,0.023729 -0.0021,0.043033 -0.01464,0.064219 -0.0098,0.01666 -0.01787,0.035169 -0.01787,0.041131 0,0.00596 0.01433,0.025294 0.03185,0.042961 0.01752,0.017667 0.06052,0.051473 0.09556,0.075124 0.03504,0.023651 0.07848,0.054745 0.09654,0.069097 l 0.03283,0.026094 -0.0053,0.057957 c -0.0032,0.034675 -0.01724,0.088759 -0.03496,0.1346305 -0.01629,0.04217 -0.02961,0.090045 -0.02961,0.1063889 0,0.016344 0.0057,0.04176 0.01271,0.056481 0.007,0.014721 0.04617,0.065347 0.08706,0.1125025 0.0409,0.047156 0.105054,0.1197779 0.142571,0.1613831 0.03752,0.041605 0.08435,0.097028 0.10407,0.1231611 l 0.03586,0.047515 0.104214,0.051658 c 0.05732,0.028412 0.148086,0.069668 0.201708,0.09168 0.05362,0.022012 0.129103,0.050745 0.167733,0.06385 0.03863,0.013106 0.0845,0.035655 0.101927,0.05011 l 0.03169,0.026282 0.0085,-0.01467 c 0.0047,-0.00807 0.01848,-0.024456 0.03068,-0.036416 l 0.02219,-0.021746 -0.0077,-0.076445 c -0.0042,-0.042045 -0.0066,-0.085658 -0.0052,-0.096919 l 0.0025,-0.020474 0.186864,0.183593 c 0.102776,0.1009761 0.187764,0.1837674 0.188864,0.1839806 0.0011,2.131e-4 -0.0059,-0.019679 -0.01555,-0.044205 z m -3.090949,-0.403346 c 0.02569,-0.031313 0.05956,-0.069608 0.07525,-0.085101 l 0.02853,-0.028168 0.0059,-0.096316 c 0.0043,-0.070472 0.01,-0.1025153 0.02103,-0.1194205 0.0083,-0.012708 0.02625,-0.029428 0.03984,-0.037155 0.01672,-0.00951 0.0248,-0.020907 0.025,-0.035286 1.7e-4,-0.011679 0.0038,-0.069013 0.0081,-0.1274077 0.0046,-0.062714 0.01524,-0.1305104 0.02595,-0.16563 0.01,-0.032701 0.02939,-0.079662 0.04314,-0.1043563 l 0.02501,-0.044899 -0.0299,-0.031545 -0.0299,-0.031545 -8.5e-5,-0.051302 c 0,-0.028216 0.0057,-0.074083 0.01276,-0.1019262 0.0071,-0.027843 0.04337,-0.1112114 0.08069,-0.1852624 0.03732,-0.074051 0.06785,-0.1414288 0.06785,-0.1497285 0,-0.0083 -0.0057,-0.028812 -0.01274,-0.045583 -0.0071,-0.016993 -0.01274,-0.056146 -0.01274,-0.088438 0,-0.03187 0.0057,-0.079957 0.01274,-0.1068604 0.007,-0.026903 0.01274,-0.052551 0.01274,-0.056995 0,-0.00444 -0.0042,-0.00808 -0.0093,-0.00808 -0.0051,0 -0.01996,-0.00759 -0.03298,-0.016856 -0.01302,-0.00927 -0.0313,-0.03316 -0.04063,-0.053087 -0.0093,-0.019927 -0.02515,-0.066209 -0.03516,-0.1028493 -0.01002,-0.03664 -0.02403,-0.077875 -0.03114,-0.091632 -0.0071,-0.013757 -0.03166,-0.03729 -0.05454,-0.052295 -0.02948,-0.019331 -0.06431,-0.058223 -0.119497,-0.1334549 -0.04284,-0.058395 -0.08888,-0.1252842 -0.102323,-0.1486423 -0.01543,-0.026819 -0.02446,-0.054715 -0.02451,-0.075698 -8.5e-5,-0.020385 0.0083,-0.047471 0.02151,-0.070074 0.01187,-0.020265 0.01856,-0.036972 0.01486,-0.037128 -0.0037,-1.555e-4 -0.01569,-0.00775 -0.02664,-0.016873 l -0.01991,-0.01659 0.02471,-0.040461 c 0.01359,-0.022253 0.0274,-0.047649 0.03069,-0.056436 l 0.006,-0.015975 -0.03626,0.00657 c -0.01994,0.00361 -0.09359,0.00889 -0.163667,0.011729 -0.0704,0.00285 -0.188214,8.001e-4 -0.263309,-0.00458 -0.07475,-0.00536 -0.160517,-0.016164 -0.190602,-0.024009 -0.03008,-0.00784 -0.07022,-0.022054 -0.08919,-0.031574 -0.01897,-0.00952 -0.07653,-0.045288 -0.127917,-0.079481 -0.05139,-0.034194 -0.124011,-0.087739 -0.161384,-0.1189889 -0.03737,-0.03125 -0.0836,-0.067589 -0.102732,-0.080753 -0.01913,-0.013164 -0.04747,-0.038392 -0.06299,-0.056063 -0.01552,-0.017671 -0.04028,-0.058181 -0.05503,-0.090023 l -0.02682,-0.057895 -0.05201,-0.031513 c -0.0286,-0.017332 -0.08085,-0.050048 -0.116113,-0.072703 -0.03526,-0.022655 -0.118599,-0.064105 -0.1852,-0.092113 l -0.121082,-0.050922 -0.114667,-0.00821 c -0.06307,-0.00452 -0.150978,-0.015515 -0.195358,-0.024439 -0.04438,-0.00892 -0.124032,-0.027784 -0.177005,-0.041912 -0.05297,-0.014128 -0.0998,-0.027839 -0.10405,-0.030469 -0.0043,-0.00263 -0.0076,-0.00169 -0.0074,0.00209 1.7e-4,0.00378 0.0058,0.016427 0.01244,0.028106 0.0067,0.011679 0.01227,0.038857 0.01244,0.060395 2.12e-4,0.028144 -0.0057,0.047986 -0.02099,0.070531 -0.01611,0.023738 -0.01928,0.035125 -0.01303,0.046801 0.0045,0.00849 0.01196,0.031902 0.01648,0.052033 l 0.0082,0.036603 -0.03011,0.045355 c -0.01656,0.024945 -0.06455,0.077497 -0.106651,0.1167818 l -0.07655,0.071427 -0.02075,-0.00789 c -0.01141,-0.00434 -0.02384,-0.00789 -0.02763,-0.00789 -0.0038,0 8.16e-4,0.015548 0.01022,0.03455 l 0.01709,0.03455 -0.0099,0.032945 c -0.0054,0.01812 -0.01953,0.040539 -0.03133,0.049822 -0.0118,0.00928 -0.02541,0.018197 -0.03025,0.019808 -0.0052,0.00172 5.61e-4,0.023868 0.01386,0.053652 0.01918,0.04294 0.02182,0.057888 0.01722,0.097438 -0.003,0.025694 -0.0063,0.088761 -0.0074,0.1401485 l -0.0019,0.093432 -0.02784,0.076445 c -0.01531,0.042044 -0.02969,0.082178 -0.03195,0.089185 -0.0031,0.00958 0.02604,0.025131 0.117345,0.062654 0.0668,0.027452 0.190255,0.083125 0.274344,0.123717 0.08409,0.040592 0.212134,0.1074717 0.284544,0.1486209 0.07241,0.041149 0.19281,0.1149248 0.267556,0.1639455 0.07475,0.049021 0.185591,0.1264636 0.246322,0.1720953 0.06073,0.045632 0.160109,0.1242679 0.22084,0.1747472 0.06073,0.050479 0.198645,0.179919 0.306475,0.287644 0.107832,0.107725 0.236523,0.2436415 0.285981,0.3020367 0.04946,0.058395 0.125755,0.152441 0.169549,0.2089906 0.04379,0.05655 0.111947,0.149228 0.151453,0.2059517 0.03951,0.056724 0.106228,0.1583669 0.148272,0.2258734 0.04204,0.067507 0.09276,0.1516065 0.112701,0.1868887 0.01994,0.035282 0.03905,0.064084 0.04247,0.064005 0.0034,-7.65e-5 0.02724,-0.025764 0.05293,-0.057077 z M 12.796035,5.4856908 c 0,-0.00234 -0.0019,-0.00425 -0.0042,-0.00425 -0.0023,0 -0.0042,0.00191 -0.0042,0.00425 0,0.00234 0.0019,0.00425 0.0042,0.00425 0.0023,0 0.0042,-0.00191 0.0042,-0.00425 z M 10.521676,4.3252605 c 0.05015,-0.01579 0.09124,-0.031271 0.09131,-0.034404 7.6e-5,-0.00313 -0.01149,-0.00825 -0.02569,-0.011367 -0.0142,-0.00312 -0.04427,-0.00314 -0.06681,-3.4e-5 -0.03395,0.00467 -0.04738,0.012271 -0.07823,0.044263 -0.02048,0.021244 -0.0315,0.036741 -0.0245,0.034439 0.007,-0.0023 0.05377,-0.017106 0.103918,-0.032896 z m 0.618059,-0.1684528 c 0.08175,-0.018464 0.209798,-0.044965 0.284544,-0.058891 0.07475,-0.013926 0.216168,-0.03699 0.314272,-0.051254 0.0981,-0.014264 0.256727,-0.033403 0.352495,-0.042531 0.09577,-0.00913 0.26968,-0.02115 0.38647,-0.026715 0.126936,-0.00605 0.302881,-0.00798 0.437433,-0.00481 0.123798,0.00292 0.276687,0.00922 0.339754,0.013996 0.06307,0.00478 0.199095,0.018446 0.302285,0.030372 l 0.187617,0.021684 0.05446,-0.054356 c 0.04148,-0.041406 0.07538,-0.064817 0.142287,-0.098263 0.04831,-0.024149 0.09608,-0.043965 0.106173,-0.044037 0.01009,-6.8e-5 0.02361,-0.00347 0.03005,-0.00754 0.0064,-0.00408 0.0091,-0.011664 0.0059,-0.016858 -0.0032,-0.00519 -0.01158,-0.00944 -0.0186,-0.00944 -0.007,0 -0.03337,-0.00975 -0.05855,-0.02166 -0.02648,-0.012527 -0.06168,-0.039335 -0.08347,-0.06358 l -0.03769,-0.04192 -0.01093,0.013177 c -0.006,0.00725 -0.0217,0.018744 -0.03486,0.025548 -0.01316,0.0068 -0.03828,0.012837 -0.05583,0.013407 -0.01755,5.691e-4 -0.04911,-0.00563 -0.07013,-0.013778 -0.02938,-0.011385 -0.05002,-0.013433 -0.08919,-0.00885 -0.02803,0.00328 -0.07963,0.00873 -0.114667,0.012118 -0.04853,0.00469 -0.0752,0.012649 -0.111958,0.033425 -0.02654,0.015 -0.07332,0.032515 -0.103945,0.038923 -0.03063,0.00641 -0.06285,0.00978 -0.0716,0.00749 -0.0087,-0.00229 -0.03625,0.00188 -0.0611,0.00926 -0.02486,0.00738 -0.05971,0.013422 -0.07746,0.013422 -0.01774,0 -0.04747,-0.00608 -0.06605,-0.013519 -0.02829,-0.011319 -0.03903,-0.011819 -0.066,-0.00307 -0.01772,0.00575 -0.07043,0.02719 -0.117151,0.047652 -0.04672,0.020462 -0.09067,0.040915 -0.09768,0.045451 -0.007,0.00454 -0.02798,0.016473 -0.04661,0.026528 -0.02107,0.011368 -0.04997,0.0185 -0.07644,0.018862 -0.03336,4.553e-4 -0.05897,-0.00726 -0.118352,-0.035641 -0.04168,-0.019922 -0.08697,-0.044188 -0.100643,-0.053925 -0.01367,-0.00974 -0.0318,-0.029105 -0.04027,-0.043039 l -0.01541,-0.025335 -0.06232,-0.00148 -0.06232,-0.00148 -0.08172,-0.039449 c -0.05862,-0.028296 -0.09044,-0.049641 -0.112578,-0.075499 -0.01697,-0.019828 -0.03413,-0.047886 -0.03812,-0.062351 -0.004,-0.014465 -0.0055,-0.038218 -0.0034,-0.052783 l 0.0039,-0.026482 -0.02632,-0.00578 c -0.01447,-0.00318 -0.03829,-0.00315 -0.05291,5.95e-5 l -0.02659,0.00584 0.02154,0.018192 c 0.01185,0.010006 0.02573,0.026541 0.03084,0.036745 0.0051,0.010204 0.0092,0.033137 0.009,0.050963 -1.95e-4,0.020767 -0.0071,0.040383 -0.01911,0.054605 -0.01034,0.012207 -0.02836,0.028221 -0.04004,0.035586 -0.01168,0.00737 -0.0499,0.019726 -0.08494,0.027469 -0.03504,0.00774 -0.09171,0.028995 -0.125936,0.047229 -0.03423,0.018233 -0.06823,0.033151 -0.07555,0.033151 -0.0073,0 -0.04222,0.013899 -0.07754,0.030887 -0.03881,0.018667 -0.07686,0.030887 -0.09617,0.030887 -0.01757,0 -0.04095,-0.0059 -0.05195,-0.013103 l -0.02,-0.013104 -0.04688,0.031056 c -0.02578,0.017081 -0.07217,0.048256 -0.103086,0.069279 -0.04032,0.027418 -0.0626,0.049892 -0.07884,0.079506 -0.01747,0.031872 -0.03142,0.045172 -0.06118,0.058338 -0.03107,0.013742 -0.04396,0.015395 -0.06639,0.00851 -0.02038,-0.00625 -0.03195,-0.0057 -0.04322,0.00206 -0.0085,0.00583 -0.03306,0.01994 -0.05466,0.031355 -0.0216,0.011415 -0.05696,0.036318 -0.07857,0.055341 -0.02161,0.019023 -0.03929,0.036613 -0.03929,0.03909 0,0.00248 0.04873,-0.00852 0.108296,-0.024429 0.05956,-0.015912 0.175186,-0.044038 0.256939,-0.062503 z M 10.565106,3.8346666 c 0.02641,-0.050822 0.04801,-0.094359 0.04801,-0.096749 0,-0.00239 -0.01816,6.752e-4 -0.04035,0.00681 -0.02219,0.00614 -0.05811,0.013538 -0.07982,0.016448 -0.02291,0.00307 -0.05638,0.016487 -0.07977,0.031975 -0.02216,0.014677 -0.05137,0.044123 -0.06491,0.065437 l -0.02462,0.038752 0.06616,0.00578 c 0.03639,0.00318 0.07763,0.00954 0.09164,0.014134 0.01402,0.0046 0.02777,0.00869 0.03056,0.00909 0.0028,4.018e-4 0.02668,-0.040851 0.05309,-0.091673 z m 2.579039,-0.4256919 c 0.04364,-0.00933 0.08085,-0.018458 0.08269,-0.02029 0.0018,-0.00183 -0.02918,-0.021052 -0.06891,-0.042711 -0.03973,-0.021658 -0.0796,-0.049794 -0.0886,-0.062525 -0.009,-0.01273 -0.01912,-0.035876 -0.02249,-0.051435 l -0.0061,-0.028289 -0.04377,0.00591 c -0.02407,0.00325 -0.05069,0.00955 -0.05915,0.013999 -0.0085,0.00445 -0.0135,0.01261 -0.0112,0.018133 0.0023,0.00552 0.01,0.029153 0.01708,0.052512 0.0071,0.023358 0.01596,0.059501 0.0197,0.080317 0.0054,0.030322 0.01101,0.039021 0.02802,0.043746 0.01168,0.00324 0.03297,0.00628 0.04731,0.00674 0.01435,4.655e-4 0.06179,-0.00678 0.105436,-0.016111 z M 12.658956,3.2041001 c 0.0403,-0.04014 0.04748,-0.051832 0.04528,-0.073696 -0.0014,-0.014293 0.0051,-0.041153 0.01458,-0.059689 0.0095,-0.018536 0.0565,-0.073629 0.104541,-0.1224299 0.06091,-0.061873 0.09722,-0.091985 0.119961,-0.099488 0.01794,-0.00592 0.04278,-0.00871 0.05521,-0.0062 0.01243,0.00251 0.02889,0.007 0.03658,0.00998 l 0.01399,0.00541 -0.01162,-0.060991 c -0.0064,-0.033545 -0.01623,-0.066543 -0.02186,-0.07333 -0.0056,-0.00679 -0.02084,-0.01782 -0.03379,-0.02452 -0.01295,-0.0067 -0.03001,-0.012181 -0.03791,-0.012181 -0.0079,0 -0.0189,0.00622 -0.02446,0.013824 -0.0084,0.011426 -0.02548,0.01356 -0.09871,0.012303 -0.04873,-8.367e-4 -0.102636,-0.00469 -0.119784,-0.00855 -0.02588,-0.00584 -0.0391,-0.00304 -0.07775,0.01646 -0.03014,0.015201 -0.08355,0.030049 -0.15134,0.042072 -0.05762,0.010219 -0.135345,0.026248 -0.172718,0.035621 -0.05349,0.013415 -0.08389,0.027884 -0.142851,0.068 -0.0412,0.028027 -0.08789,0.056388 -0.103777,0.063024 -0.01588,0.00664 -0.04381,0.012065 -0.06206,0.012065 -0.01825,0 -0.04935,-0.0057 -0.06911,-0.012676 l -0.03593,-0.012676 0.0064,0.014799 c 0.0035,0.00814 0.01049,0.026938 0.01551,0.041774 0.0063,0.018565 0.01581,0.028263 0.0306,0.031108 0.01181,0.00227 0.04632,-9.156e-4 0.07669,-0.00709 0.03037,-0.00617 0.08104,-0.015813 0.112604,-0.021425 0.03157,-0.00561 0.0717,-0.00755 0.08919,-0.00431 0.01748,0.00324 0.04326,0.012813 0.05727,0.02127 0.01401,0.00846 0.04268,0.018069 0.0637,0.02136 0.02102,0.00329 0.06422,0.013062 0.096,0.021715 0.03178,0.00865 0.07054,0.023617 0.08613,0.033254 0.01559,0.00964 0.04597,0.038146 0.06751,0.063353 0.02154,0.025207 0.03915,0.048696 0.03915,0.052198 0,0.0035 -0.01581,0.027304 -0.03513,0.052892 l -0.03513,0.046525 0.02758,-0.016024 c 0.01517,-0.00881 0.04913,-0.037493 0.07547,-0.063733 z m 4.702289,-0.1635638 c -0.0092,-0.00642 -0.08173,-0.048692 -0.16115,-0.093945 -0.07942,-0.045253 -0.253329,-0.1367934 -0.38647,-0.2034234 -0.133141,-0.06663 -0.324253,-0.1558207 -0.424692,-0.1982015 -0.10044,-0.042381 -0.239951,-0.098645 -0.310026,-0.1250312 -0.07007,-0.026386 -0.136187,-0.051632 -0.146919,-0.056101 -0.01073,-0.00447 -0.02159,-0.00813 -0.02414,-0.00813 -0.0025,0 0.01292,0.019525 0.03437,0.043388 0.02146,0.023863 0.03901,0.050652 0.03901,0.059531 0,0.00888 0.01172,0.032326 0.02605,0.052107 0.01433,0.01978 0.04395,0.046927 0.06583,0.060326 0.02188,0.013399 0.05252,0.03636 0.0681,0.051024 0.01558,0.014664 0.0335,0.036529 0.03982,0.048588 l 0.01149,0.021926 0.0749,0.00922 c 0.04119,0.00507 0.09962,0.017777 0.129835,0.028233 0.03484,0.012058 0.07521,0.019045 0.110364,0.019105 0.03049,5.1e-5 0.07263,-0.0028 0.09365,-0.00634 0.03009,-0.00507 0.04894,-0.0024 0.08859,0.01251 0.036,0.013542 0.06507,0.033364 0.101926,0.069495 l 0.05156,0.05055 0.135019,0.028681 c 0.07426,0.015774 0.159077,0.036687 0.188482,0.046472 0.02941,0.00979 0.07737,0.033244 0.106592,0.052131 0.02922,0.018886 0.06098,0.03752 0.07058,0.041407 0.0096,0.00389 0.02117,0.00731 0.02571,0.00761 0.0045,2.964e-4 7.22e-4,-0.00471 -0.0085,-0.011129 z"
         id="path9157" /></g></g></svg>
