<?xml version="1.0" encoding="UTF-8" standalone="no"?>
<!-- Created with Inkscape (http://www.inkscape.org/) -->

<svg
   width="200"
   height="200"
   viewBox="0 0 52.916668 52.916666"
   version="1.1"
   id="svg8"
   inkscape:version="1.2.2 (b0a8486541, 2022-12-01)"
   sodipodi:docname="party.svg"
   xml:space="preserve"
   xmlns:inkscape="http://www.inkscape.org/namespaces/inkscape"
   xmlns:sodipodi="http://sodipodi.sourceforge.net/DTD/sodipodi-0.dtd"
   xmlns="http://www.w3.org/2000/svg"
   xmlns:svg="http://www.w3.org/2000/svg"
   xmlns:rdf="http://www.w3.org/1999/02/22-rdf-syntax-ns#"
   xmlns:cc="http://creativecommons.org/ns#"
   xmlns:dc="http://purl.org/dc/elements/1.1/"><defs
     id="defs2"><inkscape:path-effect
       effect="envelope"
       id="path-effect4658"
       is_visible="true"
       yy="true"
       xx="true"
       bendpath1="m -199.08406,108.42369 h 7.0057"
       bendpath2="m -192.07836,108.42369 v 6.75242"
       bendpath3="m -199.08406,115.17611 h 7.0057"
       bendpath4="m -199.08406,108.42369 v 6.75242" /><inkscape:path-effect
       effect="bend_path"
       id="path-effect4656"
       is_visible="true"
       bendpath="m -192.00142,114.60623 c 2.12577,-0.53066 4.48261,0.85111 7.0057,0"
       prop_scale="1"
       scale_y_rel="false"
       vertical="false"
       bendpath-nodetypes="cc" /><inkscape:path-effect
       effect="bounding_box"
       id="path-effect4654"
       is_visible="true"
       linkedpath=""
       visualbounds="false" /></defs><sodipodi:namedview
     id="base"
     pagecolor="#ffffff"
     bordercolor="#666666"
     borderopacity="1.0"
     inkscape:pageopacity="0.0"
     inkscape:pageshadow="2"
     inkscape:zoom="3.6203867"
     inkscape:cx="82.035436"
     inkscape:cy="100.54175"
     inkscape:document-units="px"
     inkscape:current-layer="g5175"
     showgrid="false"
     fit-margin-top="0"
     fit-margin-left="0"
     fit-margin-right="0"
     fit-margin-bottom="0"
     inkscape:window-width="1920"
     inkscape:window-height="1012"
     inkscape:window-x="0"
     inkscape:window-y="0"
     inkscape:window-maximized="1"
     showguides="false"
     inkscape:object-nodes="true"
     units="px"
     inkscape:snap-page="true"
     inkscape:showpageshadow="2"
     inkscape:pagecheckerboard="0"
     inkscape:deskcolor="#d1d1d1" /><metadata
     id="metadata5"><rdf:RDF><cc:Work
         rdf:about=""><dc:format>image/svg+xml</dc:format><dc:type
           rdf:resource="http://purl.org/dc/dcmitype/StillImage" /></cc:Work></rdf:RDF></metadata><g
     inkscape:label="Layer 1"
     inkscape:groupmode="layer"
     id="layer1"
     transform="translate(98.048812,-95.14345)"><g
       style="stroke-width:0.5"
       transform="matrix(2,0,0,2,-98.048812,95.143449)"
       id="g5175"><rect
         y="-1.110223e-16"
         x="0"
         height="26.458334"
         width="26.458334"
         id="rect5163"
         style="opacity:1;fill:#222222;fill-opacity:1;fill-rule:nonzero;stroke:none;stroke-width:0.25;stroke-linecap:butt;stroke-linejoin:round;stroke-miterlimit:4;stroke-dasharray:none;stroke-dashoffset:0;stroke-opacity:0.90944878;paint-order:normal"
         rx="1.984375"
         ry="1.984375" /><rect
         style="opacity:1;fill:#90382a;fill-opacity:1;fill-rule:nonzero;stroke:none;stroke-width:0.25;stroke-linecap:butt;stroke-linejoin:round;stroke-miterlimit:4;stroke-dasharray:none;stroke-dashoffset:0;stroke-opacity:0.90944878;paint-order:normal"
         id="rect5165"
         width="23.8125"
         height="23.8125"
         x="1.322917"
         y="1.322917"
         rx="1.3229166"
         ry="1.3229166" /><path
         style="opacity:1;fill:#222222;fill-opacity:1;fill-rule:nonzero;stroke:none;stroke-width:0.24999997;stroke-linecap:butt;stroke-linejoin:round;stroke-miterlimit:4;stroke-dasharray:none;stroke-dashoffset:0;stroke-opacity:0.90944878;paint-order:normal"
         d="m 0.72760492,18.520836 v 4.167188 c 0,1.539081 1.23904398,2.778124 2.77812498,2.778124 H 22.952604 c 1.539081,0 2.778125,-1.239043 2.778125,-2.778124 v -4.167188 z"
         id="rect5205-3-6"
         inkscape:connector-curvature="0" /><text
         xml:space="preserve"
         style="font-size:7.28055px;fill:#222222;fill-opacity:1;stroke-width:0.303363"
         x="0.9965632"
         y="24.805462"
         id="text2040"><tspan
           sodipodi:role="line"
           id="tspan2038"
           style="font-style:normal;font-variant:normal;font-weight:bold;font-stretch:normal;font-family:'Gothic A1';-inkscape-font-specification:'Gothic A1 Bold';fill:#ffffff;fill-opacity:1;stroke-width:0.303363"
           x="0.9965632"
           y="24.805462">PARTY</tspan></text><g
         transform="matrix(0.07066004,0,0,0.07066004,0.47697547,-1.0819237)"
         id="g3867"><path
           style="fill:#ffffff;stroke:#ffffff;stroke-width:5.35088;stroke-dasharray:none;stroke-opacity:1"
           d="M 71.898305,87.783898 C 83.053971,80.738314 103.8593,72.699152 131.33898,72.699152 c 43.27056,0 56.17437,9.745763 95.92373,9.745763 29.27346,0 60.04252,-4.847384 74.92373,-8.677966 V 234.61017 c -12.29527,6.05657 -37.86411,15.66101 -72.4322,15.66101 -47.34106,0 -63.37139,-10.32203 -96.27967,-10.32203 -27.00786,0 -51.640893,8.27496 -61.576265,15.16949 z"
           id="path3806"
           inkscape:connector-curvature="0"
           sodipodi:nodetypes="cssccsscc" /><path
           style="color:#000000;font-style:normal;font-variant:normal;font-weight:normal;font-stretch:normal;font-size:medium;line-height:normal;font-family:Sans;-inkscape-font-specification:Sans;text-indent:0;text-align:start;text-decoration:none;text-decoration-line:none;letter-spacing:normal;word-spacing:normal;text-transform:none;writing-mode:lr-tb;direction:ltr;baseline-shift:baseline;text-anchor:start;display:inline;overflow:visible;visibility:visible;fill:#ffffff;fill-opacity:1;fill-rule:nonzero;stroke:none;stroke-width:2.8;marker:none;enable-background:accumulate"
           d="m 155.03125,73.8125 v 1.40625 c 9.4725,0.929739 17.48697,2.311564 25.34375,3.71875 13.59828,2.435517 26.8859,4.90625 46.875,4.90625 1.09397,0 2.1852,-0.01819 3.28125,-0.03125 v -1.40625 c -1.09479,0.01312 -2.18976,0.03125 -3.28125,0.03125 -31.41373,0 -46.10373,-6.070996 -72.21875,-8.625 z m 0,166.25 v 1.40625 c 20.91379,2.87384 38.80522,8.8125 74.71875,8.8125 0.26217,0 0.52011,0.001 0.78125,0 V 248.875 c -0.26237,0.001 -0.5178,0 -0.78125,0 -23.56878,0 -39.26347,-2.5796 -53.28125,-5.15625 -7.31163,-1.34397 -14.18525,-2.67716 -21.4375,-3.65625 z"
           id="path3808"
           inkscape:connector-curvature="0" /><path
           style="fill:#90382a;fill-opacity:1;stroke:none"
           d="m 131.34375,72.6875 c -27.47968,0 -48.281834,8.048166 -59.4375,15.09375 V 255.125 c 9.935372,-6.89453 34.55464,-15.1875 61.5625,-15.1875 7.94364,0 14.90796,0.61873 21.5625,1.53125 V 73.8125 c -6.93083,-0.67741 -14.61346,-1.125 -23.6875,-1.125 z"
           id="rect3796"
           inkscape:connector-curvature="0" /><path
           style="fill:#90382a;fill-opacity:1;stroke:none"
           d="m 302.1875,73.78125 c -14.32635,3.687754 -43.39018,8.284846 -71.65625,8.625 v 167.875 c 34.1702,-0.14383 59.45423,-9.64561 71.65625,-15.65625 z"
           id="rect3798"
           inkscape:connector-curvature="0" /><rect
           y="72.661018"
           x="72.183044"
           height="197.8983"
           width="14.7"
           id="rect3763"
           style="fill:#90382a;fill-opacity:1;stroke:#ffffff;stroke-width:2.8;stroke-miterlimit:4;stroke-dasharray:none;stroke-opacity:1" /><path
           style="fill:#ffffff;fill-opacity:1;stroke:none;stroke-width:0.500412"
           d="m 71.898305,53.944633 c 11.164858,-7.05139 31.987335,-15.097176 59.489655,-15.097176 43.30622,0 56.22066,11.755442 96.00277,11.755442 20.74818,0 39.0747,-2.578321 52.54326,-5.343383 V 214.82285 c -12.3054,3.92421 -28.63345,7.83696 -52.54326,7.83696 -43.8178,0 -65.91718,-9.97431 -96.00277,-9.97431 -27.03011,0 -47.764969,6.50065 -59.489655,12.6884 z"
           id="path3765"
           inkscape:connector-curvature="0"
           sodipodi:nodetypes="cssccsscc" /><path
           sodipodi:type="star"
           style="fill:#90382a;fill-opacity:1;stroke:none"
           id="path3771"
           sodipodi:sides="5"
           sodipodi:cx="97.525421"
           sodipodi:cy="64.067795"
           sodipodi:r1="28.483473"
           sodipodi:r2="10.937654"
           sodipodi:arg1="1.5707963"
           sodipodi:arg2="2.1991149"
           inkscape:flatsided="false"
           inkscape:rounded="-3.469447e-18"
           inkscape:randomized="0"
           d="m 97.525422,92.551268 -6.428993,-19.634726 -20.6604,-0.04687 16.687066,-12.181799 -6.33984,-19.663692 16.742167,12.105959 16.742168,-12.10596 -6.33984,19.663693 16.68706,12.181797 -20.6604,0.04687 z"
           inkscape:transform-center-y="-2.7792537"
           transform="matrix(1.0218103,0,0,-1.0218103,20.47464,144.2482)" /><path
           style="fill:#90382a;fill-opacity:1;stroke:none"
           d="m 183.46875,69.5 c -2.75218,0 -5.46466,0.193161 -8.125,0.53125 28.44548,0.69556 51.28125,23.98082 51.28125,52.59375 0,29.05104 -23.54271,52.59375 -52.59375,52.59375 -15.95861,0 -30.26159,-7.09336 -39.90625,-18.3125 l -0.28125,0.125 -7,5.65625 -26.46875,21.40625 11.75,12.625 23.84375,-20.84375 c 11.6747,13.03545 28.62433,21.25 47.5,21.25 35.23655,0 63.8125,-28.57595 63.8125,-63.8125 0,-35.23655 -28.57595,-63.8125 -63.8125,-63.8125 z"
           id="path3773"
           inkscape:connector-curvature="0" /><path
           style="fill:#90382a;fill-opacity:1;stroke:none"
           d="m 188.90625,95.21875 c -4.05888,3.5092 -9.33837,5.625 -15.125,5.625 -3.51269,0 -6.82987,-0.78778 -9.8125,-2.1875 l -33.71875,31.75 14.46875,15.375 18.59375,-16.875 70.75,78.90625 14.84375,-13.21875 L 177.375,116.125 194.0625,100.96875 Z"
           id="path3775"
           inkscape:connector-curvature="0" /><path
           style="color:#000000;font-style:normal;font-variant:normal;font-weight:normal;font-stretch:normal;font-size:medium;line-height:normal;font-family:Sans;-inkscape-font-specification:Sans;text-indent:0;text-align:start;text-decoration:none;text-decoration-line:none;letter-spacing:normal;word-spacing:normal;text-transform:none;writing-mode:lr-tb;direction:ltr;baseline-shift:baseline;text-anchor:start;display:inline;overflow:visible;visibility:visible;fill:#ffffff;fill-opacity:1;fill-rule:nonzero;stroke:none;stroke-width:2.8;marker:none;enable-background:accumulate"
           d="m 281.15625,77.96875 c -0.46255,0.07332 -0.93658,0.146266 -1.40625,0.21875 v 136.5 c -11.72301,3.73848 -27.10557,7.44384 -49.21875,7.78125 v 1.40625 c 22.26266,-0.34311 37.8523,-4.11071 49.65625,-7.875 l 0.96875,-0.3125 v -1 z"
           id="path3831"
           inkscape:connector-curvature="0" /><rect
           style="fill:#90382a;fill-opacity:1;stroke:#ffffff;stroke-width:2.8;stroke-linecap:round;stroke-linejoin:miter;stroke-miterlimit:4;stroke-dasharray:none;stroke-dashoffset:0;stroke-opacity:1"
           id="rect2991"
           width="14.7"
           height="221.38983"
           x="57.483047"
           y="49.169491" /></g></g></g></svg>
