<?xml version="1.0" encoding="UTF-8" standalone="no"?>
<!-- Created with Inkscape (http://www.inkscape.org/) -->

<svg
   width="200"
   height="200"
   viewBox="0 0 52.916668 52.916666"
   version="1.1"
   id="svg8"
   inkscape:version="1.2.2 (b0a8486541, 2022-12-01)"
   sodipodi:docname="peasant.svg"
   xml:space="preserve"
   xmlns:inkscape="http://www.inkscape.org/namespaces/inkscape"
   xmlns:sodipodi="http://sodipodi.sourceforge.net/DTD/sodipodi-0.dtd"
   xmlns="http://www.w3.org/2000/svg"
   xmlns:svg="http://www.w3.org/2000/svg"
   xmlns:rdf="http://www.w3.org/1999/02/22-rdf-syntax-ns#"
   xmlns:cc="http://creativecommons.org/ns#"
   xmlns:dc="http://purl.org/dc/elements/1.1/"><defs
     id="defs2"><inkscape:path-effect
       effect="envelope"
       id="path-effect4658"
       is_visible="true"
       yy="true"
       xx="true"
       bendpath1="m -199.08406,108.42369 h 7.0057"
       bendpath2="m -192.07836,108.42369 v 6.75242"
       bendpath3="m -199.08406,115.17611 h 7.0057"
       bendpath4="m -199.08406,108.42369 v 6.75242" /><inkscape:path-effect
       effect="bend_path"
       id="path-effect4656"
       is_visible="true"
       bendpath="m -192.00142,114.60623 c 2.12577,-0.53066 4.48261,0.85111 7.0057,0"
       prop_scale="1"
       scale_y_rel="false"
       vertical="false"
       bendpath-nodetypes="cc" /><inkscape:path-effect
       effect="bounding_box"
       id="path-effect4654"
       is_visible="true"
       linkedpath=""
       visualbounds="false" /></defs><sodipodi:namedview
     id="base"
     pagecolor="#ffffff"
     bordercolor="#666666"
     borderopacity="1.0"
     inkscape:pageopacity="0.0"
     inkscape:pageshadow="2"
     inkscape:zoom="3.6203867"
     inkscape:cx="56.209465"
     inkscape:cy="99.989319"
     inkscape:document-units="px"
     inkscape:current-layer="g5175"
     showgrid="false"
     fit-margin-top="0"
     fit-margin-left="0"
     fit-margin-right="0"
     fit-margin-bottom="0"
     inkscape:window-width="1920"
     inkscape:window-height="1012"
     inkscape:window-x="0"
     inkscape:window-y="0"
     inkscape:window-maximized="1"
     showguides="false"
     inkscape:object-nodes="true"
     units="px"
     inkscape:snap-page="true"
     inkscape:showpageshadow="2"
     inkscape:pagecheckerboard="0"
     inkscape:deskcolor="#d1d1d1" /><metadata
     id="metadata5"><rdf:RDF><cc:Work
         rdf:about=""><dc:format>image/svg+xml</dc:format><dc:type
           rdf:resource="http://purl.org/dc/dcmitype/StillImage" /></cc:Work></rdf:RDF></metadata><g
     inkscape:label="Layer 1"
     inkscape:groupmode="layer"
     id="layer1"
     transform="translate(98.048812,-95.14345)"><g
       style="stroke-width:0.5"
       transform="matrix(2,0,0,2,-98.048812,95.143449)"
       id="g5175"><rect
         y="-1.110223e-16"
         x="0"
         height="26.458334"
         width="26.458334"
         id="rect5163"
         style="opacity:1;fill:#222222;fill-opacity:1;fill-rule:nonzero;stroke:none;stroke-width:0.25;stroke-linecap:butt;stroke-linejoin:round;stroke-miterlimit:4;stroke-dasharray:none;stroke-dashoffset:0;stroke-opacity:0.90944878;paint-order:normal"
         rx="1.984375"
         ry="1.984375" /><rect
         style="opacity:1;fill:#008033;fill-opacity:1;fill-rule:nonzero;stroke:none;stroke-width:0.25;stroke-linecap:butt;stroke-linejoin:round;stroke-miterlimit:4;stroke-dasharray:none;stroke-dashoffset:0;stroke-opacity:0.90944878;paint-order:normal"
         id="rect5165"
         width="23.8125"
         height="23.8125"
         x="1.322917"
         y="1.322917"
         rx="1.3229166"
         ry="1.3229166" /><path
         style="opacity:1;fill:#222222;fill-opacity:1;fill-rule:nonzero;stroke:none;stroke-width:0.24999997;stroke-linecap:butt;stroke-linejoin:round;stroke-miterlimit:4;stroke-dasharray:none;stroke-dashoffset:0;stroke-opacity:0.90944878;paint-order:normal"
         d="m 0.72760492,18.520836 v 4.167188 c 0,1.539081 1.23904398,2.778124 2.77812498,2.778124 H 22.952604 c 1.539081,0 2.778125,-1.239043 2.778125,-2.778124 v -4.167188 z"
         id="rect5205-3-6"
         inkscape:connector-curvature="0" /><text
         xml:space="preserve"
         style="font-size:4.99563px;fill:#222222;fill-opacity:1;stroke-width:0.208157"
         x="1.3352751"
         y="23.922956"
         id="text2040"><tspan
           sodipodi:role="line"
           id="tspan2038"
           style="font-style:normal;font-variant:normal;font-weight:bold;font-stretch:normal;font-family:'Gothic A1';-inkscape-font-specification:'Gothic A1 Bold';fill:#ffffff;fill-opacity:1;stroke-width:0.208157"
           x="1.3352751"
           y="23.922956">PEASANT</tspan></text><path
         fill="currentColor"
         d="m 7.6473831,1.7350199 0.8805495,2.0146439 c 0.023983,0.0034 0.065099,0.00887 0.1336249,0 0.1610345,-0.019538 0.4042992,-0.095929 0.633859,-0.2011224 0.2261333,-0.1051803 0.4454141,-0.240524 0.5756124,-0.3529045 0.051395,-0.045563 0.075378,-0.07778 0.092509,-0.1014117 L 9.3707941,1.7350258 Z M 10.22736,3.7013536 C 10.035489,3.8555343 9.802503,3.9936136 9.5523857,4.1083926 9.2988422,4.2245388 9.038446,4.3156822 8.7917549,4.3537138 l 0.5584811,1.2838218 0.883976,0.044543 0.561908,-0.6749746 z m 3.772317,0.6276915 c -0.668122,-0.011971 -1.603492,0.198381 -2.590256,0.534154 l 0.106215,0.2466911 -0.90796,1.0861266 -0.09936,0.116486 -1.5692293,-0.0788 -0.1130661,-0.25697 C 7.3020173,6.7819052 6.1326332,7.7104224 6.275851,8.3408554 7.5411698,12.630538 9.7853727,16.450822 11.762327,18.102281 l 0.394021,-0.472823 C 10.408952,16.166445 8.1990114,12.510622 6.9480827,8.4265145 L 8.3874566,7.7995087 c 1.2814222,4.1526323 3.4605264,7.8187343 5.3860864,9.4256533 l 0.39402,-0.472825 C 12.416743,15.289321 10.206802,11.636924 8.9527894,7.5528175 l 1.4424576,-0.630433 c 1.281423,4.1526325 3.460527,7.8187355 5.389514,9.4256535 l 0.390593,-0.472826 C 14.42796,14.412198 12.214593,10.759801 10.964007,6.6756933 l 1.442457,-0.6304329 c 1.281423,4.1526326 3.460527,7.8187356 5.386088,9.4256526 l 0.39402,-0.472823 C 16.439177,13.535075 14.225811,9.882677 12.975224,5.7985692 l 1.442456,-0.630433 c 1.281423,4.1492067 3.460528,7.8221628 5.386088,9.4256548 l 0.390595,-0.472825 C 18.409279,12.627115 16.141091,8.847945 14.904211,4.6610495 14.756882,4.4386857 14.434812,4.3365823 13.999677,4.3290451"
         id="path9677"
         style="stroke-width:0.0171314;fill:#ffffff;fill-opacity:1" /></g></g></svg>
