<?xml version="1.0" encoding="UTF-8" standalone="no"?>
<!-- Created with Inkscape (http://www.inkscape.org/) -->

<svg
   width="200"
   height="200"
   viewBox="0 0 52.916668 52.916666"
   version="1.1"
   id="svg8"
   inkscape:version="1.2.2 (b0a8486541, 2022-12-01)"
   sodipodi:docname="pragmatic.svg"
   xml:space="preserve"
   xmlns:inkscape="http://www.inkscape.org/namespaces/inkscape"
   xmlns:sodipodi="http://sodipodi.sourceforge.net/DTD/sodipodi-0.dtd"
   xmlns="http://www.w3.org/2000/svg"
   xmlns:svg="http://www.w3.org/2000/svg"
   xmlns:rdf="http://www.w3.org/1999/02/22-rdf-syntax-ns#"
   xmlns:cc="http://creativecommons.org/ns#"
   xmlns:dc="http://purl.org/dc/elements/1.1/"><defs
     id="defs2"><inkscape:path-effect
       effect="envelope"
       id="path-effect4658"
       is_visible="true"
       yy="true"
       xx="true"
       bendpath1="m -199.08406,108.42369 h 7.0057"
       bendpath2="m -192.07836,108.42369 v 6.75242"
       bendpath3="m -199.08406,115.17611 h 7.0057"
       bendpath4="m -199.08406,108.42369 v 6.75242" /><inkscape:path-effect
       effect="bend_path"
       id="path-effect4656"
       is_visible="true"
       bendpath="m -192.00142,114.60623 c 2.12577,-0.53066 4.48261,0.85111 7.0057,0"
       prop_scale="1"
       scale_y_rel="false"
       vertical="false"
       bendpath-nodetypes="cc" /><inkscape:path-effect
       effect="bounding_box"
       id="path-effect4654"
       is_visible="true"
       linkedpath=""
       visualbounds="false" /><mask
       id="ipTCompassOne0"><g
         fill="none"
         stroke="#fff"
         stroke-width="4"
         id="g7632"><path
           fill="#555"
           d="M24 44c9.389 0 17-7.611 17-17s-7.611-17-17-17S7 17.611 7 27s7.611 17 17 17Z"
           id="path7628" /><path
           stroke-linecap="round"
           stroke-linejoin="round"
           d="M19 4h10m-9 23l4-7l4 7l-4 7zM7 27h4m26 0h4M24 10v4m0 26v4m-6.5-1.287A17 17 0 0 0 24 44c2.302 0 4.498-.458 6.5-1.287M8.287 20.5A17 17 0 0 0 7 27c0 2.302.458 4.498 1.287 6.5m31.426-13A17 17 0 0 1 41 27c0 2.302-.458 4.498-1.287 6.5m-22.705-22A16.9 16.9 0 0 1 24 10c2.492 0 4.86.536 6.992 1.5"
           id="path7630" /></g></mask></defs><sodipodi:namedview
     id="base"
     pagecolor="#ffffff"
     bordercolor="#666666"
     borderopacity="1.0"
     inkscape:pageopacity="0.0"
     inkscape:pageshadow="2"
     inkscape:zoom="3.6203867"
     inkscape:cx="68.91529"
     inkscape:cy="95.293688"
     inkscape:document-units="px"
     inkscape:current-layer="g5175"
     showgrid="false"
     fit-margin-top="0"
     fit-margin-left="0"
     fit-margin-right="0"
     fit-margin-bottom="0"
     inkscape:window-width="1920"
     inkscape:window-height="1012"
     inkscape:window-x="0"
     inkscape:window-y="0"
     inkscape:window-maximized="1"
     showguides="false"
     inkscape:object-nodes="true"
     units="px"
     inkscape:snap-page="true"
     inkscape:showpageshadow="2"
     inkscape:pagecheckerboard="0"
     inkscape:deskcolor="#d1d1d1" /><metadata
     id="metadata5"><rdf:RDF><cc:Work
         rdf:about=""><dc:format>image/svg+xml</dc:format><dc:type
           rdf:resource="http://purl.org/dc/dcmitype/StillImage" /></cc:Work></rdf:RDF></metadata><g
     inkscape:label="Layer 1"
     inkscape:groupmode="layer"
     id="layer1"
     transform="translate(98.048812,-95.14345)"><g
       style="stroke-width:0.5"
       transform="matrix(2,0,0,2,-98.048812,95.143449)"
       id="g5175"><rect
         y="-1.110223e-16"
         x="0"
         height="26.458334"
         width="26.458334"
         id="rect5163"
         style="opacity:1;fill:#222222;fill-opacity:1;fill-rule:nonzero;stroke:none;stroke-width:0.25;stroke-linecap:butt;stroke-linejoin:round;stroke-miterlimit:4;stroke-dasharray:none;stroke-dashoffset:0;stroke-opacity:0.90944878;paint-order:normal"
         rx="1.984375"
         ry="1.984375" /><rect
         style="opacity:1;fill:#c76c00;fill-opacity:1;fill-rule:nonzero;stroke:none;stroke-width:0.25;stroke-linecap:butt;stroke-linejoin:round;stroke-miterlimit:4;stroke-dasharray:none;stroke-dashoffset:0;stroke-opacity:0.90944878;paint-order:normal"
         id="rect5165"
         width="23.8125"
         height="23.8125"
         x="1.322917"
         y="1.322917"
         rx="1.3229166"
         ry="1.3229166" /><path
         style="opacity:1;fill:#222222;fill-opacity:1;fill-rule:nonzero;stroke:none;stroke-width:0.24999997;stroke-linecap:butt;stroke-linejoin:round;stroke-miterlimit:4;stroke-dasharray:none;stroke-dashoffset:0;stroke-opacity:0.90944878;paint-order:normal"
         d="m 0.72760492,18.520836 v 4.167188 c 0,1.539081 1.23904398,2.778124 2.77812498,2.778124 H 22.952604 c 1.539081,0 2.778125,-1.239043 2.778125,-2.778124 v -4.167188 z"
         id="rect5205-3-6"
         inkscape:connector-curvature="0" /><text
         xml:space="preserve"
         style="font-size:3.9899px;fill:#222222;fill-opacity:1;stroke-width:0.16625"
         x="1.1815391"
         y="23.534513"
         id="text2040"><tspan
           sodipodi:role="line"
           id="tspan2038"
           style="font-style:normal;font-variant:normal;font-weight:bold;font-stretch:normal;font-family:'Gothic A1';-inkscape-font-specification:'Gothic A1 Bold';fill:#ffffff;fill-opacity:1;stroke-width:0.16625"
           x="1.1815391"
           y="23.534513">PRAGMATIC</tspan></text><g
         fill="currentColor"
         id="g8596"
         transform="matrix(0.49598028,0,0,0.49598028,5.2934825,1.9469052)"
         style="fill:#ffffff;fill-opacity:1;stroke:#ffffff;stroke-opacity:1;stroke-width:0.1600366;stroke-dasharray:none"><path
           d="M 0,16 C 0,24.822 7.178,32 16,32 24.822,32 32,24.822 32,16 32,7.178 24.822,0 16,0 7.178,0 0,7.178 0,16 M 16,1 C 24.271,1 31,7.729 31,16 31,24.271 24.271,31 16,31 7.729,31 1,24.271 1,16 1,7.729 7.729,1 16,1"
           id="path8590"
           style="fill:#ffffff;fill-opacity:1;stroke:#ffffff;stroke-opacity:1;stroke-width:0.1600366;stroke-dasharray:none" /><path
           d="M 16,29 C 23.168,29 29,23.168 29,16 29,8.832 23.168,3 16,3 8.832,3 3,8.832 3,16 3,23.168 8.832,29 16,29 M 15,4.051 v 1.526 a 0.5,0.5 0 0 0 1,0 V 4 c 6.279,0 11.438,4.85 11.949,11 h -1.527 a 0.5,0.5 0 0 0 0,1 H 28 c 0,6.617 -5.383,12 -12,12 v -1.577 a 0.5,0.5 0 0 0 -1,0 v 1.526 C 8.851,27.438 4,22.28 4,16 h 1.578 a 0.5,0.5 0 0 0 0,-1 H 4.051 C 4.534,9.181 9.181,4.534 15,4.051"
           id="path8592"
           style="fill:#ffffff;fill-opacity:1;stroke:#ffffff;stroke-opacity:1;stroke-width:0.1600366;stroke-dasharray:none" /><path
           d="m 9.386,23.041 a 0.5,0.5 0 0 0 0.292,-0.094 l 5.614,-4.036 c 0.228,0.056 0.463,0.093 0.708,0.093 1.654,0 3,-1.346 3,-3 A 3,3 0 0 0 18.913,15.317 L 23.019,9.605 A 0.501,0.501 0 0 0 22.321,8.906 l -5.778,4.153 a 3,3 0 0 0 -0.544,-0.055 c -1.654,0 -3,1.346 -3,3 q 0.002,0.293 0.058,0.571 L 8.98,22.249 a 0.501,0.501 0 0 0 0.406,0.792 M 14,16.005 c 0,-1.103 0.897,-2 2,-2 1.103,0 2,0.897 2,2 0,1.103 -0.897,2 -2,2 -1.103,0 -2,-0.898 -2,-2 m 6.424,-4.502 -1.987,2.765 a 3,3 0 0 0 -0.792,-0.767 z m -6.919,6.164 c 0.199,0.298 0.454,0.553 0.743,0.763 l -2.672,1.921 z"
           id="path8594"
           style="fill:#ffffff;fill-opacity:1;stroke:#ffffff;stroke-opacity:1;stroke-width:0.1600366;stroke-dasharray:none" /></g></g></g></svg>
