<?xml version="1.0" encoding="UTF-8" standalone="no"?>
<!-- Created with Inkscape (http://www.inkscape.org/) -->

<svg
   width="200"
   height="200"
   viewBox="0 0 52.916668 52.916666"
   version="1.1"
   id="svg8"
   inkscape:version="1.2.2 (b0a8486541, 2022-12-01)"
   sodipodi:docname="proletarian.svg"
   xml:space="preserve"
   xmlns:inkscape="http://www.inkscape.org/namespaces/inkscape"
   xmlns:sodipodi="http://sodipodi.sourceforge.net/DTD/sodipodi-0.dtd"
   xmlns="http://www.w3.org/2000/svg"
   xmlns:svg="http://www.w3.org/2000/svg"
   xmlns:rdf="http://www.w3.org/1999/02/22-rdf-syntax-ns#"
   xmlns:cc="http://creativecommons.org/ns#"
   xmlns:dc="http://purl.org/dc/elements/1.1/"><defs
     id="defs2"><inkscape:path-effect
       effect="envelope"
       id="path-effect4658"
       is_visible="true"
       yy="true"
       xx="true"
       bendpath1="m -199.08406,108.42369 h 7.0057"
       bendpath2="m -192.07836,108.42369 v 6.75242"
       bendpath3="m -199.08406,115.17611 h 7.0057"
       bendpath4="m -199.08406,108.42369 v 6.75242" /><inkscape:path-effect
       effect="bend_path"
       id="path-effect4656"
       is_visible="true"
       bendpath="m -192.00142,114.60623 c 2.12577,-0.53066 4.48261,0.85111 7.0057,0"
       prop_scale="1"
       scale_y_rel="false"
       vertical="false"
       bendpath-nodetypes="cc" /><inkscape:path-effect
       effect="bounding_box"
       id="path-effect4654"
       is_visible="true"
       linkedpath=""
       visualbounds="false" /></defs><sodipodi:namedview
     id="base"
     pagecolor="#ffffff"
     bordercolor="#666666"
     borderopacity="1.0"
     inkscape:pageopacity="0.0"
     inkscape:pageshadow="2"
     inkscape:zoom="3.6203867"
     inkscape:cx="119.04806"
     inkscape:cy="109.38058"
     inkscape:document-units="px"
     inkscape:current-layer="g5175"
     showgrid="false"
     fit-margin-top="0"
     fit-margin-left="0"
     fit-margin-right="0"
     fit-margin-bottom="0"
     inkscape:window-width="1920"
     inkscape:window-height="1012"
     inkscape:window-x="0"
     inkscape:window-y="0"
     inkscape:window-maximized="1"
     showguides="false"
     inkscape:object-nodes="true"
     units="px"
     inkscape:snap-page="true"
     inkscape:showpageshadow="2"
     inkscape:pagecheckerboard="0"
     inkscape:deskcolor="#d1d1d1" /><metadata
     id="metadata5"><rdf:RDF><cc:Work
         rdf:about=""><dc:format>image/svg+xml</dc:format><dc:type
           rdf:resource="http://purl.org/dc/dcmitype/StillImage" /></cc:Work></rdf:RDF></metadata><g
     inkscape:label="Layer 1"
     inkscape:groupmode="layer"
     id="layer1"
     transform="translate(98.048812,-95.14345)"><g
       style="stroke-width:0.5"
       transform="matrix(2,0,0,2,-98.048812,95.143449)"
       id="g5175"><rect
         y="-1.110223e-16"
         x="0"
         height="26.458334"
         width="26.458334"
         id="rect5163"
         style="opacity:1;fill:#222222;fill-opacity:1;fill-rule:nonzero;stroke:none;stroke-width:0.25;stroke-linecap:butt;stroke-linejoin:round;stroke-miterlimit:4;stroke-dasharray:none;stroke-dashoffset:0;stroke-opacity:0.90944878;paint-order:normal"
         rx="1.984375"
         ry="1.984375" /><rect
         style="opacity:1;fill:#6b472e;fill-opacity:1;fill-rule:nonzero;stroke:none;stroke-width:0.25;stroke-linecap:butt;stroke-linejoin:round;stroke-miterlimit:4;stroke-dasharray:none;stroke-dashoffset:0;stroke-opacity:0.90944878;paint-order:normal"
         id="rect5165"
         width="23.8125"
         height="23.8125"
         x="1.322917"
         y="1.322917"
         rx="1.3229166"
         ry="1.3229166" /><path
         style="opacity:1;fill:#222222;fill-opacity:1;fill-rule:nonzero;stroke:none;stroke-width:0.24999997;stroke-linecap:butt;stroke-linejoin:round;stroke-miterlimit:4;stroke-dasharray:none;stroke-dashoffset:0;stroke-opacity:0.90944878;paint-order:normal"
         d="m 0.72760492,18.520836 v 4.167188 c 0,1.539081 1.23904398,2.778124 2.77812498,2.778124 H 22.952604 c 1.539081,0 2.778125,-1.239043 2.778125,-2.778124 v -4.167188 z"
         id="rect5205-3-6"
         inkscape:connector-curvature="0" /><text
         xml:space="preserve"
         style="font-size:3.36299px;fill:#222222;fill-opacity:1;stroke-width:0.140128"
         x="1.3930188"
         y="23.292381"
         id="text2040"><tspan
           sodipodi:role="line"
           id="tspan2038"
           style="font-style:normal;font-variant:normal;font-weight:bold;font-stretch:normal;font-family:'Gothic A1';-inkscape-font-specification:'Gothic A1 Bold';fill:#ffffff;fill-opacity:1;stroke-width:0.140128"
           x="1.3930188"
           y="23.292381">PROLETARIAN</tspan></text><path
         fill="currentColor"
         d="M 13.5578,1.8300691 13.417109,2.6804145 A 7.1452909,7.1452909 0 0 0 11.651378,2.8913811 L 11.334325,2.0494671 9.4824955,2.7465263 9.8153037,3.6294257 A 7.2427114,7.2427114 0 0 0 8.4211835,4.6666509 L 7.6674175,4.0482329 6.4118678,5.5767274 7.1887131,6.2139912 A 7.1553688,7.1553688 0 0 0 6.5000514,7.7792377 L 5.4901355,7.6122879 5.1678756,9.5638893 6.1893133,9.7328933 c -0.012504,0.5784077 0.044104,1.1464377 0.1648062,1.6943777 l -0.9710473,0.365327 0.697061,1.85183 0.9616084,-0.362203 a 7.2393519,7.2393519 0 0 0 0.9836105,1.40252 l -0.6371638,0.775803 1.52957,1.254507 0.6162012,-0.750607 c 0.4832715,0.306303 1.0091425,0.556875 1.5683685,0.743249 l -0.152177,0.923816 1.951534,0.322293 0.145889,-0.882931 c 0.606224,0.02937 1.201428,-0.01815 1.776244,-0.135386 l 0.301332,0.798848 1.850788,-0.697061 -0.286551,-0.761089 a 7.2359927,7.2359927 0 0 0 1.500108,-1.034001 l 0.602529,0.494493 1.254508,-1.529602 -0.577402,-0.473431 a 7.1553688,7.1553688 0 0 0 0.781045,-1.680672 l 0.719131,0.118594 0.321152,-1.951569 -0.707475,-0.116576 A 7.1452909,7.1452909 0 0 0 20.40131,8.2537781 L 21.067936,8.0028354 20.370875,6.1510055 19.692728,6.4061139 A 7.2427114,7.2427114 0 0 0 18.600946,4.9153786 L 19.076458,4.3358935 17.547963,3.0803456 17.053472,3.6828743 C 16.536268,3.3766377 15.974119,3.1329528 15.375956,2.9616265 L 15.509216,2.1522969 13.557682,1.830003 Z M 13.288045,3.440463 a 6.439832,6.439832 0 0 1 1.135789,0.086065 c 3.49333,0.5765949 5.863403,3.8835836 5.286776,7.376882 -0.576596,3.493231 -3.883585,5.863372 -7.376883,5.286778 C 8.8404962,15.613491 6.4703556,12.306468 7.0469505,8.8132368 7.5515226,5.7565834 10.147342,3.559718 13.12841,3.444593 c 0.05325,-0.00196 0.106161,-0.00339 0.159572,-0.00411 z m 0.0073,0.627757 c -0.04827,6.11e-4 -0.09675,0.00135 -0.144782,0.00322 -2.692636,0.102017 -5.0279732,2.079997 -5.484102,4.8436826 -0.5213689,3.1585084 1.6117034,6.1343354 4.770245,6.6556694 3.158439,0.521369 6.133225,-1.611706 6.654592,-4.770246 0.521393,-3.1584444 -1.610672,-6.1332305 -4.769213,-6.6545655 a 5.8452308,5.8452308 0 0 0 -1.026677,-0.077705 z m 0.01375,0.6099206 c 0.302338,-0.00393 0.609549,0.018346 0.918539,0.069327 2.825058,0.4662751 4.731613,3.1272649 4.265337,5.9522934 -0.466275,2.825026 -3.126191,4.731614 -5.95125,4.265338 -0.866946,-0.143102 -1.647049,-0.493148 -2.299029,-0.991002 L 13.927472,9.4851964 15.702675,10.942304 17.665766,8.5508651 14.030301,5.568455 10.609096,6.7620228 12.994218,8.7188314 9.3733655,13.132115 C 8.4668509,12.02132 8.0240927,10.541201 8.276377,9.0127388 8.6844019,6.5408456 10.771787,4.7724942 13.179989,4.681322 c 0.043,-0.00162 0.0859,-0.0025 0.129097,-0.00322 z"
         id="path9888"
         style="stroke-width:0.0167966;fill:#ffffff;fill-opacity:1" /></g></g></svg>
