<?xml version="1.0" encoding="UTF-8" standalone="no"?>
<!-- Created with Inkscape (http://www.inkscape.org/) -->

<svg
   width="200"
   height="200"
   viewBox="0 0 52.916668 52.916666"
   version="1.1"
   id="svg8"
   inkscape:version="1.2.2 (b0a8486541, 2022-12-01)"
   sodipodi:docname="reform.svg"
   xml:space="preserve"
   xmlns:inkscape="http://www.inkscape.org/namespaces/inkscape"
   xmlns:sodipodi="http://sodipodi.sourceforge.net/DTD/sodipodi-0.dtd"
   xmlns="http://www.w3.org/2000/svg"
   xmlns:svg="http://www.w3.org/2000/svg"
   xmlns:rdf="http://www.w3.org/1999/02/22-rdf-syntax-ns#"
   xmlns:cc="http://creativecommons.org/ns#"
   xmlns:dc="http://purl.org/dc/elements/1.1/"><defs
     id="defs2"><inkscape:path-effect
       effect="envelope"
       id="path-effect4658"
       is_visible="true"
       yy="true"
       xx="true"
       bendpath1="m -199.08406,108.42369 h 7.0057"
       bendpath2="m -192.07836,108.42369 v 6.75242"
       bendpath3="m -199.08406,115.17611 h 7.0057"
       bendpath4="m -199.08406,108.42369 v 6.75242" /><inkscape:path-effect
       effect="bend_path"
       id="path-effect4656"
       is_visible="true"
       bendpath="m -192.00142,114.60623 c 2.12577,-0.53066 4.48261,0.85111 7.0057,0"
       prop_scale="1"
       scale_y_rel="false"
       vertical="false"
       bendpath-nodetypes="cc" /><inkscape:path-effect
       effect="bounding_box"
       id="path-effect4654"
       is_visible="true"
       linkedpath=""
       visualbounds="false" /></defs><sodipodi:namedview
     id="base"
     pagecolor="#ffffff"
     bordercolor="#666666"
     borderopacity="1.0"
     inkscape:pageopacity="0.0"
     inkscape:pageshadow="2"
     inkscape:zoom="3.6203867"
     inkscape:cx="89.493202"
     inkscape:cy="109.38058"
     inkscape:document-units="px"
     inkscape:current-layer="g5175"
     showgrid="false"
     fit-margin-top="0"
     fit-margin-left="0"
     fit-margin-right="0"
     fit-margin-bottom="0"
     inkscape:window-width="1920"
     inkscape:window-height="1012"
     inkscape:window-x="0"
     inkscape:window-y="0"
     inkscape:window-maximized="1"
     showguides="false"
     inkscape:object-nodes="true"
     units="px"
     inkscape:snap-page="true"
     inkscape:showpageshadow="2"
     inkscape:pagecheckerboard="0"
     inkscape:deskcolor="#d1d1d1" /><metadata
     id="metadata5"><rdf:RDF><cc:Work
         rdf:about=""><dc:format>image/svg+xml</dc:format><dc:type
           rdf:resource="http://purl.org/dc/dcmitype/StillImage" /></cc:Work></rdf:RDF></metadata><g
     inkscape:label="Layer 1"
     inkscape:groupmode="layer"
     id="layer1"
     transform="translate(98.048812,-95.14345)"><g
       style="stroke-width:0.5"
       transform="matrix(2,0,0,2,-98.048812,95.143449)"
       id="g5175"><rect
         y="-1.110223e-16"
         x="0"
         height="26.458334"
         width="26.458334"
         id="rect5163"
         style="opacity:1;fill:#222222;fill-opacity:1;fill-rule:nonzero;stroke:none;stroke-width:0.25;stroke-linecap:butt;stroke-linejoin:round;stroke-miterlimit:4;stroke-dasharray:none;stroke-dashoffset:0;stroke-opacity:0.90944878;paint-order:normal"
         rx="1.984375"
         ry="1.984375" /><rect
         style="opacity:1;fill:#dc5656;fill-opacity:1;fill-rule:nonzero;stroke:none;stroke-width:0.25;stroke-linecap:butt;stroke-linejoin:round;stroke-miterlimit:4;stroke-dasharray:none;stroke-dashoffset:0;stroke-opacity:0.90944878;paint-order:normal"
         id="rect5165"
         width="23.8125"
         height="23.8125"
         x="1.322917"
         y="1.322917"
         rx="1.3229166"
         ry="1.3229166" /><path
         style="opacity:1;fill:#222222;fill-opacity:1;fill-rule:nonzero;stroke:none;stroke-width:0.24999997;stroke-linecap:butt;stroke-linejoin:round;stroke-miterlimit:4;stroke-dasharray:none;stroke-dashoffset:0;stroke-opacity:0.90944878;paint-order:normal"
         d="m 0.72760492,18.520836 v 4.167188 c 0,1.539081 1.23904398,2.778124 2.77812498,2.778124 H 22.952604 c 1.539081,0 2.778125,-1.239043 2.778125,-2.778124 v -4.167188 z"
         id="rect5205-3-6"
         inkscape:connector-curvature="0" /><text
         xml:space="preserve"
         style="font-size:5.66428px;fill:#222222;fill-opacity:1;stroke-width:0.236017"
         x="1.1289592"
         y="24.18121"
         id="text2040"><tspan
           sodipodi:role="line"
           id="tspan2038"
           style="font-style:normal;font-variant:normal;font-weight:bold;font-stretch:normal;font-family:'Gothic A1';-inkscape-font-specification:'Gothic A1 Bold';fill:#ffffff;fill-opacity:1;stroke-width:0.236017"
           x="1.1289592"
           y="24.18121">REFORM</tspan></text><path
         fill="currentColor"
         d="m 21.288401,11.897344 0.01715,0.05023 0.01837,0.08104 0.008,0.08104 v 5.280023 a 0.60773702,0.60773702 0 0 1 -0.526708,0.602048 l -0.08104,0.0057 H 5.734131 A 0.60773702,0.60773702 0 0 1 5.1320828,17.472333 l -0.00567,-0.08263 v -5.267055 l 0.00162,-0.04226 0.00796,-0.06971 a 0.81031605,0.81031605 0 0 1 0.03798,-0.123973 L 7.4104454,7.0094219 a 0.60773702,0.60773702 0 0 1 0.4642919,-0.348464 l 0.08753,-0.00568 2.0582037,-8.085e-4 -0.6401471,1.1101355 -0.054515,0.1053539 H 8.350998 L 6.6801289,11.514763 H 19.768353 l -1.642509,-3.5216302 0.69849,-1.2130454 q 0.08183,0.061558 0.139349,0.1490879 l 0.04288,0.076994 z m -6.952515,-10.0608817 0.07454,0.036751 4.203919,2.4333798 c 0.265773,0.1539881 0.371127,0.47887 0.258484,0.7560241 l -0.03675,0.074544 -2.274559,3.947045 h 0.92214 a 0.60773702,0.60773702 0 0 1 0.08263,1.2106138 l -0.08263,0.0057 -1.622253,-8.08e-4 v 0.0024 h -3.30529 l -0.0024,-0.0024 H 8.9753298 A 0.60773702,0.60773702 0 0 1 8.8927005,9.0906932 l 0.082629,-0.00567 1.4772075,-8.147e-4 -0.147495,-0.085079 A 0.60773702,0.60773702 0 0 1 10.047354,8.2431032 l 0.03553,-0.074544 3.498134,-6.0741331 c 0.153988,-0.2665697 0.478073,-0.3727198 0.754401,-0.2592807 m -0.008,1.3937456 -2.889587,5.0207171 1.440745,0.834623 h 2.282656 l 2.321558,-4.0296988 z"
         id="path10825"
         style="stroke-width:0.405158;fill:#ffffff;fill-opacity:1" /></g></g></svg>
