<?xml version="1.0" encoding="UTF-8" standalone="no"?>
<!-- Created with Inkscape (http://www.inkscape.org/) -->

<svg
   width="200"
   height="200"
   viewBox="0 0 52.916668 52.916666"
   version="1.1"
   id="svg8"
   inkscape:version="1.2.2 (b0a8486541, 2022-12-01)"
   sodipodi:docname="union.svg"
   xml:space="preserve"
   xmlns:inkscape="http://www.inkscape.org/namespaces/inkscape"
   xmlns:sodipodi="http://sodipodi.sourceforge.net/DTD/sodipodi-0.dtd"
   xmlns="http://www.w3.org/2000/svg"
   xmlns:svg="http://www.w3.org/2000/svg"
   xmlns:rdf="http://www.w3.org/1999/02/22-rdf-syntax-ns#"
   xmlns:cc="http://creativecommons.org/ns#"
   xmlns:dc="http://purl.org/dc/elements/1.1/"><defs
     id="defs2"><inkscape:path-effect
       effect="envelope"
       id="path-effect4658"
       is_visible="true"
       yy="true"
       xx="true"
       bendpath1="m -199.08406,108.42369 h 7.0057"
       bendpath2="m -192.07836,108.42369 v 6.75242"
       bendpath3="m -199.08406,115.17611 h 7.0057"
       bendpath4="m -199.08406,108.42369 v 6.75242" /><inkscape:path-effect
       effect="bend_path"
       id="path-effect4656"
       is_visible="true"
       bendpath="m -192.00142,114.60623 c 2.12577,-0.53066 4.48261,0.85111 7.0057,0"
       prop_scale="1"
       scale_y_rel="false"
       vertical="false"
       bendpath-nodetypes="cc" /><inkscape:path-effect
       effect="bounding_box"
       id="path-effect4654"
       is_visible="true"
       linkedpath=""
       visualbounds="false" /></defs><sodipodi:namedview
     id="base"
     pagecolor="#ffffff"
     bordercolor="#666666"
     borderopacity="1.0"
     inkscape:pageopacity="0.0"
     inkscape:pageshadow="2"
     inkscape:zoom="3.6203867"
     inkscape:cx="74.853882"
     inkscape:cy="91.150484"
     inkscape:document-units="px"
     inkscape:current-layer="g5175"
     showgrid="false"
     fit-margin-top="0"
     fit-margin-left="0"
     fit-margin-right="0"
     fit-margin-bottom="0"
     inkscape:window-width="1920"
     inkscape:window-height="1012"
     inkscape:window-x="0"
     inkscape:window-y="0"
     inkscape:window-maximized="1"
     showguides="false"
     inkscape:object-nodes="true"
     units="px"
     inkscape:snap-page="true"
     inkscape:showpageshadow="2"
     inkscape:pagecheckerboard="0"
     inkscape:deskcolor="#d1d1d1" /><metadata
     id="metadata5"><rdf:RDF><cc:Work
         rdf:about=""><dc:format>image/svg+xml</dc:format><dc:type
           rdf:resource="http://purl.org/dc/dcmitype/StillImage" /></cc:Work></rdf:RDF></metadata><g
     inkscape:label="Layer 1"
     inkscape:groupmode="layer"
     id="layer1"
     transform="translate(98.048812,-95.14345)"><g
       style="stroke-width:0.5"
       transform="matrix(2,0,0,2,-98.048812,95.143449)"
       id="g5175"><rect
         y="-1.110223e-16"
         x="0"
         height="26.458334"
         width="26.458334"
         id="rect5163"
         style="opacity:1;fill:#222222;fill-opacity:1;fill-rule:nonzero;stroke:none;stroke-width:0.25;stroke-linecap:butt;stroke-linejoin:round;stroke-miterlimit:4;stroke-dasharray:none;stroke-dashoffset:0;stroke-opacity:0.90944878;paint-order:normal"
         rx="1.984375"
         ry="1.984375" /><rect
         style="opacity:1;fill:#7f333b;fill-opacity:1;fill-rule:nonzero;stroke:none;stroke-width:0.25;stroke-linecap:butt;stroke-linejoin:round;stroke-miterlimit:4;stroke-dasharray:none;stroke-dashoffset:0;stroke-opacity:0.90944878;paint-order:normal"
         id="rect5165"
         width="23.8125"
         height="23.8125"
         x="1.322917"
         y="1.322917"
         rx="1.3229166"
         ry="1.3229166" /><path
         style="opacity:1;fill:#222222;fill-opacity:1;fill-rule:nonzero;stroke:none;stroke-width:0.24999997;stroke-linecap:butt;stroke-linejoin:round;stroke-miterlimit:4;stroke-dasharray:none;stroke-dashoffset:0;stroke-opacity:0.90944878;paint-order:normal"
         d="m 0.72760492,18.520836 v 4.167188 c 0,1.539081 1.23904398,2.778124 2.77812498,2.778124 H 22.952604 c 1.539081,0 2.778125,-1.239043 2.778125,-2.778124 v -4.167188 z"
         id="rect5205-3-6"
         inkscape:connector-curvature="0" /><text
         xml:space="preserve"
         style="font-size:7.16779px;fill:#222222;fill-opacity:1;stroke-width:0.298664"
         x="1.5045105"
         y="24.761911"
         id="text2040"><tspan
           sodipodi:role="line"
           id="tspan2038"
           style="font-style:normal;font-variant:normal;font-weight:bold;font-stretch:normal;font-family:'Gothic A1';-inkscape-font-specification:'Gothic A1 Bold';fill:#ffffff;fill-opacity:1;stroke-width:0.298664"
           x="1.5045105"
           y="24.761911">UNION</tspan></text><path
         style="fill:#ffffff;fill-opacity:1;stroke-width:0.0107101"
         d="m 14.620689,18.009021 c -0.0027,-0.0027 -0.368742,-0.0055 -0.813396,-0.0063 l -0.808462,-0.0014 0.01495,-0.100767 c 0.0082,-0.05542 0.05589,-0.356201 0.105909,-0.668399 0.05002,-0.312198 0.08731,-0.57375 0.08286,-0.581226 -0.0045,-0.0075 -0.054,-0.02037 -0.110101,-0.02863 -0.328557,-0.04849 -0.992593,-0.25906 -1.419346,-0.450103 -0.111921,-0.0501 -0.224055,-0.09748 -0.249188,-0.105278 -0.05536,-0.01718 -0.05128,-0.02368 -0.388554,0.619014 -0.136014,0.259183 -0.258636,0.487988 -0.272492,0.508455 -0.02256,0.03331 -0.07318,0.0019 -0.483901,-0.300572 -0.9702805,-0.714549 -1.3904766,-1.032357 -1.3904766,-1.051713 0,-0.01106 0.214088,-0.227486 0.4757515,-0.480964 L 9.8399953,14.900272 9.7328693,14.786335 C 9.6739593,14.723675 9.5602182,14.592874 9.4801168,14.49568 9.4000168,14.39849 9.33073,14.318963 9.3261467,14.318963 c -0.00458,0 -0.598929,0.442476 -1.3207697,0.983277 -0.7218406,0.540802 -1.3141623,0.981671 -1.3162692,0.979709 -0.00681,-0.0063 0.3681461,-1.197766 0.7019487,-2.230737 0.034267,-0.10603 0.062293,-0.210128 0.062293,-0.23133 0,-0.0212 0.013257,-0.06458 0.029468,-0.09639 0.021759,-0.04274 0.7060858,-2.163945 1.0030018,-3.109017 0.022062,-0.07023 0.019447,-0.07687 -0.054939,-0.139231 C 8.387922,10.439232 7.381402,9.6290011 6.1941701,8.6747353 L 4.0355672,6.9397061 6.9206544,6.9342761 9.8057413,6.9288461 9.9125203,6.5915562 C 10.364489,5.1638694 11.14953,2.7052371 11.376992,2.0050393 l 0.04436,-0.1365595 0.09031,0.22224 c 0.129052,0.3175869 0.600279,1.4764591 0.80023,1.9679817 0.09345,0.2297307 0.184553,0.4526042 0.202443,0.4952741 l 0.03252,0.077581 0.316042,-0.081865 c 0.173824,-0.045026 0.322945,-0.089577 0.331379,-0.099002 0.0084,-0.00942 -0.03163,-0.3054351 -0.08905,-0.6577991 -0.05741,-0.352364 -0.100102,-0.6449454 -0.09486,-0.6501807 0.0053,-0.00524 0.526932,-0.014809 1.159326,-0.021276 l 1.149804,-0.011757 -0.01507,0.1371444 c -0.0083,0.075429 -0.04783,0.3729451 -0.08788,0.6611458 -0.04005,0.2882011 -0.06536,0.5314467 -0.05627,0.5405459 0.0091,0.0091 0.102956,0.03154 0.208567,0.049868 0.449493,0.078006 0.971912,0.2371994 1.411543,0.4301293 0.117026,0.051356 0.214753,0.091128 0.217172,0.088379 0.0024,-0.00274 0.129946,-0.2556111 0.283396,-0.5619186 0.153449,-0.3063078 0.291878,-0.573206 0.30762,-0.5931076 0.02612,-0.033035 0.04188,-0.026508 0.180925,0.07497 0.08377,0.061136 0.269654,0.1930868 0.413086,0.2932259 0.824781,0.5758375 1.323832,0.9343635 1.326799,0.9531951 0.0019,0.011781 -0.21004,0.2355366 -0.470882,0.4972346 l -0.474257,0.4758143 0.172877,0.1826331 c 0.318207,0.3361625 0.550599,0.6439709 0.837659,1.1094951 0.08536,0.1384274 0.164666,0.2516863 0.176237,0.2516863 0.01157,0 0.278875,-0.1253076 0.594009,-0.2784615 0.315134,-0.1531537 0.582597,-0.2784614 0.594365,-0.2784614 0.01177,0 0.138962,0.3592664 0.282652,0.7983702 0.330287,1.0093177 0.438336,1.3685535 0.417339,1.3875539 -0.0092,0.00828 -0.300573,0.060282 -0.647621,0.1155775 -0.34705,0.055293 -0.637375,0.1044746 -0.645168,0.1092923 -0.0077,0.00483 -0.0053,0.049933 0.0054,0.1002542 0.03468,0.1619343 0.04774,1.3010244 0.01815,1.5838404 -0.01471,0.140637 -0.02325,0.259022 -0.01898,0.263078 0.0043,0.0041 0.219832,0.04234 0.479015,0.08506 0.791058,0.130411 0.846094,0.141942 0.846094,0.177262 0,0.03326 -0.501394,1.588722 -0.635432,1.971289 l -0.07677,0.219094 -0.583111,-0.299421 c -0.320713,-0.164681 -0.592506,-0.29942 -0.603987,-0.29942 -0.01148,0 -0.06293,0.07471 -0.114329,0.166005 -0.228246,0.405439 -0.490089,0.771089 -0.849468,1.186247 -0.09821,0.113451 -0.178563,0.213763 -0.178563,0.222916 0,0.0092 0.212986,0.228325 0.473304,0.487051 0.386532,0.384168 0.468018,0.475232 0.444468,0.49671 -0.02641,0.02408 -1.378877,1.002262 -1.715094,1.240448 l -0.144008,0.102016 -0.04358,-0.07108 c -0.02397,-0.0391 -0.161582,-0.304708 -0.305814,-0.59025 -0.144234,-0.285542 -0.27482,-0.51929 -0.290192,-0.519438 -0.01537,-1.5e-4 -0.198514,0.06611 -0.406981,0.147247 -0.464615,0.180826 -0.61569,0.228152 -1.107317,0.346873 -0.212059,0.05121 -0.389021,0.09531 -0.393248,0.098 -0.0042,0.0027 0.03257,0.292213 0.08177,0.643381 0.04919,0.351168 0.09121,0.652947 0.09337,0.670618 0.0033,0.02741 -0.04749,0.03213 -0.345896,0.03213 -0.192395,0 -0.352031,-0.0022 -0.354745,-0.0049 z m 0.841457,-2.635902 c -0.04258,-0.111962 -1.222022,-3.95365 -1.466566,-4.776911 -0.05089,-0.171286 -0.0549,-0.203116 -0.02876,-0.227723 0.01671,-0.01573 0.449683,-0.3689633 0.962158,-0.784956 2.098584,-1.7034859 2.746643,-2.233928 2.783448,-2.2782752 0.02606,-0.031395 -0.161958,-0.033797 -2.234176,-0.028552 l -2.262628,0.00573 -0.154597,-0.3855621 C 12.975997,6.6848067 12.587968,5.716729 12.198737,4.7455816 11.809507,3.7744345 11.481406,2.9769107 11.469625,2.9733064 c -0.01178,-0.00361 -0.04174,0.058403 -0.06657,0.1377933 -0.0775,0.2477753 -1.360009,4.1484819 -1.365913,4.1543842 -0.0031,0.00309 -1.1302938,0.00604 -2.504927,0.00658 -1.4397315,5.653e-4 -2.499333,0.00904 -2.499333,0.01999 0,0.0129 3.7341361,3.0199541 3.8724091,3.1184031 0.014509,0.01033 -0.2397053,0.794115 -1.1686088,3.603011 -0.2424828,0.733243 -0.435391,1.338655 -0.4286844,1.345362 0.00674,0.0067 0.2677997,-0.178739 0.5802066,-0.412102 0.3124061,-0.233363 0.9568573,-0.714772 1.4321134,-1.069799 1.7364111,-1.297137 2.0785991,-1.550059 2.0971321,-1.550059 0.01588,0 1.003417,0.763215 3.607915,2.788367 0.235622,0.18321 0.435265,0.329266 0.44365,0.324571 0.0084,-0.0046 0.0053,-0.03471 -0.0069,-0.06669 z M 9.0384419,12.789033 c 0,-0.02112 0.3117095,-0.951951 0.545699,-1.629563 C 9.8390263,10.42134 9.9705213,9.9507929 9.9323303,9.9134853 9.9178203,9.8993151 9.3771833,9.5015399 8.7309048,9.029542 L 7.5558527,8.1713627 8.1632716,8.1687968 c 0.3340805,-0.0014 0.6604332,-0.00533 0.7252294,-0.00873 0.064796,-0.0034 0.466944,-0.00706 0.8936633,-0.00815 l 0.7758517,-0.00199 0.227219,-0.7015088 c 0.428502,-1.3229308 0.701651,-2.1279528 0.716242,-2.110887 0.008,0.00939 0.176147,0.5086708 0.373591,1.109505 0.197444,0.6008341 0.40387,1.2287224 0.458726,1.3953071 0.09672,0.2937219 0.101679,0.3031262 0.163996,0.3109792 0.03535,0.00446 0.705258,0.011236 1.488698,0.015069 0.783441,0.00384 1.426783,0.00921 1.429647,0.011961 0.0029,0.00274 -0.305584,0.2304725 -0.685443,0.5060628 -0.761334,0.5523531 -1.665786,1.2151771 -1.694139,1.2415436 -0.01896,0.017625 0.09562,0.3947803 0.507516,1.6706153 0.135023,0.418228 0.271801,0.847166 0.303949,0.953194 0.03215,0.106031 0.06345,0.205929 0.06956,0.221998 0.0216,0.05684 -0.456181,-0.279906 -1.130616,-0.796849 -0.498207,-0.381871 -0.796024,-0.594626 -1.097374,-0.783945 l -0.208444,-0.130944 -0.44487,0.317925 c -0.244678,0.17486 -0.767778,0.549327 -1.1624437,0.832151 -0.787421,0.564279 -0.8353841,0.597403 -0.8353844,0.576929 z m 5.0765681,2.068911 c 0,-0.01879 -0.202347,-0.175508 -1.752642,-1.357447 -0.522163,-0.398094 -0.957745,-0.723809 -0.967961,-0.723809 -0.01356,0 -0.484482,0.338703 -0.554369,0.398722 -0.0136,0.01169 0.188385,0.241604 0.361835,0.411864 0.193445,0.189888 0.43725,0.383329 0.69164,0.548764 0.216691,0.140918 0.859619,0.456486 1.064809,0.52264 0.41118,0.132562 1.156688,0.260994 1.156688,0.199266 z m 1.724318,-0.319335 c 1.100339,-0.427954 1.930842,-1.259049 2.398039,-2.399744 0.216516,-0.528639 0.311679,-1.011942 0.31148,-1.581909 C 18.548696,10.152465 18.518637,9.9097462 18.420539,9.5211721 18.276117,8.9491214 17.969036,8.3017259 17.664413,7.9270936 l -0.05058,-0.062198 -1.358496,1.0895738 c -1.871517,1.5010376 -1.935973,1.5536026 -1.943443,1.5849096 -0.0087,0.03653 0.245721,0.878733 0.934745,3.094113 0.09343,0.300416 0.201526,0.649982 0.2402,0.776811 0.08048,0.26392 0.04087,0.249503 0.352486,0.128306 z M 16.481932,6.8890599 C 16.442607,6.8505362 15.991973,6.6327289 15.775068,6.5474103 15.534743,6.4528797 15.264023,6.3723819 14.993234,6.3149354 14.847001,6.2839136 14.709972,6.276248 14.29708,6.2759959 c -0.509451,-3.106e-4 -0.667538,0.01564 -0.956675,0.096528 l -0.07845,0.021947 0.07522,0.1869372 c 0.04138,0.1028156 0.08768,0.2169616 0.102923,0.253658 l 0.0277,0.066721 1.517776,0.00413 c 0.991121,0.00269 1.510343,-0.00315 1.496356,-0.016856 z"
         id="path17417" /></g></g></svg>
